<mxfile host="app.diagrams.net" modified="2023-07-05T14:33:07.981Z" agent="Mozilla/5.0 (Windows NT 10.0; Win64; x64) AppleWebKit/537.36 (KHTML, like Gecko) Chrome/114.0.0.0 Safari/537.36" etag="hClGbHsjxFIC2DlCf5Zc" version="21.1.5" type="device">
  <diagram name="Page-1" id="7vt3VbxCNZY-gpGUFQwt">
    <mxGraphModel dx="794" dy="470" grid="1" gridSize="10" guides="1" tooltips="1" connect="1" arrows="1" fold="1" page="1" pageScale="1" pageWidth="850" pageHeight="1100" math="0" shadow="0">
      <root>
        <mxCell id="0" />
        <mxCell id="1" parent="0" />
        <mxCell id="fH7PO6iGlBYApESxM02J-1" value="" style="shape=image;verticalLabelPosition=bottom;labelBackgroundColor=default;verticalAlign=top;aspect=fixed;imageAspect=0;image=data:image/png,iVBORw0KGgoAAAANSUhEUgAAAggAAAD+CAYAAABfqP1OAAAAAXNSR0IArs4c6QAAIABJREFUeF7sXQeYVOXVfu/03dm+y9I7CCJSFSsWFAFrYizRxBaTmGi6iX9MTEzU2GKJJmoSNbYoKjY0WLCggoD03ju7sL3NTp977/+c893vlpnZZUFNQGeeR4GZW7577r3feb9z3vMe5awlz+lVyShyn5wFchbIWSBngZwF9scCiqLD5UvCF4hDAaDTf7oCnf7C3wCK8W8d9L34TnwvttGMP+nf/FdjG9qPvqD95DbyePIYmu4yziWPJ84vj8vHVBQegziWPLcYC/3blTYOcS4XXNCg+BJwedT9McmXalslBxC+VPczdzE5C+QskLPAf8UCLrcKjz8Oty8lHDAAzXTwEiQIgMC/6QpDBvpTAgTppBlMGGBAAAfh6Ml5M7BgcKGbx7KABgEEnX+XgIPAiTyu/E4eXxxYABMLIAigwPvx9wZA4OMCLm8SijcFAkNftY9y5pJn9epk7Kt23bnrzVkgZ4GcBXIWOEALePwJeHxJKG65uhYO2nL44u+mg9YJPIh/058mQDAcMkcZ2Hc7HT19SbBCOm7po+k7AhoSOPBWpuMXUQgCK9b5jciFBB8GQOBYgxyTDSDQeGSsgwGNO8VAiEDRV+mjnLnkOb06l2L4Kt3z3LXmLJCzQM4CB2gBHb5gDB5vUizKyYHb0gkyOiBX+I5VfZYUg9yeHDodRkYb6E8ZjRBRB7Hql8ejyIJqRB0EEBBpBbH6z4wgMFgxowcSQIjjMdgwfjMjD3BBMSIIMmWhKxrcvgTc3tQB2u7Q2005e3GOg3Do3bbciHMWyFkgZ4H/sgVcGrzBKK+kzQiA4Zjlyp5X9eaq33Lq6ZEFub8ECC4bIBC/ybC/cOx0fAYENk6DQALk3CVwEPuRs7dSDBbnoaOIhnFUBiH2tIM4voh4mAAFOjzES6DoyX/Z/P+L0zEHoTqRIyn+L4yfO2fOAjkL5CxwKFiAiHre/Bjn49PTABbZ0O6MLXBgz/fbIwvS6UuSoB1EWCkCyVuwjidBAP+pKAbxQVixQ4BgkBSNrUzHLyMIAghkAwhGdMEACWKsgNufgMubAJ3+y/zJRRC+zHc3d205C+QskLPAZ7SAm6oUgjHArZkpBVEZIFIM0jHLCoZ0sqEdIFjO3U4IFGREM91gEhadBEdxHgEUBJgQxEUr9SB/yxJBMFMY1nkFt0FEIbgCw6y2oMoGyVkQAMFOrJT7uXxxwcP4EpMXlbMXT8+VOX7GFyi3e84COQvkLPBltIAnEIcvPwq4NGN1LqoNZAmjLB20pwQsPoG0iFHemEZQlFEC6eCt6IJcte8fQLCXUGakGDoACHYwI4mQovRRAAR5HDtAkOOl1ANxEqiS48saScgBhC/jW527ppwFchbIWeAzWoDBQTAKl6KZhEF7vt8JBKxSxnSCoszjk9M1ax4c+X57VMDGPzBSBk7+gdQ5ENvR8TKIjYZjtwMZO/9AHC8zSmAHBBIgcGmmwX+Q6QV53ZxqMcogyVZfxkiCctai5/TqVK7M8TO+S7ndcxbIWSBngS+NBSjH7i9s55WxTCOkEwJNR0l6BYajJse7L4Bg1zkgJ+sy0gTpq34ptpQOEMwKB5Iysmkj2AEIjyGLWJOMfNirIkTJpJWekICDvrEDBPo3g4S0kkwiT3r9cf7vy8ZcZIBQldNB+NK82LkLyVkgZ4GcBT6LBUjjwFfUDpdMw0tHa9MysAsPmRoF5spdliwaqQhjvwzgYCtfZL0DW6mjU1FRVDBI/oHQLSD/L0SSpEOXxzdTDTaAYI8gSFGkjNJIo0zS5B8YAEEKKAmAIKo0JFGTjiWjKr5ADC5/4rOY/qDbVzlz8fRcFcNBd1tyA8pZIGeBnAX++xagUHmgKAxdsTtedo1OxULT+YrVt9AYsEh/dk0DGQlIz+ObjtfYX+oNmJLINu0CK7UhuQHpCopWBCBdRdFOjGQJZmOsZmmmAT4k8VGWVcrUiKWN4JSNFikJUQppFGPCHYgxJ+HL8skBhC/LncxdR84COQvkLPAZLOAJxOAvikBRNGOFLJ2xAAgUzrcIhcIhy/C8HSA49AZsUQLxvTiGFDWilbhwsLKKwC5oJJUXxYpdpgzEtpkAwR5ByCa6lC7a5FBeNAmJUjzJ0kCwtBFsIMRUhbQAggAiCrx5Ubi/JCBBOWvR87kqhs/wUuV2zVkgZ4GcBQ51CxDnIFDYDrCUsCVIZK6S0wCCpVpoOHHiISi6kD/OEE+SjjVdYtkmImCmGEREwm3rvSDSCUZZJQMFATDoY3EQrAZRUt2RQYWMFsjVvrmfTUXRiIZwJMQmsWxWWRjiS5Zeg9VAyiXlJHl8BmlS0eENxOD2Jw/1xwLKmZ9O13fnOAiH/I3MXUDOAjkL5CxwIBagfgp5xe3wcv6cHLSMFFiNi5zOWBIXhVMkB04kRbvMsrMHg1jxM0ywSSGz7zblka1eDrRlOkHRXO2LnTqMaEgVR5mSYM6A0UTKEnQyYh+2Hgzi+gTwkEDAEk8S4zQbR9maTTE3wrguM0WhAy63Bnd+FIr70JZlzgGEA3mjcvvkLJCzQM4CXwYLKDryCsPwBSMZrZflKl06d8EZsIsVZeoUiIiDcLQspGT7tyWqlC5k5GysRNvRylx0ZTTSCzYnbEYvFEPW2VaBYKYsjP2khLNMYQggICIaZiMoewTBJtssmkFZVRnpio8SjJjVEjadB9pW8aTgyY/IftKH5NOSAwiH5G3LDTpngZwFchb47BbIK2qHvyCS1urY1oXRyPcTd4BW5RIg2EWN7E5UrvxFtECmG2zqhbYIghGnMIh+Bt9BOm5TqMje4dECH/ZzOrgFaU2fzNJHg+cg0gDZUiiSbGkpRMoUhWxTba+WEFUWooJBlGm6RLtqGV0wAA43d2LwdWh+lGnEQcj1Yjg0715u1DkL5CyQs8ABWoAiB6R1YBIGDflie3dG4fBFZ8NszZIkCJClgxZ/QazSrQiAc7UvVvGibNDiGMjt5aJbrPLtFQzO46WnQuxdH0X6g6CAEFMyoh/2xkuGVoIFBCwOgpn6SIsKSJlnqcDI6RWj1FIAKIvbIMfqCUThzjs0tYZyAOEAX67cbjkL5CyQs8ChagHiG+SVtkJxUzmjzPlTpYK4IvGdJAOK6gNyfnYlRUEGtBQUhfMU5ZFmrwZeaVsEPpF60G29FAQhURIEaT/JgeCcf1pEwCqZFADEaoNgkRTlsSQAEeqNkkxp/V0oIVr9HKQoEl2R1YZaRgnEfhKw0L+sTpRinOJYlv1MWymAl0SnPIceH0E581OKIBya6OZQfTlz485ZIGeBnAX+VxZgUmJZKzz+pI00KJ1xenpBRBDI86Wv5GWEwOrDYDhRG09BaCTI5koWf0G0VrZxDbj5U2YEIV3TwN5QiUGMbb90giVjE5NQaB3bcOEC3BhcBQsYye6RsgLCsItikBczIhoivWCJNxn2k5oQMqLgVuEtCENxsQrDIfNRzvz0Rb0qcejmSP7blmZJUeOkIjTm/LA2t+2rbNvYj9HZ+KVu+YFcY1fPIY9t6H1kXM+BnPtQ28cNoMTjx+BgCUq9eXAZq5i6eBh7YiHUGVU+6ff6ULvOAxmvtYbs+t5f5Wep61b632xJDspf1A5fQZRX8tQuWazUJU/AIhjaGxnZV+G8WmYJZiNtkEZEzNAbsDU9susoWBoIVjMnXplLhYWsEQQZsRBgJD0dYqo62pot8ZZmpMMQNZJERaNiQuxnaSDsM4JgAAWPCZwsASa+s+mRD/ILvgS8VNlwCHV/VM5c+EJOB6EL7yq9TAVuH348YKy5dUJXce/WJSBNUkFa0XFJj8MwMFhqbvPQjmVoUaklqHiw8+HCjwaMg8dlhxHZB3D7loVAF7az700jyVc8+OnA8V24KmsTOam3puJ4v347tkbbzMYq+3WgQ2RjuhseHbim/xgUefyo8PoxorACFb58uBUXVF1jcLAz0orqRASNiQheq9mM+tSXRyVtX7eKnvljSnpiUnm/fW2a8bsExouaqjCnuZqf/68iwNpvw33BO1BnRn9pm+GkDPEh2QvB5iRlOF3m1O1Nkey/CSa/JXIknLFw3mbVgyOCYIkvWRUHsnWzPJbhxG3AwuyPYMo2OwGCrHjg89oAQSaZ0gkQZMpCAiTZkMlesmkHGHb1RxlRkSJRDGxsbaLTm0WRYbz5EZDmxKHyyQGErt4pVUNPVwBvT7zE3GNnexPOXfQK4PWAILWSTGHOCZei1JdnbjP5o2dRhzhcLhd0TUepquCtk7+NgNuzzzOPmv0PKH4fFLer65OrpqFM92DOyZft8/jZNkhqKvbG2tGmJvHP7UvwcWsNh/G+TB9yfNf0G42JZX0wPFjeJbAW11LYFW3Dc7vX4vWG7Uh1/Y4csqZTUiqu6H0Efj70mAO+hoZ4GLti7Zi5dyNeq9/G78mh/gkobhyZX4ISr99xKTti7dgcaztoL4+6MgZ7NEBxU+tm4WClhoFwsBbJziwlNAmK0vlZDr6jFEO6BoKiu4S8cVrqgc4nNQ8EWLAqGYTmgJHbd6z27b0QBEnR7L1gByUG78E6r7WfCQJs6owyFWLKL9u4FfSdvaETXYcFKKwUgx1EZapJGs+9oiFQFOJ7cCh8cgChC3eJQ3HJFI52F+Hxky8y93hr2xrcsGkulPwA1+0mYzGsOeMaQzpDbDbpzX+iPuCC2+uBnlJREk7gnWnfRcDt3eeZj3j1L/CWFDIA6fLqS1VREtPw0ZTv7vP4+9qAzlkVbcN5i1+GRgBnXzscAr+XuLy4fsA4nNtr+AGPtj7WjsmfzhCRoy+Bw+vQELE4rug5Ar844sQDtpXckShuf92+DP/avQr6fkbFPvPJP8cDEGO9n78Ajxx5BnrlFTmO/K+dK/HAjmWAe9/Rwc9xSF0+VHHPeoCIcmmdDq3SRNnV0Oo5YFUwWABB5NstnQPhMEVqwk5clG2VJUAwI+tG5YIUWZIkRUH0k3nbzAoGeR4ZmbDSFXaipAQilDrJ3l6a9rMIkLZrNiIA9u6RFnFRtn227ECETPEh2efMcsz0rpByG7dbRaCktcv37X+5oTJtIXEQciTFzm4CPQhaLI5vl/TDjROmmJse/8yf0VpeCFcwT7BbQ2GsPeda83dN13DKG4+iKd8DxecFEkkUt0Xx3rnXIODZN0AY9vy98FSUwEVRhC4+JVoyiZJwCvPO+X4X99j3Zuva6nHbpgVYF201VwL73uvg26K3Nw8PjjgVQ4vKP/PgQqkELln6H+yKt38pVsXZDKKFI7iy1wj8ctTEz2wvOkBMTeG6Ve9iSaj+kAVWxLAf4PLjn2Onolew2GGXx7csx1+2L+Wo38EWKfEVtiO/VDil9NWt5Bo4nZwk8MkeDEYJoOHc6Tj2cLpogCSdZDpPwCmEJBUK5f4W4HBGJ9JLHOV2ZurCFs6XaQVZ0ihAgB0gZEYQ7BUScvUvVRFlSWdHAEFerxixAAgyAmLZWOotWN0oCVjRdXnyo/Dkxbs8r38uL+ABHESZtnBGTgdhX4bTdKjRKF6d8DUcVtbd3HrsU3chUVkCd36A0wd6Swhrvv5j8/e2WBRnzX4aLUEvFIoCJJLwN4Xwk6FHwZ3SjKJdHdNGHoWyYEHGKIZNvwfebqUizbCvMRq/68kUitsTmHfuNRl7VDc3YOUuCvNaPwV9AfQsLkOf8m7I9zlDpvYDLGnag5s2foLqVKzLY+nikL/4zXQdASh45IhJGF/eO+v54skkPt2+ETubG4S+OxQcVtkT4/oNhs+TPR20rq0BN26Yi+2x0EHnED4Po+rtAiBcP9oJEAgwz16/EjWhlsxnQddRll+AU4cdiaA/kDGMJ7etwIO7ViJ1kK6y92k3TUVfzYd/Hn0meheUODZ/dMNiBgie/LyDKkri8cWRX9EMl0dQDR29EmxKhVJh0J4ioJbKouwwEyCYKQGbqJFY1TsBghWx4KNY2ggmoBCpAtn7wGy3nKW9tCQhSm6EuCBbNYItjSEBgtBAsMogpSIiV1KIKxMVFbaKB7aU7fwc27BJM8v92FZScdFWdilAmDXRih4VBoASCQt4CiLw+A7ufg25CEKWGYFSCr8YNB7FHuEwKTOnpVSc23sY3LaQ8mtbVkEP+OHyGH3JEyrO63+4ecRoMoE5e7cj4VFEOFrT8M8V87F9+1ZooQh0VYWuanj9+/+HET36fOEAYdaapfj9rOehyEbvRJr0+tGtoAg9i0qR7/XhvCPG44TDjsg6T37SWIUfrn6f9+8stE4O5MTi7pjaYwhXBMiPqmlY2rIX7zbuQkTLzMH9fMBYJgymf/6weYFJ8sw2MCaQenz4RRoxsy4RwcM7V0LRNFw/cByu6D8qY3ca67Jd2/DEp3Owas8u7AlbUZKBJeU4orI3zh95NE45PHNf4ms8uWMlHq1ai5gNdFV6/Lio1zCU+/LN89HPD+xcgZZkDIMChTi7+2BUBoLm7ylNw0Ii9DVVI6Z3LT/phYITSnpgYkW/DE4LXdemUCNm1+9AzQESKzsCCJqm4VvPPoRPq7fxcy2ch8Cd9Fux149LRx+Hy485Bd2LnE40lIxh8twXEKF3opP0TLHLgwt7DsWAgjIHCKFnaFlLDT9DYW3/63x6egO4oNcw9Ag4Abmq63htzwYsDTV2+KxxhVJKRW/Ng78ffRb6FFlkZLLBY+sX4YFty+ApyAMUkZLTOkH29Nx28wVwbuVgQWy2bZtQVbxbtw0L2+r2GbWj4xyeV4yTKvqhb36x4zj0HGzTd+K9+EqE9Di/t1atvtQAEPoHFa48XFZ2PPyKAYiN3P/tNe/yPR7gLcFZxSNR7ik0n9u2VBSvNa3B9kSL6WylY/TpblxROR49fMXmpdG510dq8VbjZrRqSVNYyAIuAohUeoP4Xk8ihFtGqYqF8PzedYhoKoblFeOSXqOM+Vg6bx1v7N2ERaH6jNJKO0CggVJKWAIEO5HRJFw6AIIsfbTAhDMVIiMkMgIi3wkrIuIANoYWBPVr8AbDULz7/xxnnaC/gC+VaQte1KtyzZqsiZxEPFQNs4/7BroHrBdBPBrOT7YSx/R7ZN+GUg5XzXsVi3Zvg55IAKoGPZHCaxf+ACMqen7hAGHm+uX41QcvA5TuMDudESzWOP2hxRMoc/twzXGn46pjT3U4dzm4S+a+iDVaFEq2PLKu41eDxuPEsj4o9vhQZiNrGu8b2lMJNCdj+Oe2ZXijcZcFNFQVtw0+Fuf0GZZhh1PmPosmynpmcSjMD9E0PDJyEk4o7+vYd1N7Ey5YPBNHFVbgjpGT0CMvM0ozZ8Mq3Pj2i2jUknDlBQC/V1ybpkEjm0TjKIUbJ/cbinu+cWXG2ELJOH6y+j0sa28U16JpGBcsw59GnIxeec7n56wFL+Hukaegwp+Pcm8AXhcVWIoPPSdtyTioiuSejfMxp62uQ0dFk/5F3Qfi8n6jUeTxMZC1AzF5zKiaZFu3p5J4rno9XqvdymVtXf10BhAum/UMljbvhcsWCWDHo2pIxeLwReP4y5mXYPJhRzpOR6vR4995HO15Xibupn8IXP184DiMLu6OCl9eJvAB+BkioDV91xo8Xbsl67WnH7fc48d9I05Gd3+Qj+uz2V7anypV2lJJvLhnA6bv2egAwQQy7zh8Io4oKIcHCroHgvCkHaM1EWN7K4qLX68VLbX489bFaNOdDoCe2R4eP/4xdhq8ioufhXTSMt1jOlZITeK+zQvxQUtNxvNAbvynA8bhpPI+CLo9DMz8rsxoV1RLoFkNIwkNV1Y9ihQ/A5bIEDlImgKO8fbEbX0vRJ7L5zDf8avvxhNDrkCpJx9lniC8ivXcUrVPQyqMdi2Bb2/6N3S6dh34Y5/JGJHfA929BfCljSmiJtCUiuLPu+ZifqiKn0mpgcCaCaqOw/yleHbUBQ4Muaq1Bndu+ghXDTgKY4p6ops/mDEnNyaiaEnG8fCOFXjPmF9kBEFyHkS0whB0MpUVXayIaCk12iMIkhthqD4apEWBtKQGgmxHbQMRDhEpO7FRbEMAxeNPwBuMQJHMya6+nP+l7XIAIcOjC77BeydcjB5BJwnps94Tmhyvnj8Tn4ZqxaSm6dCiMbw86RIcXlKZcfjh0++Bh1IMPm+nK2j7jpRiKGlPYG6WFMPMbWvx66Wz4SHOBENlQcfl9Egqxc5Qaw9DawnhgXMuw7Tho7Oed+R7/4Li8zh+K3f7cP2AsTi712FdNhNN9KctnIGommISqNbajrXn/yTjnCtbanHZ8jcBqvxI828UlfElVSw9/TsZ5z131uPYqiRx85En46K+VmRHbrizsQ6THr0T7tJiuEsK4KLQsNfD94bV3lIppCIxHpc3FMG140/CtSefmTEp3bXmYzzXsA26282RpqP9Rbh99Ono+Rmen6XNNfjhmvdENMHm1CnZdP+IUzCxPDPi1Jnhlzftwc2bFmBnItzl/H+HAIGA7ocvYVm8GRqlX0RRvDg9eZp4AlpjG+6feA6mDh7pGBZF1U565wlECnxw2yp5uKSyuAf+Pmpylxy+Bax0HD93OiJ6Kut1kbscm1eCx486p8vPJW34Ts1m/Gn7MrSkEuIdSSTx5PizML60R5ePs7BuF3615gO0uimCKMCQR1Fww8CjcGGvw7ictquf/9RuxR82LUDCWKcfGSzDY6PPQF4XyM72c+xJNuG22plYnawzVQSpGZOWVHGC0gu3DvkmAm4nQOjqGPcm2vD9jc/jR71OxJTyEV3a7YfrXsGSaJ0JEpjHkNIw1FWI5yd8y3GMVnL+8Qj6F3aNQ/SbNXPwduNuBkT2dtEOgSZbUydxMou0mJ5iEBEHI3VgPO/MUeCojKXJIMiLmakWWSUisYCs0vDnh+HOPzjLp5Uz55MOQo6kaD6JmgY1HMG7J12KHoUUHjWzTRkPPDGz7R8DZzq+s7YR4bzvzHsFS+PNcBEngRxzOIYZEy/A8OJumQDhOeIglBwAByGJuedlchDe2LEev1k9By4KgRqhYfGcc3KNqyz0aAxqcxtSDc1YeO3NKM/PXHWf/t6TqCO/YEx6+Trw+6HHYtp+gAN5setDjbh+zQfYHWpBqqEFDx17NiYNcjrz7e0tuGrxG2hWNHPcYn9y4iqu7zsKVww9ymG/Xc0NmPz6o+hRUYE/jj0Np/Qa5Pg9kojjjMfvQr3XBU95MVwFASgej0ifiKlTOIakCjUSh9rUguOKuuPW076OPiXOCaoh2o5z57+MiIeqXVSM8xTg9qOmoFdajrpLM6axET03b9Vswx1bPkWbJiRaiUdx3YCxuLyf0+nu67gJNYWH1y7EY7vXwB0MdFlbQ2+P4sreh+MXo09ynIIiYd/9+FUsTrbC7bVWk7QRl82lVAyHH78bfSqOqOjl2Pe51Z/i7q2LkSoOwu029tU0HF/aC4+MPmNfl5L19x2RVvxs9fsZXBCvDny92wD8ctjx8HehrDj94NtDTfjB6ndRk4hCC8fw5LHnYny583o6G/CCPdtxw7LZaM338rOVr7jwwwFjcHnf/bt/xpOOx3euwmO7ViOsqhjizsM9oyZhcHHFfttsUXgr7ql/GzWaINjqmoJULIlj1e6444jLDhgg7PdAjB0uXf0CNnGKQhALtUQKg7Q8zDgxM2K3v+e4ec1HeK1hJ0c2JJGRI30sEy0cvihxFP0mJHHR4gtYZEwzTWBGEIxOkyZBUa66nNUcJkeBCZ6yuZNMcYgVT15B6KDUR1CmLnhRr85VMZjPHa1ItfYILqsYjKBKTjPFjr13QTEuOMoq95q9dhk21tdY++k6vjXhJJQHrbAy5fy3NtSKBaDiYkc/s2EH9vgBt88rAEIkghknXIDDs7zowxggHCBJMQtAeH0nAYSPoBTmZ49I8KpZhRaJQq1vxtVDxuJXJ52Z8U4+s2U57tq5Ai6Pm8P7Nwwch8sHOHP0ZLMNNdX4YOMqQ99dx+ThozC8pzMNQFGVp3asxoNbliDREkJlOIkPrrjeMb5IKomHNy/GU3s3QfHYwvK6Dl88hTdPugjd03LKV7/0GD6JNeH0QYfj1nGnoTRg8QHogl5dvQi3LnkfsdJCuArz4ZIr4fSrpZmCbNIeQaquCfeedC7OGjY6wybHvf0vhP0ujiCMdxXgjglT0IsBZvZPcziEHfW1KMrPx8BuPeDKspqklMMt6+fh3eZqFq06PFCM+0aejL5B53F3Ndbh/Y1r0G68x/S4DS6vxEmHjWSi4KaGGlz/8Uxs82p8rVnTQ1mGyRGE3tlJis9sWYFdKvW7t1bBHsXF5bsBXcGEkkqMLXM6093NDfjpB69goycBpagALgIIuo5ReSX494RzsxoqqaqoaWlESzSM7kWlqEzjNMidFjbtwS0bF6AqETYjGscXdcfvhx+fkeoRDhfYWluNcDyOARXdUZSfGa6m7Wbt2YT/Wz8PejiKp477GsZ3I5KrgJDZPvZFw/yqbfjV0tkIFQQ4FTOppBfuHzM5635Ekt3dVIdYMomeJWUoL8iMXlIK48plb2FTpAVKWxiX9hyG/zv6NLgNoN4WjWDhtg3Y1lAHXVExdeRoDCzLHmn6W807eDm8Ein2aQrUaALHJLvjjlGXdwoQiANCH3nOfTlssgfNEfR8Z0sR0v6r2vbgO+tmQvO6RflhPIVBqTzMOPmqTg9fH2pBTWszivOC6FVSDo8EnLa9UrqG362dizcbdkKjMUgxKFPLQFZ1iDtqAgRbXwWhySBIlHLVLzkIsjQzXYuBhiAlqOV+goRpSDYbbadFfwuhvusrCMPrP7giCcqUBbkqBsdTSE4yEuMVNK2kiStATvM7Rx6Dm8662Nz0qmcfwse7tgIeo81nSsVb370BwyoFl4Ac3w9f+hfe3bZOTMhuF1wFQXgrSqEUF3BVA3vOTgDC0AMECJRi+KQDgPDr1R+xk+iQIEY5fUo3tLRD3VuPzT+6NeMlXdNSh4sXvc5chvGBYjx97Ncytnl33QrcP/dyTM1KAAAgAElEQVRtbKjfKxjdmoqRFb1w0bjjcNmEkx3b74mEcMOaOVheV41Acxj3HDcNpw5xEiVnVW3CzRvnI0b2NkLuRPK8oscw/OSwox05XJooJ/77PiRKC/G1gSPwp3GnZ4StfzV7BmY17gKojJQ4GZ3l5lkHIwmtsRW/O2IivjlifMYEOe2tJ7HbS2EYHeNcQdw5YWpWgEAh9j/MfA5V7S2oD7cj3+tFZUExJg05HN9MswsZaXnzXvx87UeoT8RwXEE3PDbhLIftNtZU4c/vzcQnVdsQ1zXhujQNlflBDKvoiaDXj2MOOxy3r54HT2UZa3Z0tQSPAMJVvUfgl2lVDDSAuJqCmhZBo3p24lVk40OEYlE8svB9PLdrHZIVxdCDecJhpFL428hTcWrlgIxnqLatBb+e+Sxa4xGQ3YoCeRhY0g03TjkfxfkWwZN2TGgq6Nme3bSb37UKxYsbhxyFKT2HZBx3+qcf4YOt61AXauPrKA8WoMQXwEOXZEbdImoSd21YiBe3rMIYVxAF0SQqA/n4+aSzUVHgLHN8c+0yvLx8IZtXcbvR4gY2uOPQ6H3XgdeP+RoGFZalTTc63lq7HC8un4/maBhETiwO5OPckeNw/phjEfCKcD9d/3MbluHv1WsR8SoMWHuGVdx10jnolhfErW+9jISWwtbGOtSFQ/AVt2JUz944oc8ofHv0NJSmaTZsj9bi59UvosEVAekUMEBIVOKO0VdkBQg7m2vw5w+ngxwuudI8jw+3TLkaBX5LFC7d0E8veBOfVG0SK3cAU4aMxfljne8+7VMTC+H8JU8jFvAweVCNpzAkFcCMkzPThrR9OB7DzW9OR3VbM9piEeR5/Cj25+Gu8y5DRaHzntD2S5r24vvLZyNFAMIgaZr9IWSXR5s0s8gQyMoGdvXiSTcjDlYUgHUfDNAhHL1VLSEjFByJ5EiF1elR+AgjgsGGU+BSdPiDYbgOIpCgTCGSYi6CYD7bTHqjUHskBjWegCuZgppI4D9nfweHlVsljpe8/CjXc7t9PkFsiUbxxvnfxzCjDJJKHH/6/ktY0LQHMELXTA7MD8BNddLsNA9CgMBPrsbXk9zbiE3f+W1WgHDR/FcZ5Lww4VyMTEuPpFQVY/7yW8T9XkH887ihayqnU7yxBO6aehHOGemUgv7p0nfwbv0u6M0hTCvrg/umWIJUPEGmkvj9url4u2m3VUIWT+C+kafijJ7O9MH1s6bjzaZdUIoL8fXeh+FP40/PuIafffAKZof2wFVc2KWQu0aE0lAYPx84FleNOBretJD15bP/jcVKHKTNPtZd0CFAOO/h27G2vQkI+EU0hCaPWALFuoKbJ5+Pc0dPcIyVgOZ582ZgcyyEE/PL8dgJTjC2omo7/u/dl7A1FYXH7xN5eCa/JplLQ9GPgpJixEqCcDMw3bf+hhxAZwAhw6CdfNEej+H6l5/E3NYaaBUlcJcVccSGJt0jvUHcM/p09E7TFIglEzjhgd+jGRpceT4G2ZSbVuJxfP2wMbhl2oWm85SnXlC3Ezds+ATNWhLHFlbikbFnOIigtN30RR/hvrnvoFHR4PYLYMiAOBrHYcFivPOj32dcyZt7tuCXS2ZDD7Uj2dzGQklPXfBd9C11hvcfWfA+7pn7lrivHjdchUF4ykuh5AVwhDsPL06yVFjlSZbs2oorXvgnol6F5xLypESO9Sc13D3lQpw1cjxX11z1wj8QL8iDVlkKT2GQAWuqrhmBUBSeREJwJfICcHm98AZTyCttZgK0K5TEbyZ8G+cPP9UJTKDj4g1/Q403DB1uAyB0xx2js0cQjvv7dWhTkhz5ZEnheAqn9R2Nv5xl6b7YT3D/hy/gydVzkfQqQjhK1UAKw69ddhP6l1rzKO3Tnozjjg3v4p0IgTt3pwCBIkq/nvUMZm1dxe8Q8X4oEotYAoWaGx9f94eM8tqaSAi3rf0Ec0P1xrtuOXGuNGHvL0mKIsVo7yhp8RKMjpAGYCBSo9RAENECZzdH+36ML4xtLDlnIThlL9l0kxxzYTv3bTgYPjmAkOUuMMlEJZ0CsSKk8OKHU65EpY0F/+03n8HSVBu/lLRiK4+l8MypF2NAkVghbG2qxY2LZmONHrEmZSK/uUWoTTDedSAcwYwTs6cYDntOkhR9XV30QZIUDziCwA8ykbISSNU2YdO3b8gECM11uGjuS3C7XXj95G9iYFqu/ZKnH8Aetw4XqUDm+Xk1RTZCOAa1NYSfjjkJ540Y61hp/nPdQjxUvQ7xSBSjkYc7J56NgWVO4uZdaz/B9NrNSNEErGmYUtobvx12HMps5YLhRBzfnfVvrNDC0PN8+Ea3wfjT0Zlh3Z/OfR3vh/ZaK9l9vI1kEzUSxS/6j8FVw8ZnAIQr3noGn7piXHY1vgOAsKZ6F7724sNwlZVwFMfNTlKHGiYiZBsuHTwavzxpGgrTVmU/nf8G3m/Zgwn5FXjs5PMzVug0mT264VPMrNvBJDYaayQeQ1s4DDWZArxuJqZSimt/VAwZIJBQ0pjPRyjpPzvW4cFty7DXpfI4KH33myETcGm/IzIC9ic/fBv2IAFXSRFcFPXg7QlkRpBqbsXvjp+GK49yjovscNbcF1GVaMfJRT3xtwnO9BgBlVvefw2v7NoIT2mRAdQVthGBP09bGA9NuwSnDHVGr+bV7MANy99Hs5pgMNdf8eFfp1+M3sXOaMA/l8/DvavnQaFnnhYAVBHj8zM7fsnpV2ZUKsRTSRx+z68FB6a4EEqAogUKVxSpbWEkW1qBSIxTMQQ23KVFcNF/ZA+qFmmPQG8N8YLGG/AjGAwimJ+P4so2KLQKjalQW6M4o2gkrjriLBSkVRVduOp+7A3E+P1Uo0kck8gOEBbsXoNrPvoHvGUFUPJojC5+ZsvCLtw4/us4fYiT/5NUU/j263/B+ng9lKIgAyYlqSLVGoGvLYGlP7jP8bbFOIX4Mf7dspGBo5roOILw2KL3cM+Sd+EqK4InP59JxVR1pkYSUJtDGOIJ4s2r/y/jbX5i2yrct20ZXB6v0WPG3j3SAAdmTwkjpUBXapOgFokpGQlgxoRQjrTtJ1nUBBhkt0l7OaWUbRYRBEMvQiatTJ0EHf7iNri9/3uNBGXq/FwEoSPfQNEEcuJqexgfnnEFuhmOiCaiy999Hsu1dlY5pFA3OYW7j5mG7vmCgzB9zSLcvX4hUqUFTFDiT3rDGgkQmKSYSTYa9qwACHSOrn4kQJj3tewkxRsNDsK+Qupc9tjQjLWX/jITIDTV4sKPZqCH149nTrkQfdIAAqF8cb2ZoyaTUv7SridBW9VHQvjG/FfRkIjxeX9xxHH43riJjrzlxuY6/HjVB6jRE/BqOq7pOxLfH+qMRDy9dC4eWLsQifIi6C4F55YPwG1HZzLjb5g/C2+17oErz9+10j9DTfOmIUfjokGjMlIMZ770d+wIurh0b7yHOAiZKYaLn/sbVqbCcBNAIGfAuWMiQqbYIRS0hvHkOVfgiO5OMaeXNq3A7zfMxwAlgNuPnowxPZw8jnQr0/P5aWMV3qvdgaZEHKvb6lGrJvZfAlhyELIAhI17qxCKZXaBpchKt8JizqH7s0QrFtbvwk/XfowIrUPjCfzmsGNxyUAnaY8cxrTpf0ONXzGiHvT+UA5YgxZPItXUih8POwrXjJuYAdTOfPff2JOM4Jo+I/DDUU6J6A+3rsMNH85EOxEkDcfFqz6KmMXjUBtaOI3zxDeudpi0JRbFn9bNw1uNu5nI1lfz4tHjz0HvNB2ER9d8ivs3L4ZSkA+XTStEj8axdOrVGQAhFI9h3FN3w9utDO6CfOP+UJmfyhENNdQOROJcMURqrfSf4hO9WdjBJFPo5fLj8MIylPnzMKa0O47p1gcl/oBVIUHvG3VszMJxOX/pPagNJpkwLVIM2QHCmCevg7t3CTzE1/F5xKo3lkKitgXf7TsRPxrjBGJLqzfhpuWvoC4IKESKpUVRSoMaisHTEMGib97isC/piTyzfREe2ruU57pUBwAhpal4ZPkc/H3LInjKBXmbhJykFH6yNYxBSR9e+cY18Kcp1T6xZQXu27oMLr/fXOkzr0AqSxraBHKVL9s/20WVxDNoiC4xeLBSD84IglVCKsWnZJSCzic5DexeRL2DVQQkxZpIo6awDa7/cWMnZep84iDkqhisJ1bH5X1GoEw2YqG7mEjikoFHIt946GgCnrVzA+q0BIcSaTV7RH4pxlf0MkOaq+v2YBGlFwxHUBePYHbdDjSwaI3hOXlVHcWMid/oBCCUwUWh0C7qF+oktUxKivsECJ2UWBnXfHXlUPwsi3N4aeNy/G7NPAzLK8TfTz7/cykHDSViOGvO82hWVKRCYRzvK8EtJ52D3sVOMZrvzX8dC6JNGBoowp9HnoQhNmDVGo3g9nlv443GnXCXl/BEO7mwB249+nQU+JyqfjM2rcA9O1Yg5nN3GSBQhcfdR56CM/sMzUA+E577C9rLgjwRC4CQSVI8Y/rfUJWnwF0YFM+NOUFRSieOZH0TXpjyLYzt7iSWvb9jPX68cg60cBTHBEpx66nnol9aeLsjAEkCQB/X78SLe7fgk+a9hvhdV7QQdMCoYrg+7Rmg5//6GU9gefWODD4DTcx9SspYeGvaiNE4dtAwuNP0Ap7cvgr3bFsmAMKwY3HpYCfBdXtTHa744CU0kQJpwG9UrojKElotkqT5KfkV+MPxU9EtrZR02qwnsTcVxS8Gj8XlI491mGXWljX41cK3oRDvhFI8JmA3iKhtYUzwl+CJM53ldRQCv33NJ3i9cScDwD6qG48ec1YmQFi3CH/ZupS5RlKMjFe3be1Yds41GQBhe3M9znzn33CXFQspduO2sKQwgYRkklfeFHYnx0x/yugjOcWjirrhu/1G4uiynhmplK4sKL6+6G7UFqSE0491HEEY+/Iv4O1jgBgGtQpX66QaQri6+7G49ghLfp7O+8zaD/FI9XwkS/OZp8R3jku6E/A2RrHwnN9kAIRnty/GA3sWwx3wcxXDwFQAL6dxEIioevey2XijbRe8lGaR+gqs46BxdKdf3I3nTrsUxXlOUvLjG5fh/i3LhOotrfyNVbslkiTMb67qDUdtd+YWQLD3YzDiClnaS9t7OohqMUt/QpIhZddTIS4lUxjy+Dp8+REhyezqmnhaV+77/myjTPtkhr47V+Zo2oycymsTzsPgNAJSOms5vcRR4EDnx77NmuY63LRuLrYno1a9thlB6Agg3HuAEYR4JwDhY65i2FcEgfLXH516KYv6pH9Om/5X7PEBAzx+PH7axeiVZqv9eQDltq2xCM4hgOB1sWCTUteIJ8+4BEf1dpLXtoeace68l3B0aQ88fuw5DpvP37kFv/joNbSXBAFywskUuoeT+MO4UzGxv1OfoT0Rx3nzXkKdonaJg0ApkgnBcvx+xAnolxYxoZXgpFf/iUhpPoioN7YDgHDezMex1adxTjrD/gmxMp5+6oUYU+mMIMzetg4/X/0hr3TR0IL+8OGv512GIQYhtiv23hRqwk0bPsGGcEuXdRDAEYTDkQEQNA2Xv/Q4Pq3b7ahi4CmQIm6kcBhPoqc/Hy9d+TN0TyOOkWrk2Hceh5pScdPw43DpUGdVSH04hIvnzEAtNTkj/oqdQErpr2gc55f149RHUVo6ZtrMx7A3FcOPBo/Bd8c4Iwhvbl+HG5a+B6W0iHlB9g853FQkimN9JfjX6U7+S1s8ittXz8WspioOl/dRPXj0mDOzAoT7ty2DN5jPzc3YHikViZY2rPjaDzMAQm17G0599xm4iBuShYHPaTnjwwJExgRDKYsh+cV48MhT0TtNjKsrz4Lc5usL70ZNUZJJunonAGHcm7+Gt2cJgzVRiUC8DR16czuu7HYMrh3uTOE9uOotPF2/Aq6yAuYICDliMC/G0xTDgqnOFABFEJ7dtggP7FnCwI0iI4OyAARKHz6w7mO80LiZuU0iAmB1c6TUxEDVh2cnXpDxXDy+YSnu37wUnoJ8iD4Lds6A0bwpy0renmIQpEM7IJCaCQb5UEoxGxUM6U2f+HmwdYaUFQxS2joDjBg3yuVJcoWD2yvKnb/oD4GXeFsBYqEC5CIIdmszCo1j5okXYHChc+X6WW/K6sa9+M3KOaBGwWZp2EEIEDifpqp4YOQpOLWyf9a4xbAn7oC3tAj+aAKvnHkF+qflYk+75yY0RtqzOyKuPyboJDUkFA6h6sVFUHuUQS8phEtVkWpsxUUVA/D7SedlhPOPnfl3vDr5UvTMt0rBKO/+xubVuOHTdzhkS9wHWoGpjS3446iTcfHh4zJu4fKGalyxYjY7i311ZXSrKq7sNRw/G57Z+viOOW/g2dotQFkx55s7Agh/nP8mXmjbAw+Rq9KrJpIpDIcP90yYiv4Gj0UO+N4F7+KJ+i3QiSDW2o5kQzPcoTATs8b37o/fTD0fh/XsA18nDcDI2j9b/h4+aK7mlWiXPh0BBBJKmv0CFkUaTbIhT370P4O/Q0481dqGx6d+ExMHZnbOPPK1R7gK4ndHHI9Lho7JGM7Ut5/GLq/GPA3Hh56fWBw3DD0a306LPNB2U2Y+hqpEBJf2GoLfnuAMfW9ursPNqz7G6lR7BkCg+6bFEjinsDtuP+FsxymJLX/Lig8xP9a8XwCB3VAyxQBh+devzeQgqCmMmfUokw6lkFJX7otL1XBF5SD8YmRml81lVetw54dPoKqNSh2J5wQMKu6Bu87+GfqUOEWeCCDUFSb5uQIBBCpzzEJSHPfOb+DrUQwXEbKpVJAcpQokW8L4TrcJuHaYkwT84Oq38e/GldBKKJIitqcVciqRRKAlgU/OcKYtCSA8t20RHtyzhEEIRxDUPLycpczx8a2L8NedSwXIln0duAukwqm6QcjDq6dkkkH/tX4J/rKZojv50F1uUUGQRhoUj68kKYo7wWkEmUowHm/p0DmtQCRXQ5VRjkcAAdn90eAZGJ0qWc2RpJ55P5FisEiKhiaD3FYzmjwZwMJfHIIn74uL9hNAibYVor2pFFpSvHfK1Pkv5Zo1ycmNHFMogtdPvRhD0ibprry4nW2zqq4aNy57D7s8Ordv5k9XAYLBbu7KGAQH4cAiCPQokwb+d/sfiW/1ORyeLFK4v3vzRbzcshuuogKkWtsx66wrMThNOCiaSOCoB3+PmE7BvOyfngVF2NveJqJ2pF5YVABPRSk8tPqi2ulQhMssl151AwrSmv5QD4BjejsrFxrCIUx99gFEKXxMlQkUwqf72RrCafnd8McTz3RoVMhRPbJxMWY07EB9J/0KSKBoWnk/3DIyk6xHZVY/fPtFrFDbOV9Oq/xx7mCHOggT33saLel9CHQgQHoSg47CBf0Pz6gXv2TmE1jlTsBNLPVUCslQBMm2EKcA1HicJ0auvFFVBF1ufPuoE/GDU6ZlNAB7YPUneLpmM5IEyLryMHUCEL7z0atYGm8V5bppHya5sjJmCC+ddnFWGfHRMx5E0uPGVX1H4LrRJ3AfEPvntqXv4fmmKri8zggCgctSVcFNw47F5D7OEsa69jZc8u7zHEE4vrASj039ZsbY/rFlGf65ay2SbiN/LLfQdVRqLrx9yiXwpj3372xbj+s/fRsK5b09LvRW3fj70dPQP+25f5RTDNSLQUQQ2DWkVKRa2vDgmNNw+mCnuiBFUq5d8Abmx1syIgh0nf3yCvG7IUfjzq1LUR0PI0qRGV2HN5HCsjOcGgFk87e2zMcNHz4MD6mcErvfoOgfVzEMfzz5e6gscAp8cQShIAlXwAudSIodAISjZv8Wnu5Fgv9gvNE0FMr5X12RBSCseQfPNK6AXpwOEFLwtUaxYLKT+CwjCAQQKMWgJlQMVCnFkKmDMLt6I+7etgCNbrHEEJUDhjNOpvDNkgG4aexpjvtOZNC/rV6AJ6o28PyiGqJJsqESOXmWWTbbVdsds63JkpEmsLd5djS4sjW+ktLRQvwJSBl2E5UPlkgScxDSmjoxuOBonBiHAC4AwXrdm0KAogmelEg7dCVb2NG7TmBFdUFVPYi3FiLWRuW4su+EeD84xZATSjIsSA6lLYwf9BuJCpBOgcaM8JOGjkCfUuvlWr57O9bXVJk5ZK+iYMLAoehfLlj3xOJduXsHNtXvFXkll8Iv+Ov1O9CS77MmVcrLURUDcRBKspEU72XdhP1p90wTc1E4O0D4z84N+P3qjwUhyljBsriNy4Uji7qh0p+P0YXlOKdXZo6druuDzWtx7TsvwtWrkp1Vqi2EHw0cg+smnJLxCD6y6EN8UL8La9sajYeYYxPw6AqOLu+Jn445ES9sWoFXd2/kMCStToidTQ6Hc4HxBFL1zbhu8Gj86Pjs4jL2k769cRV+Nv9N+CrLxeqCm2PpLPqUrG3Ar0ediKuOdioCCoxGhL49mLF3E5a11nO5mHSehS4PjivvhcMDRfjO4MxVLikKPrP0EyZFJsuLRX4zmcIYAgjHZBdKer96C57euxkrQg3mPSCFvYt6DMElfQ9HD4PkKq+tNtSKb709HTX5biZUjimqwPC8EtBqeHHNbqiJJIduKZ2ip6ifRpKjYHdMvRAXjnFGO/69bjEe2LkaicA+dB+Mk1OtPacYxqZXC2i4+qPXsDjRymVvWRACfDpwVKAUd4w/nUlz6Z+Rz94HPT+AwnAMT029FMMqMiWMb1r9Md5v3I2IITdN96W724cfDhqD83tnSno/9OkHeHTHaiR8Xgx35eHPJ56JwbbSZBpDUzyCf+9ah3/tXs8kVjn7jgqW4vzKgfj6AGcFAxHjnl2zhLUQPKXFTD4sjqVw84gTMCktMvLOzo24Y+OnaCbMZIAMAoyptnbk1TZj6TWZJcM7w624df0CrAw3ImHI9xKoPrKgDH88/AQMDBYjlEzg5eqNmN2wCxvaGkEKl8vTpNRTWgrPbngHf9v+JlyFQpiJGzPFVVzdaxKuHHIGfGmyzBxBKEhCp2qLWAoTkqSDkFnmKAEC6B01HB1FEBKdAoSV0IuFKJcVQUjB3xrD/Mm/cjwOmQCh4wgC7Tijei0erVqBejUpRWBByb3Jpf1wy4hMnYX19Xtx3ZxXUUfy3nl5TLIUTlf8abWtFmWHMjUgCYqmqqIxMUg+gdW1Uhwns720cLJ0HNUgU5pRD2MMzgiC4ECkAwQGC4Zao1Ch0LnCwe1PwEN/epNd7uWgay6oSQ/UpBea6kY8kodUjCrxRHUG28PgYjBAmPoJRRC+uLBFR+DloPyeVBTDUSQbmqCRSFIyyaVVf7/gKpwxzGo6c8e7M/Hooo/MOvYitxd3nnURpoyg7mNAVUsjbnzjeRav4ReEHGBRAdwVZQZ7WkYQxPlemng+Ds8CEA579l54KgRJsSPltnQ70piLwwl88rXvZ5i4qr0Vy5trRFWFMTdKgDCyqFtWvoE8yMaaavxk1nSOgLi7lYpwdygMvaYBq7//W3jTwtbkeDe1NjBASOoakqqGgMcNH5H4ynqgT7CYRVfu37AIT+5ez+QvzsMaPU/I7mprO9Q9tVh/3R/2qdw26V/3YG/QC09ZsRGhEYCEnGequQ2FTSG88s0fZNSuy+trScSwvLVO1JMbnwIDIFCnyGyfdbV78Kv3XsE2VxLu8lIhn51IYKw7iDs7AAi0TtnW3oJVbQ1CQU1RkOdyY2J5bwSznOehT+fg0a0rkSorQsDrxXUDR+GqQaOxK9yKpU01oMl1UX011jfVIpVKocjlwaRu/TB10AgMTCMy3vTxLMxsqYJe0BU1RR1aexRX9R6OX6YBBLqGuXt3ol5L8H1Lj0aQ5emJJZ4INTVK/4TiURz90iNwFQWhtbXjmz0G4w+nZYpt0bV9ULeTuzYK7RoF1MzpxG6ZVRxbG2rwm49mYZUe5TJDV3MIPx42Ht8/6qSMiAwd942abUYeWmSyjywox9AsUcP6SDsuf/1p7PADnqICBnWu1nZ8p/dw/HSCU1sgkkxgUdNebI62otgbQEpXMWvvdqyorUKqthE3jDwOVx+TCaarIm1Y0dbAYk/saBQFRxaWY3CBM825MdSIny//ALvr6rDyG9dmlLuubNmKW3fNQI2fSG0u+HQFx/sG4+rK0zAgP7PXCwGE2oKkKMfcT4DQeQThbTzTSAAhM4IQaIlnTTEQB6ErEQT5LM1r3Ik6ivoZK3KKnJ3ebVBGdRTNQ9NXfYrbVn8CTzeaS/2G7oFROWCG/qUmQWZTpc4AArNETEKjwiWUMgVhl20WTZ2stKoUSRICTBZBUewvIwjieFI3Qf5m5124XRpc3gQDBJdbheJRQd/pYhDQNBcDAT1B0v4u/rea8EJL+gQgMHtIWARNbkZtABJlSg4gWPMXK+alAJIajsY5RE251IdOPx+TjdUCPXB3fTIbT25cxmU2mqZjVLAEt514JoZ3F9KyS6t34so3nkacxXA8vJrlUsVgQIihyBAm92KIdAgQhjx73wFFEIrDcczPAhAOFJRVNzfizjn/wXsNVUBlmcHSdkGLxVh+eKQ7H69c9qMOD09RGHqR0ksbaQdSqntw63I8W7XRUaPP+0Rj0Gsb8bPDxuMHJ2SKHckTbqitxrkzn4S7ZwVcwTTnx/cwhkR9M/qnXHjx0h+gzCaHfaA2ISGss564H7U+BW6KWlAZGt3XeIJTDHcec0anUstdOe/SXdvw27mzsMOnwFNSiFFFFfjrmEkotxHz6D0mCV5qfEU2I8BX7s+HLw2wkXjVjz94FR9FG6HYWPadjUMIJWUChK6MvbNtvv7cw1jnTrHD1SNRuOqb8eJ5V2BEmgx3V89DZbVPLvsED6xZCI2lyYmrEUJhSxR/m3IBJvR1pqO6elzabvKjd2OXF0KFkohxFIpuDeGC7oNxy/FO9r48LgEQug/0zN+7cTFLiast7egdTeGhqRdjeM/9a7Qlj/v61jW4Y+MitLa147oBR+C6Y52hdFJSrE+2Ik7EW0PVr8SdjxJ3Jkij3xzHZrgAACAASURBVEUEIcURBMFB+OIjCJ8XQOjqPaT0wilP3Ye2kiBcxYKcSg6XV+4ZwkVWOoHtZ6YUjHA7SyULDpV00vYSRXtFhPzdLsRE+5nO15BYFmRJC1RwXwgZ5jd6hZut1A0gIdMa9jGKfhKEX530eQYBdByu9BAVKIxJDF6F4FjQN7ZulMZ10m/K1HlUxXBw6T939eZ/IdtRWoHZIySSRH0ZovjbhCk4ra/Id5LYyp+WzMGrDTvhzvNzhOFrlQNxy7hTzPavi/bsxGXvzYC7vNgUSaJwJkcT7PnNgxwgEBjaWl+DM/9+N/SyYkbgJNZCnAFmM3P9fjtSe+tZe//pS67Jqofe2X0ibfd/bF2Bh3autvQijJeQFO5Y/CTlwhuXXNuhlvvpj/8ZVXkeuCtKQGFQe1qOX9CUCiUURrKuEX11N+6ddhFG9R24z6hEtnHTeKOJOEb++UYGb97KcriKCi1eSScAgeyZTYY423nq2lpx+4f/wayG3fB0L2dRn1OLuuOvE6bu92NP53144Qd4YN0i+HpUiK6VXWj7/HkDBArX3/veG3hy22qgezd4SBmQOBUNLdBrG/DB1dejd0lZ1pr9ji6a7sfH2zbge7Omw9uzGwsrUeUDAXwqG6Xjzv3hb9Cjgx4OHR2XGlxd9Nj9WJ0Kw9ujG9xFQh6d72EogtLWCG49bgpOGZLZJdR+zMc2LsUjO1YhlkggUduIicXdcevkr6FXcVnXO7QCqAu14ub5b+Ojllouyx3tDeLZc6/IiNxlux5KhdH7mh6FlBwEWugo0SQmpCpx++jLkZfWzVGkGIr53TKYFaD+YanWDkiKa97BUw0roNhIitzvIZHCvgACkRT1TjgIginQtcR7IpXCiHuoAqMb3JVlQCCP9SHM1bvdGdvKENM1EMySROYBGCCCiIaSS2BrVy1LFe1O2GoGJaMTlHIw9jfbbltdJO0AQaYXJJjh4xoOPl2jwQgaiDSFsQ1HKWVqhL8jUSjiRMieEFZppeRLcPtvfpAYILyUK3PM8lax+IamoTiaxL3jT8dxPfvzVjtbGnHz4vexKBUShJpkChd2G4A/jrVCh4tqduHyj14VgjhGc6GsE/I+AMJQI4LA5KCuvROcA/8sEQSaAPe2NGFPazNLvN425z9wlxSzrgBL9dJkIku4qKSNFBeb2qDWN2Jqn8G4ZMyxGN9vEPLSSGfpJqbzLNm5FQtrd+ORrSuhkJpcGhmTBWwiUZS1xnDbsZNxyuAsLZubGvDNN55GW1E+FPrPRaS2tLORCiLl6AnMNDRz+ugnx07CxIGHYVz/QV2aqGmVuquxHq+vWox/LZ+PWEEAXpLRLS5keVvOZ9OLmOg4gvDKkvkY2qM3juwjnqVsH5rUVlTtwF3vv46V8RA8leXsnOilnhQoxWWDR2FQabcMAmJHx9uwtwrzdm7BnQvehadHNxaYYcnvrnyYg/DZIwiknb96z268sGIhXt++Hp7uFULohu63rkFtj0Crb0ZhJI6rRx+Hc0cfjZ7FpZ2CKbof1Axs9voVeHjlAmGnshJe5RPnh6oHVAKF9U1INTbhqYu+h74lZRhQUdmpg4nE49hSvxe3vDsTK1rrOTpEqov03FPkjytw4gmo9U04u9sAXHrEeIztO7BDa4YScfxgyTtYHmpktUYaT0VcxY2TzsZJgw9HaTCzW6r9YPQ8fLxlPZ5YOg+LI82c3qP3j1IWUyr74bennoXuhSUdPsPN0Ta8vPI9TB1+AvqUOCWORYohZaQYkpjAJMXMbo4EELyVxdDp3Zcr3n1xEBpWQi+xOAhdBQiuQMBWxeDs5kgdWDfXVqN7cWnn1xxpx+b6Gtzw5guodalQ6NkoNATraHLgPguyc6OzxFGmE6RTdXAGjFW3lUIQxe28j23SkdwEC1gIWGU5cEtsSZZbisouqwsk8wA0I9VggBcHsLFrKkixJ9t22QCC4BgIjgOnK4x0hj2F4tyPAAKlGOI5DkLWN1xVURCO46zS3ujlofAiQK1l/9OwCwmSPKUUQzyBUa58TC7tKchiioLqVAzP121nqeFs9c3yXMyGbY/g0u6D0UN3G50jqfGjws7yjo2LRXMnfjG79iGA4GsL48cDRkEjhrutlrrjI4ijEyeAHPfCnVuwoGobtIAfrsJCeEsK4AoGOXSbXo7F3S9jcagtIWhNLSyl/N0JJ6M8Lx89C4tx9IAhKAiI8HsylcSmmj1YWb0TSV3HXz5+B3ppIbzdyoWt0pT3+Hkn2dmGZoxw52Nav6FCAtuQPKWJ8oNdm7AyGQaMrpcdISmqKWemfyjMrHK1pQ3+WAI/Omkq/G43xvTuhxG9+sHn9YrJVte5s96Ohlp8tGU994L4YPM6rG9rhLu4SPQToFw+jdkeFTIiCHccm5liOPUvf2QJ5O8cPwmDK7pjdO/+yPP5QKvgHQ11WLJrG1ri1NRojlgJMygrZL6HQlyKhmYoDc2YNmAYDqvowazmwRWVGN13IHxuD9uYUgk05uVVOxBXVcxYvpC1N7hChACrIVvclaeJ0l9HeQpxckkPTr1lan90dBTxPNGzRHPS3lArnlr6CdwFQTEGikZR9M3o5sipvFAEqaYWpFpacULPATimz0Dkub2YOGQ4KotLGCyQnXY21mHhji0IJxN4YeUiNEAVxyTpZKPvB5+c3i0DJFCrbrrfR5ZWMpco6PFiyhFjkEcyyIoCAhvLdmzBFqPR0X/Wr0SjB3xcd0kRSyDb32PSNhDgoxGVcQ2XjTse5XlBnDh4OIIBImTqaIlEuMNmM1S83lKNBmLd0zPY2m5cZxsuGD6an4OK/CCO6j+EQR/dQ+pDsWL3dmxpqAMBjIcXfcgESea5UEkklci1UEv2Okwe0B1je/ZFqSeI04Yew0RE0qGIJGJ4c/MCbG7ejbc3L8QlR56B7vmlrFPBrH2/F081L0C4jOSgBQehV8iLaQVHwJ0Qct0cdQj48ODeOfB2KwaMXh+yzFFtDWO8Vonjgv1YOIk+pBPxSesOLHO3QCnON6NB7JQSKehNYfy45zGsu0BLeU6De9xYGq/DQrURnQGE9ngUf37/VX6exvYehF4FRdyx1Ovy8LNB4GFp9Q5saazFO1vXIR4MwFNexvwvBvGGhoN05nKlzdcjOzVKJ20jL8qQvhWWt5UmmmqKsirGUlGUK3EubTRW7GL1b5AhjSoMqc4o/hRkR35/DIAgSD5GuaVJ+JHnSa+ysLgEzpSHiB7IV0OSMRmCyPGY5xHn49RGDiB0PFVS2ZjeEuLVMU0wZEjKmxIipQmcQo60mtAaW6DRSiUc4YnEW1bCuXqaELlRSUcfQ/SFQ6H1TVCpuQ6FMI3Oj67uFRzSZ5W1Ln5I3567UNY1ItnWzmVW4rHrZBjcfk7U9JLDo0mBhEjclM8P5nGkxGw4lXYYfuDJaScS3GGOiYXtYeixGEq9fgyt6IGARzhdishUtzZhW2uTOEcwCHdJITyFBSw9nLVPgKryClOta+SVv5ZImMQkEnihFTyH4AsLDHXCzi6U2lmnmFeitYehtYW5isSVSGJAcTn6lpZz7lhGa8hxkJjNmvo9cPv9zG9gTXwabz717HZn1q93AhBOf+webAu1sK16BoIYUFIupIJ1HbXtrdjS3ACdQBmVfFJkggCI0WmSlfVCYXYM5JyoUgGJFHoWFGJgeSWnS6SNaczbmxugUsMguodkI5okyYHS89jFcBQ17KJKEpK+ViMxXu136WOEszVayZMOPwHcYD6/D9yDwk+2s42DtRNEgzRi/FPaip4lTzKFw7v3YlU8vjZdQ30ohE1NddbzU1zA94TPYXTrk2OUErzceK0txMelfhrelIZxffrDb7D6VV0DkRxrImHx3NM46bhkf+IRpZf7cq+SJN8P6gtBeg9FuovH6ndTFY6CcDKOlXV7ALJ793J+xumaeb9wVIwlJMZDxNKh5ZXcZEgClu1N9aiJtDOgI5Aux8PPPEXE4gm41Vp4UMWh/vykG0dWDoVHoRp/HQk1iSX1m+HK9zF5FnFq457kd5Wux1UUgLtnMbzdith50u+JhhCS1a1Q26KAyprocBflwd2rFL5yAeApvSEBghaKIl7TArUuxEqM9D0BD1d5ETw9y1iQzUypkZMk9cWmENQ9zdBaI1Cp+RaBFape6lEKXzfqrGrXQXBGECi9e++CN/HcmoXc0KnE5cWIHv3MsP+etiZsaW3ie+gpLGRwTaqWfP1GaaN0jKLU0FqhS6ctSybpHeFVvamBYDliKWjEkQJz5S+XcHaZZSnFLLQVxH4CjJhvklRgNDkAlugS3QLJDXB2n3RGFtJJlHRd8jzOyIXhi2yAwIyAGIDAuR+nGF7OVTF0NOtpGtRojJnWNMnw7aIXlkAC1aTTxEGrlHAEWqidhUBIVpa02BVyJDRpdTIZ84oskWJnRZM+hcEZtRmkRmoL7c7PM4SVuhZDUEjalSZ2mmSJaCkTap0CBKZOs+gNTQJcNeEXEwtPunSd+3IqlA6gSZ7Cr5E4AwSaxMg+XC5qsLNJn4BCy6SY5goGhOStQeTMVtQrJvmkcIoUiqaVrOAIsfMhfXoGGLKT4b48mJE6Iu6IEktAi0YFYIgnuGqFViIm25iqT0ijgULheX4ukeJmNWSjLBoR/Pp3AhAmv/AIqlJxltElB89aAbrGuUx2pJRKys+Dm+xC10P3w7A7O4VUiiMJdF+pdwCXNHJ5owqdWz0LVWKumqFJn8ZMzw/ZmsBsV+6j3X5sd3q2w3wPTBL2vmws2FIC6NI46FkiyXGyI92zrLYjeWENoPMQOTUSYxup9G+yF70XdEzDThSBoM6oCAREGs8AuelD43tJ8szUrjsaY6DDtkukQO8KN8jmZ59KbekeB7j8kp9/Om4HY2XHQO9+LAaQjWIxPqamcUGbcMJ0jMJ8JoVS50Fylhzapuuh8tRIHFosyhLB/FxrqvH+u/hdZGIzzTc0Hno25HXy6laFr6ABPn8dUm0xaJEEtIRGYUC2Bek1kM0FkHWxQ9WiKbhIAZGekYAX3uI8uAvzOZKjJUnCOoZkSxRqTLyzJBtOz7uXIgHUB4IjPoLgR6vcVDTBDZjU9rgAIBxB8EApyIOnKAg36StwNI7uiktE8MJxbiDFc4RqaCH6vVzdxQDc4zFSDJk6COFEDPevmIPpu1YD1NshKu0moh0uAmc0n1CaKT8Aj080ilMNjoCDIGhLCdgVDC3iojHJpK2uZZdHeSziJEjRJSf/QDh34eQNVU1TRdFo/2xGKcQx6FhUr0PAgyQO7BoIoo20jMxJIqOl5Mhns6UYRKhARi7EAlEAIpFisNyCMwJhdaQUgCYHEPY12aVUMaEbDYh48qUXxeAWyPbQ1Neew/lcrucSSm1SLKWTc1DomyZ4OgcTIw3QyBOMxwvN6P64r2E6Vk000aZSYlXWlR15QncJtG8QKff3vOb5KYxK10H2oAnY7IopnAbZhidedhQ0ARudLTsZJyuV0fEoGmJPmRilkTxxdjSRd3BcmqhZPc+wvTg+EVQNZ0QIxHAcPOmR5C/d+32NNx4XQklZUgxTXnkMVdTRl0Rs6H6nhK2Iv0BOk+1CoMyIBmTjrXBaisEYzSB0j42/82rHsjF30OQxC2JsZ0C1Q9NTCJjHaTzbXXmWzAdBOEm+LzJa0JX3QQI4VWWZYgY/NA4Z8uZ3y81hae5yKDuj7mNsvBrk51Hl94Luu0hXCVTlJidpHJPH24Wxijy2zi3hOTJF94Kef3rOGcx4xD2l+cIWSRQrU0o52OzLz54QvmFCM70nbg+Pi+9h2nW6fQkU9KiFyxODniQukPEc8Mxv2J6PQf0bXKLjIQcTDadM3xnPGl8rmSKpIZXUbCBZNHmi55/szWOwEeD4epNkS9HUjh0YPcs0ZtqeFkuSICedEkUNKJKg6kJRkOc7AjReca3kCBMpDFLz8NLJzggCAYQH1s7Fi/WboBGQSNE7YJDKaYVO8wk/9wSGCTTK6K2xercJGdkFlkTdv1N0ySRCEr6UVQXCsiKCYlRAOCoapIM2tiPEZCotcpmjVUJptLNjZy3BryAzGhEEG0CgSVw2g7JvI52FJdZkd/xSU8HiGhDg4D4fZrtq5zUzprDxGXgsU+a+rFflejF0OL0I/W0jNiSdNxnYQZW30UQ72qaDM4gbRqjRuQG/awwCuxY5sO/NoMVGiunKvC6vh5Hq/p/ScQp5flYn4+uSF0cTp7gmJsPsz7XJ5avdTmZU78AHbNlK5/ys6K5mjJjvgZF6McbdmS35WUnEMb4DgDD1lcexK6CINsO8IrAuRtpln5EaYwDCyQjb8gRjs7EgrFi27sr9z7aNICylPdtdPZixcPwszzBfF4dw5TPkvCar2VLXBmV/l3kNZ7s0lr49wHeOnQRP/tb9FFw48Vx2Ns7MfQ0Hz9VpQrcw23viC0ZQ2LvGqKGnZ9fIPRtD4Jy3QWQzX0HTuUuSnCCt8RgNR8VO3rC5bCDE1yaZ+nwr6OKM8LtBCbKHqul3sb0xdsMxyhW2KOUTx+GrNZytuM0EEJKG1HIWgLB+Hl5sJNlxv9jcdixhZwsUiGNb4kdy1W+SAU2in0UQFKt0kV6wExTpn2IVb0zwBqiQ12TtZzlZ2lISA6WCovyODmOpKBryy/ZSQ7qftuZNMoJgV3u0R0SsZ1kSHZ1AQKZULD6DACPChlapZfrxlSkfv5yrYuja/JLbKmeBfVsgLgDCncdlkhSnvPI4dgYUeKjl7P6Ao32fNbfFV8wCRT3qQdr8DmdnOC+xCrQrBFqOWDpVCSnNnLvpLFyClW+EuiV4kM5MQiAZ7rarEVrCQBJ0yJti9BiQRDvj2BzLsI2Tna8BEDqMIDBA2MopG3vlAO9nc94CdBh0JVspIV+bdIhGuF0AO7G9xUuQ5D0BpnicJoExndjnVGWU20vyn+i1IM4hHbJYxYt0gly1mykKW1WEtXCUJEVLnTF9P9nTQS4OOWJggCROCdkiCPJ6xNrXBhBsYMGMIOzOKSl+xaaX3OV+YRbIAYQvzLS5AxsWUHR0G7rDUMsTIji86jfr8Q21ABkKtK3UJUCQIXbThZsOlnQCjCiGiQbsK33nytdcwUv1PbM3ghyPFSmwr8hlmJ5dpuHYOeVAqYhEsuMUw/p5eKFxq2jqZOxn9TIgcCMGbTVLEit+O8/A3M9QN5QgSzpcIUxk5ftF3kfYWNjPqAZIAx6SA2CvCrBIkWIcklBol1iW30ldA44yGCJJ4twSSFhAy56uMM9rOz59J1UdZemiJErKVIMF/iyRJLMEUhI4p857Rd8Vj+bevZwFchb4HCygUFVLUxuCTa0AMdU1IsG5mOQVLikAKqm3Ri6C8DmY+it7CG9+DKX9qjmcLlbE9vC3cESmrr5jNWql4sjJOYGACK1bRDjhlKRTE8Y2ctiSeW+u2K2SO4uwZ5HmpMOU2gJybGKcTvEhGUHQGkLIrw9BbY0IMilxG4L5SHQrgl5ezNU+cn+77gCV/oouiQIUyL4L1jaWfSQQkHaQq3u6LLPU0IhwMDEzvXskp1DEddpTDOzgDQljoiCL48k0hiGfbCgpOomFNq4EERVtKTAJSqxrFiDG3izKqrgQAMmZZhbPitU/wrqf2fczokBT576q70rkAMJXdrbJXfjnawGqTGhrR7KxBaDqFGKmEwE0Pw+ushL4qGyVy8U+39PmjvbVsUDZgN3wBOLQdGPSt+euDW4LgQfpfCQ1wu4kLZKd5BfIBXJmBCF7GsHgVkgOQFoEQaxOjXtisOkFH0A6JrmaFkp/dtIgVYdQp0i1vhWpEJVcqhwdobJrT7cSeEgymd4hWwSBUyVGlYhcGZsreSOiILdn0rOZXhDX4VRXtEcQjJy+sZIXfI59RBBksyO+LlIuNNILtus3VCMcxEUzgiBbQhvUN9GPQYA1i6Ro2U8CHboqWZ1gB4gygiCiGQY3xEh78D62SIi8RxIcKlM/fjVX5vjVmVtyV/oFW4DVH6nUMxozSzyZpU3lklR+5afSq060Mb7g8eUOf4hbwKWhYthWvghaVQqHZeXHJVfVWnE6yYBylSxXudKRyxWwxU2wNx0y4gdmmZ2VS7dHFsxQvbGdvYJBEhJlnlzk48mhSWdtcQNcqo4UlR2HqXSTSkdF6SaXHFN5OUXguEmYXXlQEv0s3oEEBPb0gjCcXF07r8POaRAaB3aioI1XYUZQhL6BVSpmRFJkpYABECQPwOCyCodsiyCklxYyeON0i7CuBHMCZ1jXLH4T12OlEcR+zDcwQJqoPBHXLKtQJPfAin7YuRm2hlFTPn411+75EJ8zcsM/yCxA+hlUR25UGsgKBe582IXyuYPsanLDOYgs4C8KieoFXqW6THAgnYWo1LDy5NIhyjy/6XCMVbvDiRsrbfvq1p5iEJUOUvzHIO/Z8v2CmS/y9ezLbNwCs7+ALS0hHLAAN9JRiXA8WKiJ0nNcKmhcE5eOspS6dMyWoydn6Fg1GyBA5t2t/L+TiGgR/exAimFTBkCQREM7eBDX6SSBmuREsxmUiCDI6xAgTJIq7YBFAj0nQJB6BoJXYJRBmuOz0gby3ghCogUwBK/AAkP2yI4dMMr9BLCQOggfv6JXJXLNmg6iOSA3lJwFchbIWSCrBUr6VcMTjJgiONIJW6FhsRuDB2O1LJ2YPKBcoVqreWeUwQ4QZC6bXaYNIMjyQfG9lfM2eQwyvSDD4lJLIK1ngVUZaoEPe2rEPI8tKmGx7mV7ZWckwD6eTIAgw/T2fLxFSJRAJh0gkIOVqQIRphfnlnaxShZFRIerFLICBJlbtNIBToduSSo7ORtOJUfJB7FaQFsRACslJMYnKxhMToYJ0sRY5fbp42ChpCkfv6JX5wBCbjrKWSBngZwFDm4LKBrKBlTBFRALOslBMMvjjLyyYMgbHIS01a3Q/SDugnOVL8sdpbCPPGZHAEGWFFoMeina+v/sfQeYXVd19Xpteh9NkUa9Wb0325JsVRfcgNA+CKEkmIBDDARsgwPYxIViHAKB0GtoDuBuWbIsuar33uuMRm1Gmt7n/87ZZ5+zz31vZFmYH0u+N1+w5r1bztn3vrvX2XvttY2Y0msCBOnwHIFPno9JdZq3IIAFp0M4384Om+WLJUCwvAuhYeC6K5KGCKcJvP4E+pouxcAAwdmVeRPMxXASyxy+J8ljAhYcMWCyo+Y8mKoTmQrhFT2nGDjC4REJDZdAEhTtcV6ppg8QglUaFG1ykQwFECTg0O2er3vxz91hmeOb+70Qji60QGiB0AJKHCmnj1JPVBLdLHLk6v9ZPIt1+9lp8CqX/tZ/2Tw8AwH+XDtlKQjE4X2vXj+Z18DOih15qhSDdlAinSBLHKWDk1UJNr0g8v4UpSBegmPmO0dnRZ9ENQKTIGl+5xBPEmqGLpJiKg9E9Ya0kSz1JOBG+X8HEDjtQ7bnVs+yvJG6K4pUi+EgyHSRVFHUoMaKrfkpGtljwo3HpUw4quJ0KOi+0Pn9yErk2hcf7T4SVjGEb5/QAqEFQgu8qS2QU3oamUW1RsXQERQl8U9LUnO5YiBKIAECOycXzvfV9KTiHgMMIkQGBYj8v/3wthMbYiKdFeZhYp11ij6nQa6kZYrECjSZHLw/d8cH4NSFLVcU+7uQulM9lPl7EzywYCo4JwYZlKpxKQO5InecCCeSxE2UvHSEGBeRTZ0GAqUEqGrCX/0T0PAjCH4FgyUoWl0KWUFCx/vPgM/NsHwHRVI8ErZ7flO/GMLBhRYILfDWtoByw7l9TiCjoM7mtrVFPLIhl+SZfLQtA2SHYMrtkpyDy/+70LavgeDq6nsCCCwd7hoTSYKjbBxkSxoN4OB6fbuitREMEj4KAgRJDEwGCDJszloCXMbIdiCnLrsrutW80XowukguxeJrPegYgSchbQiTYlXvmiOR3R1AEMqKwW6OhhNApYs9AwRZ+SCBiXX6XMHAXAiODAnyaBAkygiCAwgvhCmGt/arJ5x9aIHQAm92C0TT2pHf+wQSiqCoOiOa2nobTufeB8axcJ5eiuPYVbkpd6M5u/A0lx1KTgMBELkydytmGd7n8UjNBF6J65WxJfW561knK1MfnjohgY7kCILTJmCZZAdG+PwEFIKlgrTqZm0CtxL3SyYdn8JWf2h7E69DqiDydVk3gO0gV/fBnge+BgL1zLBkTQEQ1OiI+0BcBj63Bja2WRTNQYtj2/04VcDzM+koEV3S87ApGmcHTnNwhCKy8IVQB+HN/nIIxxdaILTAW9sC6TmNyNX8g07HPzBEQJvXF7oABAYYADDLn5wcOyN/9S1Dzn6kgcv4ZGhcnptXor6OgHQ6QYdm6vHN+Cx/IWl1y9LJbvWuryWiJrYpVBI/QCoRmrkxIVG7VO6uaFovW+6Bs4OGGFaCmp8/Bc7keMhWjvdgbG1BmCQpGi0CBmWsS2AIi9bxSw0E1rswY5eaDjpywMDQ3HsnI+0UHhn8eEDES1HIigqOshi+yMLlf+o+0h6WOfb0+hmYlYvBWblv7bdTOPvQAhe5BZq7OrGi5vhFOQvlcjIL6nSKQa8U2clbwiGvIn3n6a9uaeqcN5ckQv48GEFggR0nvuTSC6RamFwqyNUQdkWvRUBIk5j+IyMIzGngc7mKAm4tTREEJ1LEIIRJmqyfoBIbvLKniIWLILhGU0zEU+CAu4Q6QMDzIQljA5KsjWUEIVgBwnZwqQy2A63tHZFURwIoJuK1jZbgQMc4rJ4FiRypI2QjqWQOibm/xvFz5MSlNox+gqhccETL5AiCTTEseOHRkINwjtfG5IISzCgqvShfLOGgQwuEFiAL1HW041eHd1+U5ohEupFddAY55SeNk3cERfrAhP1NiJmdf1K43zg7KXbksfFN/lxWEWjXETyOV8ciry0Je1Z8yThGCpE75+8Aia+tIBUJaU7OUUttBEfYE+I/5s6yE2XFQAYKLMpEjtsoD0rxIjNGeeJImAAAIABJREFUO1YDaDihQnwD10pagiaykevKyNEVJh1aUGMcvdSf8J0+30duU83Khz6h0PVgcMBEXZMIjYHUiuUgmESHAR5sX0tGNREnqwPBJZ4LX3i0+3BIUrwoXxzhoEMLhBa49C0QjXUir89JZOYrgqIL17v8OC3SnXxvMsGQnDKtgp3iIK1vabUfZLW7VT1ltJ1SoSQfytC6ZPvTApwVAc0KWPALJCHOSxno6kUnMsQcg9QAgVa+srSS7ZBqBS+BhVzZ0wqfqj/kfBzQMZEOC4hYXjlVaSWREbmKwFULmFW6LPW0KSFz77SHdwRKNa9OwS1hYMEAQdpEX0cAHtfoyd1bGbXQ8+foiCCtshiUtVUIEC79F0w4w9ACoQUuXgvEEh0o7F+FtIwW0+xIOXl2jsbHs7OxzXfY8bs0ADPybRWBCaM7ER7p8JI7FJLTcBwGJ2rEOWziDPDnLGQkGw0R0U+JNcmVrgn920iFmpvjHwRLLv0SP3LW7PC4EoIcJoXqZWdHSVJ0pD7mXHAPApeTd+kKHhNHCwyAEtUOPC5HeGR375pBWcCgHb8jFsoUA1cwMLGT7xc9waLjYwBwSTEll6JwUQ8NyhhIig6gbAfDOiCbcYlsCBAu3hdHOPLQAqEFLn0LxNPbUDr0oAnT80rerJwt0U8xE1gAqKcIgosEeHLG2smljiBw+JwjCI6c6HeBlE6MlAyJga/dqjg33S2qwpDOShL92BFKR2s/C5AUOfphQQlJMen5JOXhTXg9KY1gujmySBBHNPQ1zfUUqVGNmYh+RDZ0pD+/coLmTkCIV/t6LuZRTSaVugiCqyKgqAX1tjB6DQwOrLYBARvuROkiO04WmucS7AKpnxURQZBqjqzhoM++cLkSSmq59H9l4QxDC4QWCC1wEVpAtXbuNfQQSf+eozOfihlHuqMmF+3y7DZU7nUhDHALRIrChaJpxcrHc2pCchsoqmCiGWbVnyqCwI6OAQdzEjxxIbG6ZcfHfAiZ1ghGELgqw7+u00CwDp/z6tzqmBs6mfFzu2WXinAKiEQUNNEKT1XS2UeG+FWkhQEC24i6OLrIjMYf5tp67KbNs9VAMDwMGr+LbvBxQaDhxJ7oIXeRIlnSKHgOnFoQglpEiZQRhGWPhs2aLsKXRjjk0AKhBd4aFohnNaN48GG7Ak1uxMQSxsqTOIDAq25a0VMPBo4EuPSAL6okiYLO8fochFQAgXUXCAAQYJApBhf+5tRBchfCYMdHCon7ugv61LajpHS4EvBIYONXFnCInpysa4Esx+1FSSw/gTpnkud1hEQJoBhYkEP3Iwja7iaKwJoJbF97jvMECDw+Ag1+kyZOq/A4ub8EVU8Iexrbqv0lJ4Wtre+n2mfBskfDZk1vjfdMOMvQAqEFLkILZJeegpJZ5lVkcuteJtn5THsq22NnmRogsLNhZ+4cnl/GyMCCV/JB0iCH+tnRym6HlGJwLZEpeiBLJHmMXJXAQIZ0COic5ODYsdPqmXkWQuVQ78CrbR+ocK5ddknk6AJHD7jawUZRdNRAu11ff0Gu/G0rZQZqqVIMrv8DMxOkTfSq3ZAUU0cQgroOUtnR2YEBAkcqdOTGRi24asSN09mTUkG0M/M2Iohcs/yxsMzxInxphEMOLRBa4K1hgYIBlUjPbbC18L7zcgCAnTSvZNlZ0/4GIIgOhTJsL50Vrz6lE2eAICsVtKMz5XXR7qjX/pjy8DQ2p/wnygE5ZC72UyBA7UvHMU/B8Ri4vTKvbilz71bQDCY48sCcAh4H6xzwU8Nz5hW0bm/MQESUZhIQIWEl7nYY7HKpvnMRAvVv001T5PqDXSmTuBldvuO2DblYXdHYk3gRtgDTqlTKFIO1i6mo6LCqkgQsFMiUqScCFmzPECC8Nd4s4SxDC4QWuOgt0Gv4fsTS2m0HRpl7dqWOJCgk6/EJIPgrSF4d2hSDEM7xAEGgTTQR5pxj8iMIdF3uqcAAhjsUeg5NOCG5H5MUydGeAyCwGqLlPRgdCPO35A/omQccvm0aJYCFV5Zo5+G0GxggMBjSqRAR0aC/HUBw7aTp0WMCoAQIls9gQBbtmAwQghLQDpQ5B2+rHayWg3nkTeRG2UECBP8ZcADLAQS6l9ouC8MIwkX/AgknEFogtMClaQH1ci8ds4vWjuykrVOR9fgOIGi/KELzkn/gNAckcGBBIh9QJPEUUgAEdn49RxZkvp6Ff4xTt0Q6TiWIFIMphQymGNzKObUWATthP0zvKgKkPgGx/1n22a2eHQBzDlvaXq68nY0M58IjQnI1hyEMitSKq5QQERbDcXApENHF0fINjOCU17OC5iEjIXZepuKBngkTcwlEkfxyVPfsdCqAsGBZmGK4NF8t4axCC4QWuNgtEIt2o2Q0KUD64W+XL6ZUQTJACPIPZOmhjAC45k8uR0158lQVDHokASIicQyYEyCrDKRkMAMXXtmnSoXQPtzF0Q+D02qcFQE5xO46PsqQfRAgOBKlG6cPEMh5yhJHIgDSfDkdI1UQWYyJ5mvY/1yCaBw6pyW4zNGCD6t46IAaOXCjVaCbWzlwxekSJz3t96fQ6Q2rc8DAhwAGRzgIfySXs3pkUgZMqlGUBgjPPx6WOV7sb5Fw/KEFQgtckhaIxrpQNnq3r6CovahxXMYxqx4HfhMh58j9Cgb+nIV+WGmPAYZzIgwEJOFQruCDDHoCMVxeZ65jxmqP81IXyVLKPo/CkRT5eCYa8iqeUwbWQQbVCc2q3Ccoil4LptqC9QekqiOvunlMwd4FXrWDmZffLdI5Y0qbuB4Ofuoggi59IEUTXCpCgAf9Hd0jx6UQgk42ZeI3h2JQqWiferxcJmvswiWNJDblR3v08zT/+cfCMsdL8tUSTiq0QGiBi90CaZkt6DX0oM3/s4MgkR5yKrSCZSKd+9xFCbhMUa7+5WqSGPoudO5WzVQiqVaztMlUAtfZu8+4sZJrTsScAkoVGOKhV55nRIaMAyXgI9tZ+9d1pY8maqFlmZUiIQkXSUEgdaTN/xuNCHKILOds+kglCRC5p0Y6Y9emOaA4yeJJZuyG4if0Iwg0cckh3y8p7azkpVUVA33WbTt2+pwKBwhYElofJ0BZKnGooKAT2cVUh7DNmKvCQIOBXAgQLvZXSDj+0AKhBS5VC2T3qkVen+N29Udla65DIq9yldKfrKv3BXg4B+73V6B9qKTQifE44OCqAngl6wCG7MrIoEV/K3pFMODg+nu9mjUOnTQPpMNzAkKEe+RYBf/Ci0AobQJSZLQVBOcRQZCCRhxydxEE17FSgjCdThC9Dlw0we/K6AAKRT8UqHAqiueKIBDUY9VEbqbkNA/OFUFwgEVdS0Ua6NoMHoEY6zkIdUYJFGy1SVA8af6yx8Myx0v17RLOK7RAaIGL2gL5FceRVVRLTtysVCXZjPPKxLbjvHxAw8CrVHB5fRfOT246RM6eIw+BSgjzneMQ+M5crk4d8PCBiJQ7TqqoME6KAQc7cZc/Z66E5GEQeAmKKJHD9SMaXA5I42fiXkBB0HIqCHzo0LytXGCCpG8jOh8JJLHDVQDBKigKcinbxfImTCUEP6zMmZApD8mRoFROAFQZgMF8BclhsJEFMQeZIgoCJK7+iMx//vGwm+NF/QoJBx9aILTApWqBogFVyMivM6t817FPuzMrwetY+rQjEwzJUXGYnBsk+QRFd04GBRyJoDC26CEgKiPUxV3/BT8y4TUFsqtitR5nMqXpz2ArCFzUQjtGE2WQZEheSTOhjsfGIEJHKaxN2KHTU6HD+6LDIjtdB2Qcp0PP14IG00uBSZm2xJJtYhouCeCmFBS5IyKTQru4P0QSQBCNl4wGhK5GsMRCTu0QqEsCCAHgx7boGSCwbkWyBgJFdFxKxupizH/+iRAgXKpvl3BeoQVCC1zUFug18AjS8xtNnp1Y6bRSdhEDxT+I6by9KYEzBDR2sJJYyDl5x9A3HRjP0QWSHakl65kVsmz240AF19Ub5ydWuWr/GJPlRPjbjZPmJseoHbztSWAAj62iSNU9kjkNrmxRMvdZMVHbytMN8AmBZFPH51A2UH/zcTRm5oC4OTsg4lIMek4GwKhrqnNEI4YLwamWFPwDroBgrgI9yMQ3oeiOzz/gyg0GesR5iKDDdLWUdmCQKEWlGEyxEqU6LhIChIv6/REOPrRAaIFL2AIlgw8hkdOUFEGQTlW5CmbpW/DgKeUlO15yutyh0JcBTsXOJ0fNIXVDBrRdIA3hTa5oNRiQzp72YfEkBiiubJCrKVzLgyDAcQx+jjjwdblagB8EIxjFFQy2+yHl+R2pz4CJiM/8Z8Ijk0Ad/4AjMi6VI0P9FJlwEQSOVDDBk1M27Ni9ygkRQVBpCo4GSMVDx9lg3gNHRwxoNPwD9RerMPIYbCMqc48sP8QADQmcuLJBz3aeKnNsbb2Ef2Lh1EILhBYILXBxWqB06CHEsxggUMMgRRB0ztrl0bUzsGkAvx0z5+dlwx4LKsyK1EYnREmcW8FTxILr6jl/z1EFXt1K7QAK1ft5cib+aSVB8Z0EDBKgWGVIwUtwoIIjCK5Kwzpdsb+MgJAugwEUgQiCjIjoVT5HCALtnaUIlbaZ/h+qUiAwwWRNE+gJNEpiwGGVJ0VaQ1YwcIqCIwMOBCaXk7q0jgSL5p6Z+/BaEQTLd5DdHOc/p3QQQoBwcb4+wlGHFggtcClboGSYAQjMPtcOyXfUHBJ2pDXZBZGVAkl/n1amIpxueAysJ2BXy4pjYGWR3f6WvyBSBdJh0upV5std1IFq7V1o3wEBGd6XkQrZu8ERKZmMGXTUkrwpiY2u+RA9KZakKMBU0HkqWwUBQlC2msALVZS4pkjUg4HmyeWNBBQY7LAWgQNQ7h7x6j04Hn0+EQkhXOLIlxIg2AoGA1zo2vzcuEoKG8kQ95nHyY2xIguWPhFWMVzKb5hwbqEFQgtctBYoHmJSDAIgeI6xBwVFLkNkh8ir0SBACHISVF09O24GHrKLosxd+9EDf1VrKyCsYzTEOHZaDEw8yWDXSEi7P1M5oIl7AnSQ+3XREg0YrDIh3WqqPKCVfTDMTpoRTlhKhu7pvOR8fYDgE/uSiZ58XHKKQZJD5ViIAmmO81IMjl+gxqN7JJgGSzQ7l0Jh23A6RkZsuPzTEFe8ObMNJQeB+0NongRfZ8HSJ7uPtDZftD+gcOChBUILhBa4VC2QN6gSWXl1FDXgskPhVGnFrtwErVyDq3kZrnf5bC7Z49C8I71R/t2dx7LZrX4/599NLl/ky92qnR1scvdDcryuRM+WOJoSQTcfpy/AoEbm8nV0w4oksUaBKy9046ZKAGb2E1HS6BOYCIDrfeCiHcQ/0O7Z634o+R4OLFG0RfEPeKMOlmQHn4PgeBm8j18+qe4FkVEleEvmH7jqEhcJYI4F2UOmKNiGsuNkMILABEsGCLq7ZQgQLtVXSziv0AKhBS52C2T3Ponc0lM9AAS3amXSmUw/6LlzmNuspv2Vr69YaFecKTQQ+DunjcCrc1PqF3HVAxpkGDAj2yPz6lw6Jr2bjQ5IsmFqgOAABfEPaI4ugqBduqhQYLEiLuPjaxMQceWDyR0Orau3jl7azqsCMBGNTgOWOPKQCiAEoxl6HF0Euhio6F4UImrCwM8Wp3gRBF/V0c4rCSAESxydrV2JI0c0KIIQAoSL/e0Rjj+0QGiBS9oCaTlNKBpyyDgzs+IXEQRFaus0q1x2lpxHls4zqIFAwME1OkqVX+eVLeewuWyOnBABBAdIzG0wqZBgkyZ21MyWDzpkOg+vepPbVDtHT9dlAMIVCQ7A+DwHFvzh/eWqmnkDEvQ4O9B81GpetmkmkEMRGN40CdLYk0ofHXhSfzmJZgIzTE5k3QZ1vAUHXiSFuBzBkkR5n3k8lmeg742iglLKR6Za9BiFmBZ937MgluZSzFcchJaQpHhJv2XCyYUWCC1wUVogEu9E+ejd3otcvuSJIEdhcBnilw4/VS5aagsEOxSSY3TKgecCCLJqQq90DZvfiTg5YqRylOyoLWNep04oNZDMsvdTJhSNcABBgx4LVFxaw51HtkB2pYka3AgBKBJdouOdHcnRM0Dwv3Pj4OO4woAcM6cc6JoSIMjr6LSBiR5wDwYimoq0BldECAlpPT/+W6UwRBdIAm9BgOD6Xch+EDL9RMcld4+MzF/yRPfhsIrhonx5hIMOLRBa4NK3QJ8JO604jnYgxpHZ/6oXuw7xk2NiwppdXQZq35lcqFn0ptlPkHQnw9qpUg+0Eg6Gt12zJIoQuNWpiyD4FQvuuo5dzyt7mSqQnAKKXPiVAj44cgDAqiV6vRT8bo5+6SM1feL0BQEEn/DIEQIGRFxe6hMbzepdAwRf3tr1azAVFTolQ2dl/QIb6WAbcpdHvvcm4mKVJQ2Q4AoGJj+mkt8mZUluWGXIoFZ0yYEyTY6cv/iJ7sPtYQTh0n/NhDMMLRBa4GK0QMmIfYiltweiBM6JqVRBqvw4t3kOro45tOx3TXQreRcJ4EiCc3Yy3M1AQ5L1jApASjVETaUUOgSsBmij8gEVRdkcyTl6WmHT6h66+ROBGYosOD6DdLhG2lnwMbhaQ4fRA4JOBGxcBIHBCQMDDazM9aTokk2fGGkEjq4Eu0BaOxjiqW7xbMWaeogg2BSMk7jW82aAZ5QdlVPvCFRH8Pwk+dTyQAzgUGNQx1EEw3EzIvOfezKUWn4D3hqGa/MGnOnNd4qitHQkolEcbwmrXd58dycc0aVugTzVsKlXrVfKRy9ycm5O8IgtEdDaZwlmK+DjwvnaeYjQvQw7J1cwkBOmjIATG2Jn7ZQOA2WIXBXBPQ6sFoGTK9bXCkQ6UgMEN3Z7XdYjINhAICFAzvQklrmzoSH76UiLFU8im9rWmIaDkArMnCuCwBwNnVYRegUUJXDcApo3Kzk6USk+PthkydOwMNEFSt0Y+GK6OGrQIdIQ+ttAlYtM+XDEIgVAeCoECH/BG+YDAwYjLRbTGuPqh9be1Y1fHtz7F5zxzXfoDX36oTgtHb+4xOb15rN0OKLQAskWSOQ0onjIYQsQZJ7cAQTD5jeHc17dphMCIICUDGXbaHbqyaQ1roSw17VlkDLFICoQWIjJrE6dGqJceTtuAkcQpOKhJQFyaN1r8+w3hwqCJacF4MiUkjQpIwIc0WBOAotDGRRkO2QygKHERkBsiisiRFMn1hGQvAkGL8wD0KJIXUJ5UfAHUpc4pr4uAyWNAYR0shbGEmBEki3Z1txV0/I2rJ0NiJm/5KlQKOkC30rfmDgVUwqK8dN9u3CqvV2fZVJ+Ae7bufUCz/i3Pez+8ZNx39aNaOzkyl0azw0V/aCiCL88cGkBn7+ttd3Vi9PT8bmRY/CnI4ew+vSpv/qw0mNRvLNPf1S3teL548fe0OvFIhF8bsQY/GL/HhxrbXlDz/1WPVksoxW9hh4CYp1JRDoLEDjEbh2YC7vL8LwEDBSBYGAhuAHdOmlhywAd29+p+ZGSgaqCcCtXigDQ+Xh1LZ2pI8g58qAEMqwG6ESeXFQhCaQEwvz6OmLF7CIS9I0PEAKERj1m2daZSJM2QmDmZNMYxhFL2WhZMmntYDQQGFgFSZgMENTp1fgITFD6xCkjStEkv6KB9vNLJJM4DAIgcMmpPM4BMZdeYFKqJk7OX/xU95G28If8el8+Xxo9Hu8dMBhXP/8Malpb0WF+KVmxGJoCDvb1nvtvtf/qhTfimucXobaDwA5vKoJQlB4ChL/WfemflY1HZ83Ff2zbhD8dPfzXuow9b3Ysjn8fOQZ7m5vw432739DrqVTUYzPn4tNrV2JXU8Mbeu636smi8U7k9TuGjLwGp3Cnw8WkxecqEpyzZltxCNtk1D0xJb9rIofuyTlSnt1vBc1yzHxcsGSOHZuUEtayS1ylYP4rex5I7kRyJQHNQofgZWmlCNkz/8AJMAlC4TnEhqQDduMx+Xe6qAZAfjmm3wPDP460CxwQIWDiVTCY8kx134hz4JMUObzvIhwMbJy6JdnLHGe5E1L7wQEG146bIjcOILBYk8/N0OfV/+OIrpH5i58MezG8zjePMt+vLp+NM83NuG3jmtd5NO0+r1cpbuk/CM2dHZhZWq6fx4xYFL87dAArTlTj3vGTkR6LQ63IYhHg8xvXYvmJaquamR2P45sTpmByUS+d1lDtQzu7u/CxNSuw/ewZO6YfT7tSO55HrrgabQbE5Kcl8KmVr+D5mpN6vy+PmYCF5RUaBNS2teqxfG7jGrx66oT+XgGEftnZmF1Shv5ZOXrVkRmP4Vs7t+E3h/aj07GMkmxx56ix2HWmFp8bNc7mLbPiMfz54H58Y88ONAsw9dL863HbmhX42YxZWHXqOO7bvgVHm5swPCcX946ZgEG5+RqIxSMR7Kw/i39euwJNHaopqWqfGsG15RX499HjSTfFvEAP1J9BeVY2PrV+DXbUkV0+PHgY+qal4+ryPshOJPDCieO4Y9NaZMZiePbqhZpvoX786jpqW7h8Mc62t9m5LZlzDX61Zyf+ZdQ4tHV1adsXpKVj3tJncFVZOT47YgxaO7v0fatuacGHV76EWnG8NNInBg/B3w8ZiYK0NDR2tOvjvrVtI/54rFKv4gZnZeGH02fqZ0Ftaozf3rkVvz1yUF871ZYRi+GesRNxVUm5vjdqGuplpOb4wsnjeHXB26BAgvqO7X/lc0/RXEvL8IUxE5CI0vXUuZZUHsFXd2xBYyfZenJ+Ie6fMAXf3bEV90ycig01p/C17Vtwx+jxGJGXr+dS396uz/93rzyPY83J3JVrS8uxsKI/7tq0Dq1dLmL19or+Opry7ldfQGVTI2YUl+DuUeNQlJGpmfzqnqjfwZe3bkCLeXbGFRTi/rET8cXN67FJPPufGDYCt1T0w9+9shx1JsJ316hxWHXqJP5r8nScam3Brw/uw4/370lpx8K0NPzvjFkozshER1e3/i12dnXh+hef08+DGssvp8/C4Nw8PVf1HCh7vfuV5dhTX2fP+csZs1Db0oTpvcr1s/nA9s14vPKIvr/X967AV8dPQlMH2aAL3bj+hSXafrxNKCjCd6ZMRSJBRMJEJIYnG9bix2dXoK1LN+XFoHgRPlV8DQ60ncTCnNHY3HQQd5143Ggd+Cz6a3NG4RO9ZiESIaeWHonj0TNb8IOTr6K9u0s7iHm5Q3B7+VVQyVNFi1PXXHJ2N75R9aIuq9PgRPMQ3Kr2t8P/DiWJXHRQhwIUxjNxzaZfoaaj2ZIIKSfviHBuVe23bqa5q57I9F+/VJDD/LI/AYEl2VaZV/IKXlCFhynDtKtq4/BN62XX60DDDRNBkKqSNBaOelAFiE8aDMo2UwUD7eNSLT44IKKkiyDwuG34n7ULROommJZxHAsHEDq510QK0SSufqCyUwcYXLtqM9cFzz4ZVjGkfD30/GF2LIafTp+FD658CVf0KtE/FN5Ot7Zg05na1zyjAggPT7kcvz+4D/+1d5d++X588FD849CRaO7owDe3b8afjx1FeUYGVLRiUlEvzFv2LBo7OvSLSjnCUXkFuHfzemxtqENxIg0fHjQM7x80BHOWPoMzJgqgAMKVJWX4w6H9GiioB0O9gP9h8DC846Wl2FF31o71XBGEB8ZPxm8O7MWDO7chLRrB2/v0w20jRuNDK1/G3gb3MgxO/M5R4/APA4dg+cnjuHP9apzt7MDNFf3xbyPG4JXjx3Dn1g32EAUQ2ju78OD2TVhyXIEhgstPzpqHvfV1eHjXdhxqbsSgzCzcP3EqqpqbcN+2zahpa8XI3Dz8aNpM/Hz/bvz+yEHUd3RgakER7hozASPz8vGOl5d5AOHzI8dixakTuGv9Ghw3VTzXlPbGDf0G4Kub1+NEexsGZGbh4cnTkRWN49oXl9hxKoBQnpGJ7+/ZiR/s24WcaEw7zHnlfXCsuQn3bt2I5SeOoywtDf899QpsOVurbc9RpqCNeoogjMrNx73jJuJkayv+Zd0q7TwUCFKg6xf7duMnB/elfM7e038Qbhs2Ah9b/Qp21NdpMHBD7wpsq6/D1rO1+u+eIgjvHzgEOZEofnRgj7b+1aXl+NKYCbhr41qsrKH0BwOEtGgMX9u+CYtEmuJ8Iwh9M7Pxs2lX4gf7duP/jh60YOSTQ0cgEYng23t2aDD0hyuvxovHq/G9vbtwqq1Vp/D+fdwkrDh5At/Zs1MD7HEFRbh/7AR8cfMGbDrrfnufGDYSt1T0TQIIao6PHz2Me7ZuQGsPICszGsNTVy3Azroz+OaOLdjf1Ij+6Zn4wtgJ2NtQj2/u3IrBmdn46LAR+MGu7Tjc2ozStHR8ZcwETCkuwbQlTwqAMBtTiorxh8MH8O2d22yE7uY+/fD5UePw4PbNeKLqiP5d/2DqlciOx/C5DWtxtLkRGdEoXpr/NjxycjP+2P4SGqJNmJzeF7cVLMTTjVvw+/p12pENjhfhpxX/iHVNB/HQ6edQ2V5rHbhe6RvGu3IIs7KHIks5/Pq96Ojuwoys/vhs2Tw8VL0cKxoOoiiejW/2vQFrGo/gJyfXormrE8PSizA6qw8eq9lmKxSkBoJyMl/uNxc/ObYGh9sakB2J495B81GWyMEHd/xZP7suz2+cv83lG6KldaT0PVcL6NSELT2UJEVXwSAjCDISQYqA/H4mRyjJlDrMLyog9HeW9JdafZAJi9zTgVMPyWMw+EaUJjI/QqYXaK4k1KxVFAN9JfwST2cbLldUn7iSUK5A4CiD4y1IqW1JguTz2+twhYgCf/MWP919OEwxvKZDlzv0TkvH96dejldOn8S15X3wfyYsPLGgEIOys/HVbZvx4ilanfe0ze9Vgg8NvQx3b96Ag02Nerd+mVl4cNwkbKs7g4d3u9X1NWW98e9jxuPaF55DQ0cHximew7iJ2jmurDltL6FWNIuvXoDl1cdw744t+vOfTrsSQ7KzcdWyxd5Qdr/t7Vh2/BhaVMy3AAAgAElEQVRuXbvSfr524Q1Y+Pwi1JhVOX9xY5++uLZ3Be7ZugknTF5Zvbi+Nn4yfrpvNzYJkBGc712jxmJqQSHeveIlz0HeWNEP/zF2AmYufhr1ZgX5yvzr8LVtm/H4sUp7mplFvXDP+En4p1Wv6Jc0b5MLi/G9KdNx56b1WHaiGv85fhIyE2nakXKkRO2rxn7/uEl4z6svYLsZ50cGD8W/Dh+p7ZlqdSvn8KWRY/C+QUMx8ulH7cdL5yxEdWMj3r/6FftZTiyGFQvepkP2396z034+q7gE7+s/CF/ZulGDjlSbAgiPz5qjn5s/ihTD+wcMxpySMtyxeT1OC62SDw0YjM+OHIOxix5PeT51vQ8PHIJv7NiCJSePJ+2TE4tDzWtPcyN+tC/16lke9J3J01Hf0owvbNusP56SX4AHJkzBN3Zuw+IAhyEtGsXjM+fgX9euOmeKIT0axa0qkpOVjQd2bNURlsty8/C1cRPx8O6dOtJxc+8KvG/gENy+fjWqzXOnXqw39emLfxsxGv+0ZgV21tdBRRAeHDsRX9i8ARsFQFAgSQGEd7zygo0gfGHUWJQk0vDZTetMuD71L/RdFf1w99iJmLd0EU6J+5YRiaDlHBGza0rK8MCkqZj0rAMIv54xC6Py873P1FV3Xn8LfrJ3N76xe7sdhIpa/GbGLDxy5BB+emAvbhsyDDf0HYB3rFiM9D5VyMir187yxqxx6JtWgu/WPm8BwpdK3o4HTj2Dna3VdD5TGcDkOCbYcdWDjgJ0RxBHFLf2ugLrmiqxsvEQSmI5+E7/W7CntQYPHXsBpzsoAmRXwKIvhNUjEKqK/Jna/9cj3omP7nwULd1dVG2h0xYux8+cCFrFity/6LRI/QNEFCQg6MPEQq+qwNNocBLCNoxvgAMTHNlGnH/nHgyS2OcAkcvXazML/odMeZB6pSQWGg0LqWUg9Bzonr02QLAO3ZISfYCgxuP10zAcDOYrMECy3AxhT7oDrgokMm+xqmIIdRBSvyZSf9orkcAPp1+J0QWFeNdLy7DZhDUrMjLxyKyrsKm2Fv+8dhX+fuBgHXImXSvg/44cwtNVR/W/5/UqwbyKfvjCpvX2IpnRKP5l2AhsqTuLZ4STVNf73tTL8ZHVr2qA8I6+/XHf+En4u5eXY5sIqaoTLZ27EJmxOK5Y8rQ+70+nX4mtp0/iW3v9XPPuG96OjbU1ePcrL9jrr73GAIR2CiXzdmNFX/RKz8DP9++1KQ713dcnTMbvD+zHOvFSDlpMAYSD9Wfxu6OHLaGJ99l83U248fnFOGRe/q8suA6zn3tGhzB5+/m0y3WI98YXn/dOrZzJtydOxcN7duDZY1VYf80NWHH6JD65dpW339zSMm2rj65+FdvPUrREAYT5pWX45Po1qG3znfZ3pkxDdixhz9E/KwsVWdkY+ZQACHMX4sc7t+O35l7yzisXXIfPr1uNFwVoG19YiNuHjcCXt2zE4RShdnVs/2wDELY6gKBWkx8eNAT1He3aWXBIUO2fG49jydyFmLGY7nFw652ZqVeyQ3NycKipSYe/l1QdxaOVRzR4yombCEJTMkCYmF+AfxgyDHmJNHtaFYF5pfoY/m0LRXsmFxTgwQlTcMvLy3VES24KIDw2aw5uVwCh8dwchCuLS/DF0WPx2Y3rsLPuLD7QfyAmFPXCvds24Wx7O/488yqcbGvDx1av8K5xRXEJHhg/CZ/asFr/1hRAeGCcSjFswEYRvbtt+Ajc0icAEEaPxQvHq/HqqZPesxy04XcmT8Pcst4Y/fRjKW3MH3557AQMyMq2+ygO0tiCQu+4X18+C3nxKG56yf3W1AG7bng7dp89o+fIWzwa0UDpp/v34gd7d2PVwuuRHothfW0NEumtiCbI3rnRdNR3NuOhmmdR1VGPQfFC3Fo4F3ce/5MX/g/m9dWx07MG4h35E3XaQG/dQN+0AjxUvQyvNh5CDFEsyB2Kj5ZMR21HK5q62lHX2YxHTm3Gpubj1tGrQ21OHBF8qe/VKEnLMXRBcpzF8Ux8dNejaFKLgEApo4ED5r1AaT0+H4sz2UZGxgkzGEiqXLB6BtbFmfMRONDTNI7QrZ4dCZIJmwREJP8g2MBJdlJ03ABJ7OPzB+WtFSCjKIMkhAobmnC/H0HweybIefB8XA8HBlKyIoW0ErQ95XVFlCQIODhdoec071lFUgwBwjnfAoEvlfl/fcUsFCcSuPYF33FdXdQLH71sJP5+xUv6h50WcR2+VK6V88ZzDUD4ogAIalV+29DLsLW+DosEQMiPxfE/0y7XKyYFEG7p2x8PTpiMd760LAkgPDd3ITKiMcx87hk96p9MvxLPHz2M/6084s1CvZw2BQDCGgUQliqSov/Sv6GiL5U5HvBD2l8zAGH9OQCCCodHuzrx4K4dZoXghrHxuptwzXOLcNys0F5ecB1mLqFx83bX8JG4vLw3bgoAhHEFBfifqZfjK1s3YfGxKiyds0CH028LAISb+/bTEYR3vbLcAoQPDx6KaQWFuGPzRtQJQubDk6biut4V2vEyr+Ijgwbj1uEjMUoABGXjb27eiEWGo8FjVRGQ29eswBoB2sYXFOL24SPwpS0bcaQngJCVjcdmz8FXt272SIrvHzgY6Yjgl4f2e9GXy7Jy8OtZV2Hqs8QbSLXxsxePRvGh/gPxkeEj8Kl1q7DseDWlGEaNwd6mRvw4EEH4ytjxKEkkcOfmTfa0X584GQ0trfgcAwQVQZhIAIE5ILyzTjEYgLD7NQCCAkFfHjMe3Z2duGfHVqxacD1+tG83fmjGdP/o8SjOzsKtAYCg7pECpx9Y8ZJO5ymA8K2JUzTYXi3A2SdNBOGdIoKgAKv6bW2orTnnT/5r4yfhpr79PWAYPEBFI1RKb9aSZ9BuUhWDMjPxo8tnYfpid29+dfkspEeAd7/6kneKbdffjNtWvYq1AZCvduJ3xTNXzdPcnXe//AJi6W0oGFBpRZM0h6S7QwOCgfEiDRDuOv4n6wzVP4JExPJ4Hu4uuwYrGg7gsbptJNPbDfxD8TSsa6zEygZK90QR1dwElYsfnV6Ebwx4O/a1nMTXq17AtmYVtfQ5A5MzS3HPwGvw6X1P4mh7k639/9GwmzRAaOy0tRAW7LoKBnpHsgP1RZ+IVyClju0q3WgxcGTD0zowYMA6YxNRUPZQfCUCI5S6kKkCB1BMwyQRAVDnSib68bmoikLPw4AROW5OLSgrWNVEVeJoIgjEJKEqhtdKMWhJZKFtQZEAJ+8sxai4GoOeBUrPyOdCqlXaahfWV1BjCwHCOd8TPX750MQpuK5PX8xd+iyqjYBQUVoanpo9D1vOntFkwXNtfwlAUJGGr4ydgJdOntBlaqpqQj30KoLx6ytnawLipoZ6ffnXAxA2XHsjPrnqVbxa69IW6hx/KUBQDvltLyzVPAK15ScS+oU+NDcPVy191popFUBQX748/1p8e+d2PFFViZauTp1bvamiLz41fKQmb66rqUFJegb+NPNq/OLAXjx1rBIdXV36sw8PHKx5Be98edlrAgQVbTnT0ozPGNCmcuDfGD8Jc3tX/FUBQr+sbDw5ey4e2L4Fvzt8EFwJo4DgnaPG4Pb1a7DSpKyU7R6aOBVDc3Jx9fPOdvJZy00kdO76dFubfvkpp63C7ekA/nPPTv2sfG74SJzsaNerVM2qBtA3IxP/MW4ivrdvty231Pdq0jTUNDWdN0B49qr5mrOwqraGiH3nCMl/cOBg3D5iFG5fsxKfGDEK733lRTuViowM/Hj6lfj69i14+dQpTaBT81JOeV5pGT63cT0qm5swKr8Av5wxU5Nmf3/4oL5eYSKBz44YjenFvXAhAKEiLQN/unoePr1mBTbUndVkTjWXgVnZaO7q0vyX+8dPwvSiYsxbRvwUleL72OBh+PjwERj3jEv/9AQQFs9ZgDNtbfj4mhWoMVGEvHgCioCsUnlqHmoR8ruZc/BPq19BVXMzcgceRFpuEyrihajrbMXZThX+J5LirYVzdASBFRTJWTHRT/0VwaiM3vhexXvw1epnsbh+l3ZQedEMfKp0Np6r24OVDYcQj0RRFs/VqYXGTkWWjGB0Rhl+PPjv8JWjz2HRmT2irTRFCv73snchO5aOW7b/xjrfAen5eHDQAg8gSMCiV+0suGRKJl1JoJGNFs2NXDqCHhFa9TN/QQoSuWhBsPcDpzKo90EwguAEkmzLZZvaSKX5IKSlbeTBtXP2gQ2lfCQnItjFkXohcFWKrIhgUiY7d59Y6ConCGhRyaQjj3IFAxMsPf6B1XDwSyaVbbQiYwgQLgwgpEci+NqEKRicm6vDgWq7rqyPDhd/fcdWLEuR+5VX+ksAgjqPch4qD/v00cPY3lCPrGgM7xkwEIebmnQenrfXAxB+Pu0KFGZk4Gf792qc+VTVUR3x+EsBwpi8fEwsKtZ8C018KynF4Jxc/M+enXi62tXh9wQQvjR6HCYXFmHZieOar6Ec3u2XjcQD27boMapzKvb4hwYOws19B+qM5ZnWVl29oAiUisT2oVUvvyZA+Mchw/Dpy0bpULXahuXkYGpRL4wpLPqrAgSVd/7GhCk4096Gl0+ewKjsHNy/azvy43GdZril/wD85y7iNcwsKUXfzCx8ccM67Gt2nAz5bL27/0Dc2LsCT1dXacdWkp6OhWW98d09O/HiSapMUZwS5ZyfrDqqHdFLJ6pR1dKCT182EopL88dKSoVNKyqG4ossOnrkvACCcpJ/nnk1Djc3YUn1MWREI/jd4UM9/siU0/3DzKt1WP1He3fh27sdf0MBtHvGjsegrBwsqq7SgGdAVhZu7Ntfp2xeMXNRIOZTw0ZgZmkp/vfQQV0BMCo3Dzf3G4Czba0XBBDUgO8ePQ7X96nAHw8dxL6mRuRGY/j8mLH4n7278d+7d+Jd/Qfi8yPHaC6Q2gricf2cXt27AmNFaqIngKCA4PemzNBESU4pzigsQmY8oSsyGkyVhqq4GJSVpfc5FatBdnEdPpI3C98/swxLG3foaw+KF+NjhXOSIggamwmSXmksF58rXYDq9jpsaVG/vQjKYzm4qWAMvl69TAOE0kSuJimub6zEjhYiplYk8jAzdyDur1yOnc2ntHNlBUbl1C7P7oMvD1iA7x9bhXYTSn9Pr1FIi8QDAMFVIDAR0bHok79LIugJIR8Nfmz+nwAD6TckAwQuV5Qrb6lKSIDDKTtKvgWhEeIdqM3/TkYjTPUU7ZWyC6S3ohcRBOaF8DjoOnSeYJpIEi1pD9eHg4mSqQBCsGyVO0Vy5EDqZajvdHSJAEJq8lSPv+rwC20BRUy7pd8AqKoGtbJR+gE7z5zF6sAKPJW51Gqtb06OXRmqfVRZ3Lj8Qpxub8PhRvfyT4tEcHVZuSbjqZJG3uaX9UZ5ZqYeh3rJN3Z14vGjR3Qagre5ZeU42tCAYLj3AwMH6zKvRceq7L590jNwTZ8KzSJv6urCI4cP6pfXwOwc7YBVnlhuqoJjT10dTp4jRaVWwBtPnUJhZgbSozFkR6Oo6+zEzrNnsCYQ5n1nv/7445FkHQD1IlWOUeXW82JxnQJRss/PVR/z8sjKOSnnNiw/X78ojjc3Q4kCfXXcRLx/xUsWIKicell6Ol49fcorFVSvJ+VcVbmpAlzqBb2r7gyG5uXjNwcP2KmrtMWG06eSOAVq/C8dr8YJ8XvqlZ4OlWZYdfqUd1+Cz4SyseJLKIepVqi/Prhf75IXj2NeeW/kxBMaMJzp6MDa0yexu76+R5LdkJwcTCsuQWYsioJYQpMjT7U0Y+XpUzhjyuf6ZmXpslVV/aKe2xePH9PzGZydjcnFvVAQT+gVscqPq4hDZWMDXjEiTiVpabi8pBRPV1UmVWYoG04qLMSkwmI9vqbODvz2EIWte9p+MeMKPd5Jzzyh5y634rQ0XFlSqlNcubEYTnd04EBDveYQyG1AdjamFfXS91W9UJVIkyqDTEQjeOZYlb3Pk4uKcbixQVeGnM/29r79NB9DVaqo35cCXCpKQS9m4G0VfVGQSNPgoK6jA5tra/Tz94gARQvKe2ul1UUCDPO1KzIzMaest56b+mWrc6hy3A21rhpDcUbUb12VJ6v70ph7AvVpp7G8abeRFY5oTsLo9L5Y0UTPDRPqWMBHj9c49aHppRiXUYGCWAZau9pxrL0BjZ2tONBWi+NtDZqbMCmzr+Yl5Mcy0NzVrt8De1tOY0Mj/ea8CgYjMvTO4tG64ic9EtNVWRsaqjAgvQjP1apSaJqxpxBoQQY5XymkxGOVAEHDhwAwcVwFE+I3yosuP28YCOI4dp4kqeyuS6t3ozFpBYu4bJDTC+bOi+O43TaT+7gk028TbSIQOq1hhJlkm2cLQEigykosBwACN73y20bTs6i6OPJ9lgqOkn9gyzB5HB43w6k6qjNqgDB/0dMhB+F83hTn2Ee9SNWLXa22Bb/uLzzr+R+urq+ue65Q7vmeTTkD9bC9EedS17xz9BhsOHUKzx6v1vX4KqupVhgXsqlxqehBqvp/tQr/6JCh+PbOHfb86p68f8BAXNmrBHdv2XTeTkFdR9n0Qsd5IXNTx6g6ekLuqe2jCIA9aR+kuqa6lwpctvRQyqeO6emcynbqdXOhNlDH65f+a9xr9Uz89srZeKGqEt/fn7psk22TiER7LEvk+av5qute6LhT2ZGfB1Xf39N01HVp5XxhmwLl6tieSmEZkKj71ZXRhKJh+02bZ1fLT2WBtJpULaDJIfuhZoJfxB9IAy0slD4jrZBdpQAfF4/QPi5P7zP4eZXLjj+uRY2ELTyJZKmgSDMieyqCIlVU8HY+AIEjD3YlbNUPU0UQ6FpUEcG9C/xQvTaDbZ3s7KfHJCIXHKpn9Q7dXtmKVhkOgml77TgNjr9ggY7hf5Bzl0DGAYRgfwuec5CgSPc6aoCFAzPWjrJyQvAg9NR0Gaw5RkQuQoBwYb/l8KjXYQEGCIu1rsFfbyvJyMCyeQsRi0ZxsrkJp1pacFlBoX5NfnnzJvzBrPr+eiMIz/x6LLD9hptxsrlZRyfy09Mx7qnUJZuv55xvmX0j3SgedgBKgpnkgXylPWpV/NoAQRL/CFyQ03Zsd/qbnRxzAIIRBFdHb0L85hi/B4PMn5syOu0UCRzQ5sAMfxRMMUhhJhdMZYfq6xxo6GEcryT26Zy96AIZtEOQ2GcrKcQYOexPjZe4myZHSKQkNc3MOXpaBCjM7of4fYKj7QwZaJvt0gs052AXSO7KyNEMTl1QCaiL/DA440ZSQYIiXyeMILxl3ip/m4m+o19/7K+rw8YUTO03ekRqFTajqBjvGjAQpVlZ2Fpbg5/t3YvKsCfAG23qv/h8I3Ny8ZnRY3C4oR7f27Nb8wvC7fwtkJbbiMKBR61qKDk1LvFzK2jpUDkc78h95JRpFekctHUkgVUzO0VOL+gjLKgw57ISzTJXz2RCQ5pM0gbgiggeC0cSUpf48Vz91bWLDHAXQ4oUJBP7bM5eEAKZz8DzCUoTB+0juQHMXXAqiskAQTZHInvLhlPsuB3BsSeAwCkGdvyqesGez0QGFLkw2AWSQY87zt0vfb8FWZEjOUqJMTIvTDGc/68y3DO0QGiB0AJvAgvEEh3Iq6hGWl6D4AO4EL0TJfLJbo4QKFbsLJTDjpvz4QGAIFfsKUWDrOgPj8NJHGuH6gERBwYIeDhBIUleJJKlBDJMZPTJewSNXAWALmcUKQs1Xl1VYFIuXJIo+0rI1IMECNLxO2KjiwqwqJIapT2ft1rnML7hSajvjIQ0gTYmkgZ7LqQCSCwXLfkCnAKhCIwDCEElSJNykrYWIklUYUG25nRMZO4ipaR4foSdN8HvIhxCaIHQAqEFQguovhwFdcjtcxzRWJffPVGsUFOFz9nRJ3Xy4xC/VCq0eUG3uvUjCIKTIJpH8eqdKx0IIBAJkHP4ciXdE0DwdRwkOdIBBC7zY5IjlwoGiX5BgOADHtfh0a6gvUhHkMvBzlfNIphi8CsYCGyw5oEBRl2uYoMAguviqJMWGhiZ84hx+BEEduhGolmfh3gW0tFLbklP5E2/K6QECM88E5IUw9dNaIHQAqEFLjYLRLtQMKAK6blKsZLbE7sVd5Dgpmr7yUnyit2FmeUKX7kujkDoPcSqUtbps7QxrThNekN0gdSreOO0ZEjeaR3IFT+TFIU6IYMTe32XenCpDTpONknidACV/DGxlACK34PACTA58EK6t0GBKeZEBLUTqIMC2YiP09cJRERYJVKPtIsAAwEklkWWbZ45OuA3qWKhJk4BuYgHk1GJdOmItKT1wBUNfF89sSYrf00PP0ddSAdBlTk+80wYQbjYXgzheC96Cyidtky04IqOStyTuBe9inQJA07XdOPu9i9jVaw3mpCpVwPhFlqgJwukZzchf0AlojHtBozT4bw7AQAZFncVA/QdO1NHWvMleZ0zJ6epmgmRQ+w2RD9fbIh7ACiAQf+mkXtkOe2pWMOASYqu8RKnQXQTPBOKN+6L1BaF3gET/ZgfQXiEgIeVIOZSQdEESQIddQyRDc0qXztVt8KX/AOyE2sikAqj7fzIjaB0yaZLmchz0z1ikiIBC1/h0KkrusgDjUU5b+W0XS8FF0HgEke2A0cgKEPjwCNHf3xuhi+SxPbXx4UAIXz5hBb4/2uBzK42TO/ajc8XLsPQUXlAyZcAsJ5/E1DzNVRtrcJXahdidWQYmqKuL8L/35GGV7sYLKAAQkZ+A6UZxGpf1RW70kdi7jM5jkL6DiRwxYF23BEj22ukebmKwVUrSOdJK3O7iQgCO3I1CLl658gDrWhJ0lhWUVhnH+AfsOATr6C5eoNW77KCgRkGpuTTchic8iHbyjlPVlE0DtwcI23kE/2cYyeioCNDasKfqP4IVjDo+RkA4xo6sR1EN0bb0dIHCDIawyRFBRB84MS8huTKBRZTImAkAY8kddLxIUC4wDeAqvNWjHlVu86bkk3dUtdz6+MLvNQ5D5uYn4/SzCzdInrL2bO6K95bYSvLyMCNFRVYc+q0lrb25XXevBaIdXfh2rZ1+Fz58+gz/jogcyAQyVJakGbQLUB3E9BajarNT+JbVTPxTGIy2rmxzpt3auHI/kYWiMQ7UTZir/ZRLrzuE+O4gsE5F1lq6JwJr/blf6XioHR2LjLgHLSGHFJTgUGIIAjyKt+qE3pkSJfeIADBIIadvvuMj3dSwy5lwc5caxsYgqRLG9C5bCTApFzUviSepFIErrzTE4USEQRe+XP1CI81KLHsaxY4kMbAi67lky7l+CiFQnbVEQS2lwV5RiRJAj5tZBfpIBRmUh+inFSqTnKUgoAD2T0ECBf4oy6OJ/CbWbO0cA9vqnFNZUsLGtvb8cihQ1hhlOcu8BLnPOxtffrguooKDMnOgdLeV81iKpubtUb85zeQVPClvCkFuv8YOw6PVlbi8UqSW74YtpzuZjzWeT/6Tb0MKC4HYulAJFNJQJnhtwHdzUBnK1BzCkfW78YHOz+ByljJxTC9cIx/IwtkFdQhr98x4hcYB81DIfEkWtVy+Ng6ckEa1Mx1HUBwuWw/xRD8XAgfifw+rc6dYqDjN6TQOVCJCBNhkBEQDstzBYN00jp8b1QQKQJA6Qq9cje6BAQQFD/B5fuDUsJSnIgiKhQJkOkQB5RcGakvTUw8B2fX5OZSkvNBGgguAiPP76lMJkks+6WrHAEi3gPdF77HDDxsxMUTYeImVaLiQohZaWAigFlk7tOLug+FVQyv+2ddnkjg+WuvwcxnF3vHKsBw37ixmNyrFz69bh2WHyft+zdyu6GiAg9MnIA/7j+A/9pLfSDUdnlREb4yYTxq29uxcKnfZfKNvP6b4VwqcpMVi2tlwdejLvi3HvtdB36I5xdvR0ssF/E0YPSYfLznvWm4bEhUrwC37ujCI79vw86ddehs70ZOVx0Gz52NXw5559966OH138QWUJUMRf2PIpHTJMSHgsx7ozdgVf7YIcp8uSPPcb5ch/DNSpw1BghgODDiOilyuJ3D+ebclpHv+gZIp8rnk+FzTo+Q2WnsDGzYmeoPDBixK3jbqZHGqPgEnJaw+gJiJS6JixwtseDB7MfXZYdOYISbI3EnRb2XkY12NmWhJUusNADBdVI0NhdRllSllRKYMClSj8c0ugpGKhy4Igu6ORE/g6NBwcoGmhvtE5nz9KKQpHgBP/zyRBqev3YhRj3xZNLRqsXzJ4YNxXsGDcBNy1+0Er/p0SiK0tNxVVERRhcWYPGxamytr8fZtjZ9L2cXFaE7GsWLp6hBCm+q2c61ZWX4/dGjUBr6j86eja9t347fHDyYtHJWkq9rr78OL504gU+uWWvP8aEBA/CHykoMz87G9b3LdRe5x6qPo669DfXt1LtBkYJK09MxPDsH88pKUdPWij9VHdMtfbnbXCpTlWdkQK3oF5aWYvOZs9jSUIcjjU3e2P516BD88uAhVGRlYW5JCfLT0vCzQ4dQ196u/583payn9PdH5ubqMRxuaMQzJ06gb2YGsiNRvFJTi7buLi1tPaOwUPc92NOgWNzAwKwszC8pwaozZzRI+siAATjU1ITlJ0/qRkTckpdeNxGUZWZgUm4ephQX6X2219fjVKtSp3Ob6qWgmga9r29fHaF5taYGR5qaPEnct/fpo6NFuWnpmFNcjE11dVhVk7qd8NqNt+D9zw1B71FXoaKiAol4AjW1tXjy0UeQmZHAlBlXo6AgH62trThw4CAKm1biwRk1uHraYxfwlIaHvJUskJbThML+VYhElXiyIaZFgGgXl8txnjtYMWDSAqIhETtqG0HgCEQKbQTmAHAPAo5YqL9Tl9uZcLpy7Lr1MoEKDrOT0+c8vk+8pFUyRRAswdISHh0504XlUwEER2Tk+dFYneR0sDTQ8g8EYHAAgR0wAQRnB/rbJynCRhC0EqKeq4vsEFEySDL1HbxfksjaBrJiwUUodNTIvNCC5M1kDTQifMYAACAASURBVAgHDjkCFAKEC3yDnAsgqFNOLirE/RMm4OMrV+FAU5NugHRzRQXeP2ggjjS3QHVtUI6wvrUV92zbjuMtLZhTUor3Dh6IL2/ejOrmFnLaAD47aiTG5hfg1tWrMSInB/dOmIAvbtyoOQepto8NHoyZ5WX4xKo1aOgk57/imoV4qqoK4wsKtKNT25DsbGw7exbf2rkLJ1pakBuP4/czr8SptjbXfjYWx/ITJ/DLA65ZkbzmlKIiPDRpInbV1ekGT2qbX16OT69dhyXV1XbXnTfegB/u2o0rykpx1Fx/dmkpnjpyFPds3Wod7rSiQtwxchSUmz5hGur0SiQ0sFpz8hS+uWsX6js6dIOqfxtxGVbU1uLZKuoIOa+8HP81ZbL+PSw7flxryOfE4hiVn4+vbduGxyor7Xhm9+qF+ydNxFrjyFVTJNUI6kubN2ugoLbL8nLxjYkTUd3cbOc2sbAQP923H7/YT01x1PbTy2fgwNmzuLy0FLsbGvDHw0c0QEu17dp7M/5UmY7P/F8psjIzEY1F0NrajJtn1yIvG/jdknJkZWfrsGtTUxPunFuFDwxuxMjhIUC4wJ/qW+awSKQbOaU1yCmp0e8X/f6w6QX1F6/CaZXrEfDMKpzD1bKsT59IOGz6lbuqA3UuxYqX7Hr+twMIfE0/QhHUOXitCIIrbxRjYJKkXRXLSgBy2MEIAv+tpyarG2w0wpDLzHcy1eJEl1x7ZT4HgRfRAMrjCxjHLyII0t7mjllQFdSr8CIIQf6BiIj4KoyB/hopyJMyguDSNMaGYQThwt4frwUQ1KPw39OmYt2Jk/jJwYMYm5+P+yaMxx8OHcZvDh3SqFmtvO8bP153Q7xzw0bdyvbrEyfgZwcOYJFxesNyc/HghPF4aOcuvHryJD4zbBjKcnJwxzl4BkVpafjz7Fn48qbNemWstr0334R1p2vwhY0bsc+suBeUleLfRo3Cw7t26eupbnE/nj4d/7J6DaqNcy5KJHQHwZ6a7jwyayYO1NXj3q1bbXva9w4YgE+NuAzvffEl2/FQAQQFTG5duQp7zfXfN2AA/nHoUNy1YQNWG0f9+OxZqO/sxB3rN1ggMTY3F3eMGY39dfX4xmsAhO9Nm4rfHjyE/9iyRYMO1QHxK+PGYVxBAeY9T2mXsQX5eGDCBDx+tBI/NCmawkQCXxk3FmXpGXjvq6/q/b4wZjT6pKfjzg2b0NBF64KrSkvx0ORJePfyF7DfAB0FEK7o1Qvve+llbDhz5pwP1LbdN+NoRhx3/qkEW6oLdAOr4szj+NaddTqsd8dDRahpLkVnZyeG5NfivrefwnC0Y0wIEC7sh/oWOyqR0Ya8vscQzyDxOwkQuFLBEfCSV4w612+cIh3vukCSHHEyuNCOzXOsTkSoJ4DAgCO5hJBumCXimdV0kCjYk06BPE4S/bzyP5Hfl9eS4kS8ig+mB+y4TQWGhl2meoSrFwh8+ZUHHGXRx5vvOEUjQRHvR6kRCYJ8OWYiLfp8k6CNHKgjm+oGXB6wc9EZB/ICJZ+Kg3Ck9a3BfH8j3xVlaQksvXYhxjz+VI+n/e60Kaisr8cDO3ZhQe9yfGDgAHxv5y6cFq1mryjphU+MGokZzyzWYfNbhw3F7PIS/POqtahpbcOc3qV4d99+uGfLVhxvacV9Y8cglojjzvUbe7xuYXoanpl7Ne7fvBWPV1I755evXYBPrFyFzWdclYXqDPfPw4dhf2MDnjhSqQHC0gXzsLTqmO5hsKu+8TXJf4vmz8E9a9frtsBy+9O8Ofj9wUO4b8s2/fH2m96GBzZvwa8OunbOWfEY1lx/Lf571258b9cevd/q66/BP69YhXW1ztEqvoGKvAzJysI3d+5CQ0enbrH92ZHDsbLmDBYbMDW3d5kGZR9+dSVWnnRpmtuGD8Wtlw3H2Cee1tf44JBB+NfLLsNtK1fiZItTEVVpku9cMQPjnngaJelpuHf8OCytrMJG0XpXHf/TWVdi/alTuH0d3YOfXDEdW0+dxsO7HR+kp5uzasNNyB8NHG2L4WR7GpDejaysdowcSq+DnftiaGpIQ3dLNwrj7RiY0Yn6ncDU8WEzozfy93spnyuR06i1ESJRIuk5px4g0AmWO+f7Ob3GksQcKSCVBVcSJ1fyXF7nnD05Hj/FkAJYpOiQqIervbYvNsSOWrtM9R07Wfu3uaPiOEfg86MEQdKk4ijYUsUerutUJ01HSA2iVPdEx+Ow1RIpAIIHlIyRJUAgZ85lhrR6lwCBBY9sysIIM5GuhYlaiM6d2hoGQJBlTKrDtnlm0SgHxigK5MiLmoMQAoQLe1WUJRJYel3PAKEwHsfDUyfjCxs3o6q5WQMEBRhSleMpYDD80Sf0QGaV9MI948fhA6+uQGN7B35+xXQsrj6O7xsHOr2wAG8fNPCcAKF/ZibunjAWt65cbYVKFs+fi4XPJRMXPzh4kA7ZP3r4iH44JhUV4qHJE1GelaVJQSrf/raly9AhE/PGZNnRKB6dexX6qpB4YFNzerqyCrevWWcBwrxFS3BMAImseBzr3nYtfrh7Lx7esVPv98q1C/COpctxXPAS1OfvHtgfo3JydCSlvqNTpxg+M2I4VtWeESmGMnxn+lR8JAAQPjx4ED41agQmPvmMvsZHhg7BnWNGpWyrrMY98fGnMDQvF/dNHI8heXkp53aypQVXLlpCAOHy6fjdnr1Ycur0az5Mv111E8YPA+JlwKPPAdcsADJLTVzS/KjbKoFtB4CJw4COE8DqQyX40ISfvOa5wx1CC7AFcvpVIbOg3svrO1U9zlH7Ur7OCZkqBP2bd87K9jrwctqsIijaGdtVPx2vH2vLE6DPGJCwyp/lILBjC6gRytUxj1Oq/nFpIVczBMmGpGRIK2gakNMHkADBAhG7ypdiUu44ul4yQFCnpjkRJ0BdTSV5eaysQ2FFnExqhtMJtJ+wuYigMHmQowd8Tu69wHLOqfgSLhLiRzYYiFkAw5UgXFoZAoQLe6mcCyAoUtvtIy/DdRV98I7lL2ni2/ze5bj9suH4zLoN2G1y3OrKadEIOrpU/3a3/efUyYh2deI/d+7B/8yYhrs3bLIh+P7ZWfjNzCvxu4OH8KM9e9Fq8v58tFoFP7dwHv546DDu3rjZnnTzjdfj+zt34/t73CpXjfNTI4Zj+9k6PHHU5ef5oPxYDH+4eja2nj2Lz65dn9JQi+bNwWfXrce2Mz4fIisWQ1Mnd0ynCMLcRUtQ/RoAYcMN12FxVRW+tHGLnVtGLIZPDB+GvFj0DQEI7xnQH3eNHY2bn39BkxhTbemRCL4yfixePHkSz1QSx4E3RQRt4yTt6wQIQ5ur8fODH0OvAUA0H3hsEXDyBNC3jFZOlSeAAYOBBVcA3XXAqaMRfKLPQ9iUM/ScD2oMccSRLKhE6xv7TvTOkfJz+SH/Wxyvw7YpR8LLIrNDimNTj+I1fn/yPJpDRrI8qcfgruDvE9g7MDY7At7Nfs/WO9fVLuT90cP5zntc8po9j61g8BFEI5aNYMrgmBRHRqR8udrImdnqABtKMJ9rp+pHAfRhtnzStHrWpYUudeEAAo/ZAQZ3PX7AnPPWK15zfhqj4xWoj13lgalQMHPQyoac7hCEQntr1RzaWZiJnDFrUMp0SrBEUBIHubRSj8mG+on4yG88BggshKRX54F0DV8vadVu5JH1XRFAhYGHlE7mtIGfTuCSR3evJTiUFRLBHgzqPK5vRBhBuJBftz6GAcI0sypVn5VmpGNQbi6m9CrWDPxvbN2OZSdP6fz9ZXl5uH/ieE2Ke+rwUWw+exZ9szJxTXm55hbsqCcmvtre2a8v7h4/Fs8frUI8Ece/mlW4+i6uyY598E/Dh2nS4avHT2DH2ToUpKVhYnERPjxkMFo7O7RDrxapo1233IgNp2vw/V27sfp0DTKjEXxk+DAsLC/HXRs2Yl1NLaYUFqJPdhbWnj6NquYWlKen4f2DB6FPdnaPAOEzI0fgH4YOxh3rNuDVE8R3mNe7HBUZGfiuACPnCxBuHzEc1/XpgycrK1HZ1IJELKrt+o/DhuLPBw6+IQChIjNDl4luqz2DpcePY21NLfpmZupqBsX/fuIopWXeN6A/Pn7ZMHx31x48V1WF9q5uTO9VjBF5ufjvPfvs/Xo9EYS0rlZ8fs+DuDm+DrmlQDQL6EgHDh3VHDL06w2kGSmE+hPAU+0T8dDgT6MuUXDOZ7WwuxTF6GvhgAWcpOBMJC1+mUXMOkqVoAtnK5rfUX7TSXw4ZVw+l44xO/fSrQTm9fvIehZ+69M1+N3P33tOWB7npknHKElf7RIotBw114EC1eQMulxvW13Hr97EitshzuSNTc6T9qExk3ww/U3HU/maIv/5x1hr2jn6c5cWd6PQNjXzV+fU9jNjVVqD7hrS6ROz3or9m9OpW6Pmr/6PNq5aUGOnYLcEhw5SSehE85CjZQCmwYCopXOPgntiLBDQ9km+7zxzFzxItZ+xt5qBUlYWNtL6i+b5JSeuC/rMvTSzNuahuZqmVfa5oX3VMc4W3eisMrM2QyaHr/6gHwRxLcyTIcP2Agw5x6yPtoClJ4DAoIXWcwQWSIqaezDQA6vMyD0X+J7qp1+ALlZC5KoEruxw+zsOCN0j1xWS0wgckUlVGikbS4UpBvkeeR3/ZoDwnMnxq0NLMtLRLztbO+JHDh/BhppaNIpV9JiCAtwxeiQUY357XT36ZGags6sL39y2HdsFQFClfs8vmIecRBy3rliNdYGSuYJEAlOLi/C5MaPQ0dmF3XV1umxQlU7+ct9+LD1WjR11xMTn7ZVrF+L/Dh7CrNJeONTUrAHCiIIC3L1+I1aertGEvhnFRfjyuLGobm1BdXMrytLTUJGdjX/ftBmrewifK8DynoEDcNtlwzQJUm1XlZfhixs2aRIgb+cLEFRU45o+5ZhaVITLS0p0GeYjBw9jWEE+mlvb8J09e3Vk4i9JMagxTS0uxkeHDMKAnBxsrD2j74WqNPnNwUN40tzT3FhMp4bunTgeLx0/gfbubqgqBkWC/N5u4kyo7fUABP2ctJ7CJw/8ANdgFXILgTSlkxQzJ+sE2lqAxjPAso6x+M7AT6Iyq89rPpkSIOhVi3mxJrsq5fAMaDDKe/oFnmr1GvicXYN+d5qXsHTg6mPfUZBev3Ni4nt7vIkKsEMyM6Xz0Oj18cIBdSmHZL6ha9JBGjDwsthajB2K71icQRkc8NiccyYnTltPzlsT/5L2k7CLjnfgQzlCbiBkTu7aDibHRhjVGQfKt4nAAZ9bAA/tVAnYKJuZ9TrvKeGgDfUom9Ez41bfysbqYIERJcz0xsmgKjmuQyMk0n5XChu6e0xtFxwYMneLxq+nQuBCPxEGL7n7YoCOOVyNQ41fjZ3mppMjRqEA6KpyvRIYIjFA0DhB/BiIi+EiG1w2SCMxAE+QHoO8ARcFMeTPJNXIFF0cBV+Anz8HEChiovkBKmIhCI9B5UTXDyI1QHDpFI7z0Bh9gPDUou4jAYLZa76Nwh30Sn5gTo4N39oXCYDTrS2obXO1/dJcajWcl0izx51tb8Op1rakKoGBOdn6AThgGP9Bk6vHU2kKKIcqr32ksTEp7aC+VxyEm5e9gNKMDChyotpaujpR2dhk0xsKmKiVdLo4Z3NnJ472EIbn66rjBgtbqAd4X329FwYempuLgw0Nnn4AH1fb1uYRN9XcchNxFKalo62rEyeaW/DOgf1REIvjZ/sPaEetZlCcng41voYOKuXMjsfROzMTlU1N+nPeVHSlOD0N+wQIU9+pMlNVPslbQ0e7Li91bgGaODooMLfDjY2eOFOfrEzUtbbZKo7z+XkUtJ3BFXVb8fHd/4XSnBbEjdJyZwugsjXfGfl5vJo3EjVpxedzOiiAUGgiCBIc+JwXAQ7Me1DO1QMJEhyIVZrexzotf0V4LnAgnaj70cjjaZpyDMHzaQAQ6dZRHvvMMzjQzs0swbxfhHOePUcOfHAggYE/JmktwyI/JzggBxiMHNh8ul558x2SK3szATkf4azd/EU4n9iIiBon75y2noEFW+RvGV65ayqHale5xhHLKAwDHJqLe+MkRw7MfTSRiXOBAwZX6jocIeDRuigORwB82/N9oZlx5MAHgwQKkiFy1zHD1PdSIep+UrfLHgGC7V1AUQa/nTRZNRVAsCt+0YOB56kiCJKQqB2/7cDo4B33blB8Aw1NjDmkFoOs4FBfy2oVjjIkczNk6oYjD0Jg6+onnw3bPZ/XK/ji3mnJgrlYsOTNr654S3kZbhg0AP+2doMFOsPzcvG72Vfi7g2btcbApbTF0I1EdydGNqu0Rjf2ZPZGcyShXzavp5NjISjFoFbsZm2TRIhVojR69WFWdYHFEplVRBIYDHCI2FvVc6hcr+zU6tB/EcuQOa38TCSBIwdqJRWltAE7meAq3TlPep2q/cg5msgCL+z0Qq7rPNMK0lmqFyGvbOmNq1fffAUvqsIV7slOn+3iHK9zyqnSCi6awOcMplhEWsHcExUm53w2u2CXPKLrKXDgLa8JcnnggFybglo6wK33CIIDBpheWkGBcm7+hG508n3U0SgZI6KYj/OzDIIkAKLv9fl1WsGlV8yRuseNmq/6ffjn44eUAYMPDmgufB9Vn8VkWniHziC6ck79m9Byz0onwukGkFP11Si1KqPQTSALU3WHJUpyKs9ECzyxKK/LpGlWJcpKmatA2JDlqrmiQxEeJe9BNMpijgP/iANj50qHVABB2YLBTqfoaqnB7dVPPdt9RJTdXUov33AuzgKqGuJDr65605tErei/PXWSTsPkJ6g/wYmWVjxffRw/2btPRw/CLdkCDBCUl5SumnwGRQ4oVAvzcne+xDpm4XD1i8/4FgIS9AcFbNXfjnMgnSC5B+n0zUkCOWovopAycmBWufrkdH2m20kg8UZxDhw4MEbq7oaq0smIktJfQ1c32j3GhrsHySH2ZBDBq3FVGWT/rW0YjBwEnbxyzOTQeuIcaGDATtliPP6dBB2z//vRDtV4c74ndD0CdYkI0CuWwNi0TFyWyERlZxvOdnYgXZGru4H67g4N2s52dWpA397diWZ0oa67Ey0afPH1/P8ynnTPFs1AzcWNkDgH9ki+NRa4JUcO5LPIfAX5a9H3qtKoK9rmTASbGRCQc3b6DxwFopU+AwRXwWAVCSXh02oUUCpAjysQQUhq82xAgevdYCIIFmhQsyb9NNjSRoJxXCXC1+LPrJwyxbKsOBZXTfAYHEBgAGJIlVc/tTgECG8BjzM6LxfbAryEN/O0FZFQSSerTck3K/GkcOvZAkUoRRH6aufj3AU5Fss5EGmFnjgH6ghyunaR5eXYeSXv/stj4rUf8Q68772VeCrCH4EVyoHLlIBPSNRAwSNOqly7crjJq9PkqIQ/TklIdODAgCgAfRJxjExPIF8pXXZ140BbB/a0tWuZb/KnvDInZ+ry76nAgQFXFhycByHROHomMzrOQeD8Otd+/oREaQXmHLj5EFxR5syIRFASjWNwWgbmZOZjVHomshBFk5l/h3HbfGsVOFCAoKm7E7VdHdjX0YKDHS3Y3d6IE13tFtwZCuBrEhLVnLgXIT+rHCAhCzhCInNUjKt03AwParh7220AgvpawV2nZWBQtH6UubzRKU5ySSA3c3KlikYbgWGVQDTMA9BPaJefmuDz6KfHRC5YQppBip5poJsjgwOOXAQBgoY7QpCJQUJPAMFGKlSKxI7DQMQQIIRuJ7TAxW8BBRCKI31TggNOGxipeZ+QKMCAWUiaFTuTy9gB0n/dajmZdEYpCREu5tWjBQj0nR9xkM7WnZ8cMIWXGSbY8WkQRJEFQzzwHPRrgQO6286pE6gyK+kIUBGPYUJmGnLjqmMH7dra3YUXG1pwUgDV84scOEKirYwQ9vCePOcVTCUCOapkQiINSgeYDXfARgKEe/RBCwMaQ/AMcg7MmJRjiUcjmJiehfFpWZiUnoPSLuBE9TEcOnQApaVlSM/IsHoCuXl5SCTSkJGZgVg0hmiU1u3t3V1afXRfRzNeaTmDlW11GjhwCkdb3DwMDC1NoIQqCsyzcz6ERBv5SEFI9GCh4nFEgI6jBnqY0H7qCgYJEHglbxI0+sa7sLyuvLDMDs7p0/GUojAptgBA6FT8AxOpo0oKWuUHIwgMENR/bXRDHydiJDbF4DpbMmmROS+sm0Cggyyjz21ltg0o4AoLNZqrnlrcfShMMVz8HiKcwVvaAsUGIDgjuLQCheidu7COlvyP3ajVr9jXHmOcNXtLwweQjlZWKyRzDiS4oKPUS7PLRAPICUjwweTFZEKi2pfKw1Ktwh3psSdCIluBKwmClQol8Sguz8pAdsxK6phpdmNlUwsOtquQOm3EC5Ch82RCop65KZUkJj8b3AXS9WtZVkOkJCQ6YhqDJ0oFeC5QcA4MsiE34KUydIWCEe9hYCEJiaWxOK7PKsTM9Gx0na7BypdfxLNPP44Tx4+hrE8F2trbkZ6Zja6OTnR2dSORlkBhYRFyc3JQUlqGMaPHYey4ccjOztbWUZGFAx0tWNR8Cstaa2xvBBkV4etTNETaxpif01/oImljCyBo354IidYKBhyov9uP0smC4kGcYqDLJwMEjjgEIwicYmAOAjt6SkmYqIECBwHuAhMMg6qQjmzIjx4rHJpxG9DBx+s7LBw9X5dLHG1PB32cAyDB42xFBNtGAZbZTy4OuznK31n479ACF6EFGCCwg9fuTXWQVqsYTjt4DsVM8lzVCnoXdrqO7BXMK2v4IF7YehVkc8/ks7qN7C+vutmB+1wEBiL0XxaEUftQCoLGzCVvLn9v1qBi1enfwoAzNmWGVotADTAC5EejmJOTgcxYsqHUNRVAOGABQnJaQa7YHeeAQvbWjQu+gHn9e0OVBEEZOZD7Knv4tUvsBuW4aXw+HKHyP/mZup5/rgiuy8zD8LomtO/YiU1rVmDT+tU4U1ODjIxsdHZBC7tF4zG0tbQgMz0dsVgMsVicKrGicT3hvLw8TJ02AzfdfAvKysqRSEtDRwRY1XoGv2o8hqOdbZrTIUsrI4rs2k3j6RTPi3Z4itBq9QpMGaNZUatzUErCwgFhbyOKxBESdKO90iFTWpFb9EFRDXrKjLAR/Vs5WbXe1yDAqB9yiqEngECRBTpeyXe8FkBI7luRGiC41trufr8egMCAoUeAYCIZmtgYAoSL0BuEQw4tELCABQj8+jfpVHbrPXEO7LvRRKCls9evW+vQ5ArfvYiD4MAyIfll7fEG2JGbF5+ISBgoohGN/j9vlcj7M0fBultHzhOAJHX0wLyqtRMi8SO7RYCyWAyXZ6cjIxg5YHfhAYRzgwPtElKs7oPETD+m4+boBsZpAWFv7dDl9c8PHFBVSRAwUGCBc/fqTIp7cEd6EQ4vX45N69dg146taG1uQ1dXJ9IzMtHQ2IKuzi60tbUgEY9StUEnRRKUTgmiUcTjCaSnZSAtLQ1l5WW46qo5mDJlGgYPHYqMrEzsa2/G75qqsabtLJp1+F27KkPG5KoK94x0RXxwQJwDItTQnFiVwI88aFCpKxrc86KAXkdVzBIStVCVqfvxNRAcQLBn15UOVLEg8/Yc+reKlCYCQVkwQwxkkqKXmkitgRAcB1cg8Ao/CBB8lUT6SXD1hX5SBL9Bphfcd2QBzT8wWTv73eynlnQfDlMMocMJLXBRW6AYJZqDwFUMuoqL0wXBBXEwrSAy8m6FL52xv7L33LO3ajcvaE6sBq7LkQDHZeCwuUo3mGvolzBHC/zIgeMN6AuYYfhaCrLCwXe0yjSpwYHiHEzMTEduPFWIhRywmqaLIPgFh75YklH/E6I9DmjJRyxVGD35s0BiyBJOU4EL41KTIgdeyF5UCbDjZDKgOn5sWgbmHzmNFU88hi2bN6DmdK0u/4unp6O1uRkd7R3aOTc0NCAjPaG7jnZ3daO1owMZGemIx6Job+9EZ0cHYtE40hXRM78A/fv3x4wZV2DBNdehd0UFqjpb8L+N1XihrRad2p0Z8GjvvQRMRuPCpB+oZJbAa4+RA3MeGw8w1U+6VLYyRlEtA00IAzMvwcQhzIOkI3IcmzB5OgNXXGUCRxb0kE2ayZRR8t/6egY4UCpDXVOVVbrzO8cvohosmmQcuDpMp1gMUNGX7KFBFY29Z4DgukqmAggGIIUA4aL2C+HgQwtoC2iAEFVVDPyC48oAxyuwpkqRViBBG+egXOSAPpd/8wKJCYl2ZZwCEPhVCT4hkXkH9tyKl+ClKwRHwijp+WWBPYEDCWFodcrqgsHIQe94DJMUOFCRg5T4gFbxaqyrmlqwv73NE2o6NzjwnZwELJbrIexOIWwJEiQ3waxjA/fJf/yDkQV952gXGzEh1QKqbPEBiSrrvC2vHBt/9BM8+fifUF/XgFg8DZ1dnYhEo+jo7NBMfLXV19chJzsL7Z0d6NIx6yjSEnG0d7SjvYOq9dWzqATlMjMyUJCfj/y8XPTt2w8f+NBHMW7iJBzrasPD9QewtaORlS08Ai2lQ5QNOPJk7GHIsqnAgWZbBKI3LlhEgFMBBHaeZAK3kpfSxM5sTvuA8vsUniNHTQ5Y8g/0E2cBhik7NhLLtLp3MssMEJi34Lexdg2l1HF0XW4v7TQQNJeCSzZFnwqaN39HoIMrGlKNUUYQbFRi9pNLwjLH0MmEFrjILVAUKUWvWF8KLyY5ahuRtbMMEhJl+Nv+Wzlls7L3wQM7HreS18fwnyKqQP90kQBZBWEWP/p7EsuRAIUADsn5+LXxPJbg/sYdC0IeOcxU4ECduygWxezsTGTGPK6meBIIHJCjUAChGfvb261YkwQ/eh+PbHl+4IDP4cABX9MnLnLFggQZ/qjNXM0ONr7CehX8ubKpERIKnmthVj7el5aHB+66A8tfWEoVCUr/ob0bMa1DEUEskUA8HtcS8Spa0NbWrgmjtG8XWlpbNXVTghNLwgAAIABJREFUgQZlubRoHIlEHHk5uSgsKkI8EUF+XgH+6eO3YdqMy1Hd3YY7zuzE8W5V4e/uv0srECLR0smCc0BpFnq25OanFTjy4O6FOm/30UQgxUA9GJwoknPMjtTHz4ETLXLhegYIbuXPjjjYxZF/Jqw/4PdCcJEB/ilYHQNPdMnxINjRU2oguU00n5+AhWvXHTxO/e2lGP4fe18CbldZnvuutfZae57OPmNO5jkBAiGQQCCASBAVqxa016HWOlSvra311luvQ+VinWi1ttaqdSh1uOKEKIIg85BAICEhA5lDzsl8csa9z57XcJ/vH9b61z4ngANK4GwfTM7OGv+1zv+9//u93/sJMKFd+oupFMNpHhumLn9qBNCmd6KdyhyVaoUJuXiFOQibIKkTbQtboPjgy60oMMc1IBrREGWLLw8Nj6y7PZR54be/YA3SCpO4BQpmQoIDuRrngkSij+WKOgiazw4OQuHilGmFrEGCxDji4WYDLeCAhX0lxVDF0wwgTAxMap5bHiTMwkwezJ45VcD3CaoV1KCoosBTgwN/TJU7a2UPDGi4MJbCnyYLeOTnt+I7//11nDxxHI7toEmVCrYDM2rBjEQQj5E3CTdAimhcg0BBjJiEhu2gWq2i2bTRIDEnVTjoBgxdQ8Q00ZZvQz6XhqHp6J0xA3/xvr/G4iVL8WBjBP9S7kPV4yPbqjloBQfPJEiUzIwKHiQIk4JIn0HwsUVgd+w3oFIYABlM/aAqsLBMH9DKvpVBYCkLdVXvKs6IPsMw0ZWR7xc8W5WJoNFpbROtpiXU65EAQzIBIaCiMBxyf9peto1mb720e54CCFPRZWoETv8RIIDAfBDE3PJs4ECtCggm04k+BOpES/MppelnxTWsymo4I6Whg6z2yEnPBvZUXDxacrGjQo56PLi1Viuo5YwMPEh2QIgS1e2DyT68WpycOfDDsrKq5OV9Mq3AYIYGdJsGLkjEEKMqj2d99PzcQRWDZBCC84WNmtT7DqcLWk81UbSo3gNnUH4dQaIkcFiaQvZkEBhHcjDSNEsCE9rngmgKb0oVYPcdwr/+6+exe/s2uDbvidxkfXo8xCyLaQzi8RjSqSRi0Shnd1wHtu2gXG+g5jThOB4DB6VSCSNj40y4SOWslhFBOp5AWy6LTDqDhtPEOeeeh/f/9QdhFfL4evkQ7q4Po8kEiXy8fe6I3ZgUJMqSxmdiDvgz4MdQKmoI7JIGoT/CeQdBwUtQINsp0+nUwKwCA7UVshQg0hVPlmJQhYws6BNIkKdV6H46TsiO2Xc8lExB8GcAEKSDomyzHbAX8hpVYKMCBPpeFTwyrsc3jeIvjJ/64ACBXoKpz9QITI3A6ToCbXoH2nRq9ywEfnLRrURApZpLEQLKgEY7qKWMcgYVoUWUw52d0nBNl85AQrPewFO7d2N4eBi5bA5LFi9E3YzjtkEbd446ILJZBQky3eALEkW1Ap+fJjFYYvvLKZUHhFOnFfwZnwf0UwgSySFxedxCZpJSRv7sZeCRAydW575IUQIEARwm2P8GNtTBuxQOZq33Mfl2QavjiSxDeFx4RpxvJTUMPKaKAOnn7CfqDlZEE3hnuhP1p/vwX//1dWzauAG1YgnxuMVTEZ6DDPlCRKNIZ9PIZVLIU5DP5JBIROE6NurVGkaLZYxVa1SLACNioFYu48iJARw8PogTw6NwXA35dJI1gstk8zBMHVHLwuuu+RO84X+8BVu9Mr5UPoijbn0SzcFzFyTycQg7ckpzJhoNAlz2Iep1IlS8SgVDUHEQqDN43l4E6BYfAzWwSg5HrtzVskNpsay+XlIPoLok8oAeBHq5imfvS0uKgTwQ2NMVaQXxNorGT0E/iYklmcH9SN0De28EWJJdIqX5k3bprXd5/VPdHE/XuDB13VMjwEbgmQCCzyYIZb0qSOS0a4uPwWR6AHhoj2j4yBwDPVENe/btw9dv/DZ6chFc/bKzYDcdPLFnBNe84U9RN6P47oCNB4qkeJcUvdQh8KmUlihckCgBigzOcsX364KDANCcSpDYZRo4TwoSJ31vJgcHDHB48EWKzFdC2CaHKW21LFSeIKgGCfQXsqY+zDCoKRay/5XOi8Hz8UUeAg5MAjwEeyCDh0zxyNbH6m136AY+XZgF+9gJfPlLX8Bjj6yDbTfhui7ilolMIo62uIGOfBrpWAIdXd3o7Mwjl88zN0UjosO2bThN0pBoqDaarP28pmuoV8sYGRnB3oOHsXX3ARw+OQLdMJBKxpFKpBAxI0y30NnViXe++y+xaNVK/HflCO6qnwQzZpbvpc8AndrnQAVYEoRKoKxrLgMtokCRPUjnkBXyOFBBAH/WnBGQf5fBOShx5KWRMqiywM45C6XLYlAKKQGCeNVFCoED0HDgF4JC8QtLq36pzAhKFdlV+V4MzHqCHScAFqrxkizBnCzFIH0luMgyEEDKe2P3c9mtJFKcYhCm4szUCJzOI5AjBsHgKQbByPq3w+YbxSFxoiBR9hcIgmwQ3sR3GvDOaQauKBiMMfi/n7kBI0Mn8DdvWYNSsYbLzpuPX23Yhd0nY3j/e9+NLeMO/vOEjQGbPPN5IJPMQSBIFOs9tapCsA7PnTlQGYZTCxJzZIKUfjbNgcoayLHgEzLNwI9VuUiRRosmblqNssm5pcFQa8CS6RxVkBgkV8JaAibMfI7gQDIHgdeFakotApyv6pdggodKMiN6f64bFzoR3PDZf8Q9d9/BNB+kN6g16simk+jOJDC3K4fZvT1IJWJo7+hCLp9FPB5nxkd0Nkavezp0XWMmSppjw/ZcOM0mxisVDA6exIEDfVi3bTcOnRhCPJGGZZpIpVJwXBtxK4IVK1fhrz/0cTyoj+PGymGMoBkSJE6mOWD5+JDPwURBonwOGjNd4toaZt3dz1u8B0GVPwMZWCmYSpOuIBiL1T1r6iTPxbdjYkW/rFH8LAI2e0ZuWAApzyMBh9o2WmUQWgGCn15g107Novi56F2UbaLV+5CpElnNIJmQ4D4DECTTK/yIHKgwgLDm1runfBBO58gwde1TIyAYhEJkepDjPKVDoszLBs1uZGohWOFyYZylA6auIaF7SEeAD88ykTA83P/wOtxx+22IoIr3XHsx4skoapUaIlEL37z5cXzko9ej5Gr43skGtlUcVDygyTr9ebwbp1h2y9WturJWg+tvJ0gUzAXrRqjj4lQcUZaDnux1UZmDIJAGIVbQ9xT4xNqdeg2QKLPkORhzXBRdB+MeiTVd3tWQr/PCIK1FcR++kuC8LKiEmJ0wiOBTdxhCUXfNUwsSVbBDwEbD2kQWf5Zow03f+ia+8Z9fhUddGV2X+RoYOtCWTGFOdx5LZnZhWnsBbYUsEuksookE80SwIiY0g8o/IpRU4LCOdwhiDAQdp2HXUK/WMTQ0jG079mDdkztx9OQIMvkckvE4NCMCx2mgp6sb7/2rD2Lm+efii9U+bLWLPECdwudAVgxyy2UZ5NSx5kCAtCF8HANwwAJof1SkDYQGRfREUHUHQmsrwGFQueBIgODn7UXlgQIQJhgXucH+gb4hXDrJbyPMIMjjtDowyrSBDPxSvHgqJsQXXvqpkuDNZMyCKL2U20mAwNIXl9x691QvhqkQc1qNgKFpeGVvN+44chy2WJ2eVjfwPFwspRgKVOao9Dfgy6TW3grqSpJz51JtT8EzaXjImhpyhoacqSFjALGIh0wEeEUbGcx4uO+B+3HXnbehtyOJ97zhIuw7OIDxRhPbdh9F/4kiPvqxf4QRieCxcRcH6y7KFEAdDyOOi2HbxZjtoegGzZ6CNEc4kHH9QmuQlYMnUxD++plPsbLEUqwwyQTpXNZb4ZkGnZ+DAidpLimPT0BGJbUDbqElLSDba3se6zlAQGHIcTDsOCg6DsY8x6964MR0a6eBMCA5NThoARA+rc0l9X5df4sRkiCyQzc/JxLF+9KdGN60Gdd97MMolkpw7IbfwCdqRtCRSeLMmZ1YOrsHhXwesVQcsXgSphVDNB5nOgNdN6DpJjwtwtIKVObIwxxFHAdN14HjuKhWKzh6+AgefWI7HtyyHQ3PYGJFKn+kMYlHLVyx9pV48zv+Ar80x/Gd6mFQt0gOgrgXgvoJlzKK84lN2LskUldyX8kc0DGInbEPxfwVv2yOFPw5UaDomxkJKj4oVRRBvSW9MMG4SCAav3SRoRoFIIi0xmRNmvjvMAcYrRUMkhGQWgL6U2UCgv3kWxD0YVDdFSVbwMdHno8LJ7VLb73bOzjlpPg8TNlTh3y+RiATieDOtWvw8c07cPfxgefrNKfVcRlAMBWRorh6nvGXXRR5fp8HXTWtAHSaQG8cyEUIJGiIMrM5MetqQNoIAMK69euwZ9t6XHrOTMydXmC55407D2HPwQFUmgb+6q8/zFZvG8Zd9Nd5RwF5HbwU0sOg7eJQw8WgQz56Ehio6YJnEyTKfSZPKxDY6TUjOJu6Mp7CPpnzAhpSmobZloE2w0BEjAy1NT7adHDYdpRSB1UXwQe4tbUQN/bR0ICLsutixLFx1G7icNOGLYOXf78B2GFTuDAvmliqF4yLyhz4pko+iOLwQ/pHtAZWOgVZKb8+2Ybzh8bxues/gR3bn6RYDo89B+5HkYjFML8nj/MXTEdPWxapRALRVBJWjIMD6slAZY+8QiQCT+eBnshuHmAYkQ+HEQou0zWUikXs3r0Xdz78OJ46PIBsOoNUnPo4mAzUzZs7H+95/weRWDIfHyo+haLwRZgUHAj2RD4B9U8OEPg4MBmfSCtI4MKusj86ASAE+oHJujjyq+CUv+y6GAj7WvUHUrwoV+SuMCZRjZV8tsDXLYTFg3S94VREABCkh4Lv3RACGIEOohUgBMcT7opSb6FYQgfdJKWT4q33TDEIp1UomLrYuGHgqddeia/s2Y8btu+ZGhCZYjB75YLDZw5k575gkCiASHDgodPUsCSlI2uSGY4gIJgpjlDmCVGDpXn4o0KETb31egO33n4r1p6dwMDAKCoNG49vO4hMJgknNhtvesMfw/aAR8YdHG0EK3wWXkXe2CE1uQuctB1sq9kYoWiimN88c7UCI2r5uo01Xpq8t8LKZHRiV8bQUtRjJY/LY1EkiyNobH4EjSN90OMJxJacDX3xMhxzgMfqdda+OFxNIIJxy9sXlHHKbo9cr1B2HDxVr6LPtie0r2Y57RA4UIFIGDSFLp8BgzAjcWpwwI+5yIrhA/F2/PCrX8VPfvgD1JtVOE1Rf8f6KnhIxWNYtbAXy2Z1I5WMIZlKIJZMIk7AIJ5ANJqEHjVhGRbrvUAXzxoX0xh5ti/gpJWp7bqsVwOVPh4/fhQbHtuEOzbsQNV2UMimkUgkmUsjNXd685/+OS5/xavxxUYfHmgOtYy3YML83gocvIbGm95beheE5oC/+2I7AWHoMut9UdH4SS0NlH+XAKG1EkDVIPCnoAbcwGQpcDX0KxrcoMcB+23wJu/B0OqiKI/fqhlg0GdCbwcuipTaCfbW+MxDC4MQqoig65UASK4quAiSHevSn5MGYUqkOBVlTp8RsHQdt6+9CNuGRnH9lp0YsWkKfml/cgYxCL3cKEnEl9bSQb4y5U1xiBFYktLQExPO9pIqly2MFWqfzWkecFnOQHvEw9jYGL59049w8vAuLOhtg2c7rLvfgxt2Yemqi/FX73wHxvUIHis7LJ3A9hd0MZ+0hTjRd/TT8HTdxtZqk+X1nUnTCmrQ5BP/qcBBXtdx6XMQJObJSTFqQHv8QQx9/2twq1XEFi9D/eAeuOUiEmesQNu7PoT+ZBobq3Xw0B6Q9q3JAhVASCDE/5RMjIahZhNbalUMuoJREKY7EzUH4fudVJCotogWr/9kFsryusjY6G+yXUjv2IvPffZT6Dv4NJr1OiJkp0yAzXFgN5voyqdw+TmLMK0tjmQigXQqh2giCTOWhG5GYcXjsKwoa8hkWlHofn5DMFNsuU1ggxwVySehCdduoFoex1M7tuGW+zZi37FBZFJJpNMp5swYjUaxctWFeNd7/gon2xL4RGmnYBEEPzCJIJFhV6UCh22pk+NiWHPggwT2jnto9sX5k1S6FjI2hAVdoQZgjyxY1QcdELmpEtcS8G1UWr+1dTPbQtEgcGARtnaWjcX9tsziGuSxWlMMQQklFyiyd8Nv4yx7Qch7kR4LHNCovR94FQO/j1YvBjrnFEB4aceU0/ruV3W04btrVuIvH92MXx09cVrfy+/i4gkg5K1eqf8TPgciOIuASxMJiQxnxIH5CZ5GCK1Ifd8CGdTl6pVvRaZIZ+oVfPf//QCPPrkDtVIJnbqLM0eO49E6cE7MwAO5bvz7P/4Dxgs92FWlEjOey2frbd/lUQRMWeYoOvpVPA+7q030kSOfQy19w1cX/ETgIGi85DMIsitjKobYcxAkXhIz0bb1UQx//2uwRwaRumgtYnMWwhkbxviGB9AYOIr4/KXI/M+PYEs8hYPNQHo4ERxIGBRcZasgUgIF0s083axjX7PGBI5cQyBTP5MLEuVReYpYCBJFBQUPUzJFMfE66LympuFVySxeb1v40hc/j9t/8QvYjQbTEniaDsejQM77KiyZ0YmLlsxCOm4yIKBHYmhoJhpUkWJYSKWTaMvn0NbeyfwQyHKZei5wNkGgSbofxh7YTN/gNGto1Mo4cuhp/PLBjXhoyx7EqOQ0kUS+UEC92URnWxve99cfxOKVq/AP4zvxlF3i4LLFa0JWxfB/4xoFto0yjsHzEQyCqO6hC2z0RRlm4AGSKxUkYFDbPUsCQraSUrs4qoFWBQjSGlmaJDFBoegYyQEInVoCBP6sg+ZL/CHSdrKSgkEuv+yRvwUSYKjNn+R55f5sbHyww8+jMhIcVHBgoFZviAyR37NBu/Tn90xVMfwuZuipY/xeR+DsfBbfvGgFvrbrAG7c38fV8S/hDwGENskg+Ct2Ki3k1QqUPuiOeZib0NBO6WM/qoRCjyBkA9MidUiJeZiuNTC8fTMO9R3k29ZqaHdtnGD1WTrMZAqX/fE12NXQmNZACsZ42JrkGbG5S/6Lx1YtJ5oO9tQody/hhXqNLHvLGQkRS6WSneyTL05EkY2cyj9ZrsqBrKHhKruKwRv/FZUnN8BIpNH7f7/sw5mRm2/E+GMPMKV+7uo3Y/gV1+AJcgtk+XVxX/7gSDmjMlry2lry5WwEKABowKjdxJ5mA/3NOtMsBHUJYc2BDPm+G6IcMcVWe6Ids9yLX9NZ0QQ+mpuOu352Cz7/hX9CaazIOjMSvU8RymGNmDyYEQMXLJqHpdMLMAwNjmYChgU9FketbqM4XobTqCIeiaB3Ri/mzZuHto4uxgBETJ5y8Fg76CYa9RqrVKDnRft49TKGTx7Dug2bcOdj22FrOpLxGDLZHHkJwtKAK658Bd7+lx/Ad5tHcXP9GBMhy9JdfidhG28ODni6h2opVEGiFIT6QI1tB9gHA4CgBvTJgirtIJskUcD1HQ8FDuLgQUlHCPGhamDEgIUfkHmJogzYko1oDfAEEGQZqTCV9F0/GUBQGA5ZzRBOUYS1FFzAqOgcJOsggAQjfXxTKH54dt1TAOElHFVO41tPRgz8rzMW4sppXXjdvesx+BJPk0kGga8wJULgVLype1iY1DAzAW4vLAKLzOTLQi0x5yiBPAioNDvRhGUCaNdszDMdtMn2yGIGLjse9tY8DOgmqjzZKkRiEo2oLaQlSAnAQRAgKWfvYV/Dxs4aEfv8PiZLK6jukAstE+fETVaaOfEjwQmfJBdbEZw1cAjHbvh7uNUy4gvPQs+H/4mnAzwP4w/egcGb/hNeo4bkuathveN/4SHXw5jLLWUUDkTBWn6CXIQyNSEh0ywB2KFTEbDtt+t4ql5DmfUimChI5OoHmaZQ7+OZBIkKGNOAD2SnYdbhAbz//f8Thw8dYvfpsJUtaTi4BoKuJx2P4pIz5qMnn4IRjSGWSCOZSiGRSbLWzfVaFUMnTmB0tATDiKCntwez5sxFLtvGqhw8z8V4qYRjR47g+PFjTMBoxRJIZ9IwNQ+GXcWT27bjl49uQdX2kKUUg2Wxl8t0HSw98wz83Sc+jcfSLr5ZPcjKSIOPLFkUUEERfbIwPYkgkYMLCSLoHl24fQk/wMoSv4kphgDhMRAwCQ0v6ytU/YGsRGht0iQrELhfQrCil2mO1goG3wMh+KWcHCDIfg+yBbQAIkGVBA/8EpD4gV/sF2YoJIDg48tSGZf9fEqkeBrHyZf0pb9t3ix85OzFeOu9j2Lj6NhLeiyykQ7kzWmhdrksoOou65vQzbQGctVNIVdMVEyQGNCwMrkgOs34AcsVIIAL6jSWd6bqgDyrEKCyRWDM5sp1XqJGMzOlGFopczm5i4m7NZTKdAgLYEB/w8ET1QYazD8hSCsw+KEcmq57gRXhAIHVv7eeN/iZgu3ymIV5/Xtx9DN/B4PK9zq6Me26f/evZvSW72L80XthHz+M+JkrEH/3/8YDuokSBRihqAhpDuR3E7CJP6Ji/RbAC7Yy1ClAA4N2Ew9Xy6izLwPLax9OtHRllN8/k+ZAbpPUNXwyOwMff9ufYfuObSLhQ14FlAJohoSG3YUMLlk6G5l4grEqFLxNgwyNTGSTSaYXcJ0Gqg0bpXIduh5Bb3c3pk2fhXguj2ajhpGhQZw4fhSl0RLK1Tq8iMXeCMKTtXoF5eIo7n1sG0oNh5U78qDlQW/UMXP6dLzrb/8eWLEE/1bZjwGX6+OIHaAKC/bW0DtLWhryL2gxQeJQVL5/HKRyhoGDA3pv7acT7DupOQgxAC20PGMQ2MqajIkUcCYCsjRK8gWJcn/iRNyg54F0LZQVCMFqn/9eBhoHnvYgQMFdFEU1ga97YL/FvtujeIXEdpLJCLo6hksg1W6OQbvqSVMMgk3QLvnZvV5frf6Snlynbv70HYGvrD4Hr5zejXk/upOtiF6qn5zZgXy0xzfLoaklbni4IKchT4yqWNzyEaKwze1naTs/HAm631+sEpMpfBT4P4V1AWEiPziOmMYF3Rteb7PTt6QV/HW2L07kR2B5eQD9TRubqw1U2SyqrN1DwdhDUtOwJhVDPsJqNH2rYnl8uS8dYYll4swTxCB8CGahC+1v/xtE2jrg6STM8OA1m6g89iCGf/QNJJavhvWuvxMMglzl8+CjfvyUR0taQUAi5VuRkqCgLzz16UgV18H9lSJKLie15d2yqpPnLEhsvS4PvRETf1Ez8YZLLoVh8F4JPPA5DIvIng2GYWDZ3Bk4b3Y7zFiCpVNGR0aQMEwkM3lY8QS6uqfBhIPBE4fgRQxUag3M7O3BooWLEc/kUC2PYXT4BOqlMdi1KsxECtF0Bp4RR73hYHhkBA89tB7b9h9CrUkAIceAIIOp1TKmT+vEG9/+Psx51cvxb9UD2G+X+SujgAN/zJ+DIFEFB+zNJ/3GwRQX8jLqX7ohipy88CgIB3zK07NQzF0uBf0fMAhBBYQM9LRqZ7S+qh/wV/kTGQQ1PRAcX/VkCMSILFUwmbBQMWtSUxTcZVGkGFoqGFjxkADxaorBr4iYAggv1ZDy4rjv9y6ajQ+cuQAfe3w7ftx/7MVxU7/BXeTMduSjxCDw4JM3PZyTIbMjfjDp6y9Cb+BM4BvrKIGcb8T+k0FKWff6MZ6HbzWUBTR6IEgMApbvejeJGiEoawyOydZ9IjAebjgMJIw7gkpuAQdyyMhSeWUiioLJTZ34fasghR+fjKCutGsYvvGLqDz5GDKXvQqRrmlBLAcw8oubALuJ3NVvwvBV1+KJWg1VFYRKijucWVCenhwheU+ApWnI6wYrvyRjJqoeYH4JroOGS94JDjZUyzjpsI4EoieBcANgHhYic+OL7lpAiqLqZzyR5mGZmcBFuw7hb972p7AivJMht7tmEVPYJLtIJmK49Iz5mN+VgBFNYnBoFH1HBlDRLDSjCZw8fhSdbR1Ye9lqmOVhjAwPomK7OGPeLJxx1lmAGUOxOIzSyADqpSKq5TpSbe3MfVEnLUwkAseNYN3jT+L2+9czwWMum4VDpkrNOiLNBno78lh77ZtxzhuvxX/U+7DHGfdBKl9PC9HiJA6JErDJjpWt4IAbcnlwDybZM5JagGfyQJAlgHLbVoAwWQ8GOrYKEKTOgL3Ogt+Qfw/rByYCjdYmTTxwBwyC3F8eL8hEceATpDokGxF4OgjMz5cLAijIVIfv1rjmZ/d6/VMMwm8wJU/t8kIYgZRh4O5XrWFzw6W3P8hsbl+KHwIIOWIQAORMD8syGtosEed9zQGt06SNjNQHyEjbyr7wqBeMZvDvAfcwERzIbjWtMj4fVSiCxFMxB3Ia9aGFiK/Hmg4er9aZ+DH4qBCGf0sCxBXxKLrMiAAJ4euU570kaiL/5CMYuek/YfZMR+KcC2F29TD2oLZ7G4oP/BLRuYuQfuffYUsyiz4q1/P9FUM0AQ84/lf8+oKf+Qo4Z0SwyIqiy4ggRikU20bENFGFh5Ougz3NKks1UGXDE/UKjtsNFuClP2EQICcRRbawGZxa52NzgZVG+me/wtdu+BwimsGYNodSJR6/G3JEJK+CaR0FvOqcBZjRnUY0nsTwyChODo0imunEWMPDicGTSKTTOP+CNRjZswPF4aMwScuxcB7mLloCV7MwOjqI4smjGDo+gJFSGVWYiKfSaM/EEY96rExy7+FB3HbvIyD7hVwuh2bTRq1RRRIOOtqyWHX5VXjZO9+Fb7hHuO2yGM1nEyRK1Wqr5oA9CwHm6N21n/7NAAJLr/GD+c9EBQiMjRCvpm9hLJgE9gaKCga+mpdVFBzAqiWO8jhy1c8Bh8CuQuDoN5QSgT1Il/DjtWoh5DWHukcKi2XOpPD9WNmj0B8w4LTmZ/d4/bUpH4SXYlB5sdzztTO68ZlVy/DN3Qfx2W0vTeOkrAAIZJW8IssrFUigroYpOdFOFLwFb4IUMDJrV799cLAC501mZQgPU/7jQF4PAAAgAElEQVSBKZOYbuQqVRx+IkuguiXKM0riNiDwZY8BmsWONVw8Wqkx+jvMbyg18ZrHVunLE1F0RSRIkKBCqLs1oBDRcYGuwdz0MIZvvhFGIoW2a/8cjUMHMHrPzxGduxj5N70XfbkCYw+4WRJHAYzyVnQOzwQOKL+e1Q1clkjBq1Rw791349577sbo6Cg6u7rxyle+EqsvughO1ML6WgkDto1Rx8aj1XGMusQxiIZQouV2a2qj9WcJDOT355gp1P7jW7jrRz9kRkiNZpODF02HR40XHNJ2eFg2ZybWLpuD2bO7EU+kGLtBjbmKxRJ0Pcny8FSVYBgWak0XpbEBtCdNzJ4xEz1z5sHRIhgbPYnhI30YaFh4Yu8+HDtyDN0zZ0GvV7C0M4m2tjQODhRx1/onUWs20dHegVK1ikazjpypoy2bwvkXvxyXvfOd+EZkADvtErsOVtrpqzgmFyT6qStFc6CCA65NAByRYuDVBYExksRYqiaBewf4qgae9lJLI5USSTXQM7pe+A4wMk4pcQx5EYjgPFmKgfZhzo3+/tyQiuke/Gvnb55MmbDXU3oYqH8X9F1r+2cCNLwkk//OytJJ7o0ATGkQXixR8iV+H/uvfQUeOn4S71u/BZWXIIvAAUI30xxMJ5G2rzng5XOSN5hUcyDfHYEDyH+AYwvSHKjgQKxiVFW9YAT4Slfl/YNVvlSSc2ChhFJfcyDBAZti/dW3+kpLlT3tfaBuY1OlJgyVwgxIAEI05HQNq5Mx5CgIsvEQgi//Mj10RAysikWRtZsob3wQ9af3Qk+mED93NaIz5mGvY+Oxai10VQSSWLgKpTnk1ap3yL8j++ZXpTJwxor453++Abff9kt2LUStR6jhEYC3v/3P8a53vxvNqInbKmPMZXLIbuLu6hgLkGziF4r88K/6ROYnAAh88icNgvGlb+H+H97EWh/btstaL1O7ZfKxsusN1lXxoiXzsGbpbEyb3YN0pg3xdAq6FcX4eA2DJwZRp7JIje9Tr1YRdyuIEDPS0Y3u2fNgWHEMjwyhPHIcpbEahitNbOvfB9NKYv7seTi6ZR3m9Baw6+gQHtvVxxiEjkIHxioV1GoVdGeSaE8lsGjFSlz1nr/Et2PDjEFoaM5vLkgkWCPKSmncCMS6B1Ic7AiMSYCAgi6lfGSPAvkSBhUMXH8gRYP8jQ26ObIVvfIoVIAQtljmCJNVBctUgWABeHDn5YX0laxkkACBXb8AJ2rJJfczCHwPwvvxXKEM+Op+DBxI7kBcg7wuv5vjpbdQimGKQXiJx9fT/vbPz2dw09oL8cXte/HlnU8LUdFpf1vP+QbyVgGrCj1YmuYUoWQCJhMk8nIwVXNA1Q4iz+3HOdXYSEoSxAQ5gc7mjZd+u7TCqcGBDI5yhUOlgVurdeyvN+H4UTrc2ElCmTZdx4WJOLIkzFPV7WxC5PdI/QnmWRF06RFWIknjR0LBpxtNHLMpKMrEvzA0UsCBmkYI4I/6rYd5ZhTnR+P4r298A//+5X+HoRuIxqK47hPX4brrPsGsq2n8P/3pT+Pla6/E9mYN2xpcnEdmSptqFZHaaAUD/B7k/3NqPWB1JPOS1HUsu3M9vv/JTzFlPJkhkTmSZmjMrwCui2QsikuXzMUKAgidXazjIv2XiMdBXRrqDRvVuo16owm3VmemR5XRYUAz0NHZjfaZs+FRlUdxDA6BrVIZ9fESrFiUaRNoCO16ESODR/DEUwfw2M4+QI8glU6jUq3DcZrozCTRk0tjyfmrsfZt78DtqQrubw6C+mJQp8hnc0hs1RzIahBZ9eq35T6QYgAvzCCIun8lWNPQyu1YKsan+fmbJKF3IEvhgTjI53NA2tpkqdWvgElBJkkVTGadLNkN6b/gl08KJoDehaBdNUewvCJCMgScDZHXyEpdBYMgKycINMi209olt9w3VcXwnKfhqQ1fqCOQNiP4l1VnIRUx8PeP70BfufpCvdTn5boWpwq4aloPM+ARU4Fcd/pUPA/iE4NMACZkWFXDTnA8+hsZ11DJYcOVHQ/5MXVNg6F5rKUyWWEz+13OxU/MjoeqFeQqhgc29epkgJuwUveAouPisUoNA+REKKSUatmjmn4g6+Xz4zG0kyZBuPJxSiEIrXx15jFHQMrM08RJ98QaD3GLPtZPge7dFCV7dJ9s/a+wLGHlAYdMl8RTyNbq+KOrX83oeqLzL7/8cqxYsQI7d+7EL35xK1uZz549Cz+5+afotxtYVytxhsQDNtXK2NusTaiaCJ4W70DJO1kKtkGIO2lMyKroFX1D+I+3vA11ascsV8IiVRKN6IgaBs6fOxPL509HVyc5JGaQbcsy/4KoFWVjQIwH9VSoVcoYHjqJcqkI07LQ1T0d+WkzYdseypUSqNuqR+6LzTrcRh0GlSRS50bNQ71cxobHt+BX6zeylIRpmijX69AdBz3ZJAqZFOYuOQOvecdfYlt3FLfbJ3DMq3HA3+JzwNMkUvgRlDLKceHeCOIn5d0nBoHn28PWw4HVp9ypFSAEdD4faSU9MUne33MlE8CvYWKJo3j3W9otSwah1UGR6wikTiAoaeQCRaHeFH+yK1UqKBhACHWF5MIkLnjkvwqSeVCbPGlrbrnPOzglUnxeJu2pg/5+R+BlPe346upz8Lktu3HjgcMvKRbhgnwBF3dykaJcv0qDHZqmyKUuYYAFQAru49T29hTqe79LIM9usu1GbA/Hm9S22fXBAVHf7BwClBAooFr3mE5VAjq6qW10hDwTgix5EMTlFKshoWugVS7Bg6rrokJBzAc6p36HjjUc3FeuhFpCt0IcuXfeMLA8HkW3aSrVDRKOSM89PlGqPgdsPCnlQqxFvYYjTZuBArpP8ltI6zqmRUzkDIO1ivaDljgxOVheHk+j3NePP/qj1zDrYssy8alPfRpf+MLncc011+JrX/sqE+pR++OH163HIFw8XB9HXZgYUcpsQ62EE+RZ4PMF6riEmQP5L4xN8HgL67VVDd95w1sxODzCgj2BH3p6mVgMSdNA07Yxv7sDZ8+ehu7OduRzeWTzWaQyGWaApFsWA021agUjJ47BbTYY80C5qPbuXqQ6ejhAGB9jLEw0RRoG7h/APTFo2B3UK+PYunUHfn7XA6g5HgMdtWYDZO7ZkYohlYhj5swZuOINb4d79kLcboxgp1tCRbgCMDwmzbsnMUHi8ZEDM18v0wJS3QPpADX41HzgN+BDYp92V1fdUmwoHRZFoPaFi6JyIJQqmBwgsNSDSCfwAeJnPhVAkACDCwkVgCAYCL97pO/cGKAjbiUt+iso4IHKMFvNmtQUh3bxFIPw+41iU2d73kYgHjHw8bMX4eoZXbjgFw+h8hJq4nRhvoCLBEBgqxWxHieDmYUJYGZMh6UHpizkKbC35uJQXbohiMlJWccTMOivOdjfcNhkXpctfCWtHcrBS5tbrnagwEhBNKUDi+IRTDMN9jOfwHkGN6trOCNmosPU2SqXPgQ6RhwX22oNDDthVUPri0Orym21OrbXKXByh/vAdTHYmi2sdQ853cB5gkmQHRR5uOFjMJkoky5LGuRsqFZwoNkQmgB+vVRFSqArqgMLIlHMjlqMYWDH0sn+V8PLBUB4zWteAytq4dzly3HGGWdi0eLFONTfj+3bt2Hd+vWwTBPr1j+CAQIItZKwX+ago79Rw8Z6GQ0plPRvb3JwQLl2mftOGgZe68Rw/8c/g4cfuo+ZG1HaRNOBmZ0FJDVgrFJFLhHFwp4O9Ha1oZDPI5fLIpXOMH8DIxJF065jaHAQJw/1I5ehLowGIrEoembPRzzbiXqjgsrYCDTbRjydRiyZYn0DAiEgUK+XsPOpXfj5XffjxGgRjWYDMcuE59hIWgbr8JjL5HDu5a/A0rVXYmseuN8ZxFGHaj04iyABB08RydQYJ92lS4UUJIa7mXJASABBdkSUZYJSnMcAiPQwEBl6mfdX6XzZn4GTPJzGkMfgLa9VLYF476W4MdRbQWoXZJOlwCI5qDiQACNwHqF/k2mCybpAct0Cf0f9pk/SHVFoD6QHguwb4WsoBFPB/BMuvoWMkqY0CM9b1Jo68O91BFa35/C5lWciY5o49+f3v2TMkwggrBYAgec0PVg6cGlOQ5ZUcuLDhXoBkb+r6mF7xfFrzdnc5gHHGx42lZsYd4lqF7S0TBuI3L2coAN+gIV/cSYBGAQoIN+Bc+McDNDqtRDRsIbaMbe4HtK1SaL8kXIdfU1bLuha3iMx2XvArcUyY0QkLOIbci5FggPWuEYDyCfhokQcmYjhVyKwFMkkFRtiWmfHotXoo9Uynm42uYqcfYJx5Pl/IAkNK2JxTLNM6BSBPQ9rYil0uR5esXYtKpUy3vHOd+GXt9+G4ydO4JOf/Efs3bsH//Wtb2H27Nn48c0/xdN2HevrpZDks+m62Fgr46BNqYbg/JNpDni9vwgqGtBmGLi2pOPW6z+Pxzc9jIhBqZYImo065vV2IhWNYmhkFJahYV53Ht35LNpzWRTyOaSzWaSoV0LERKVcwrGjR7Bn6w5W5UCBp7O3B2euuhD5QidqtTHUx4owDd6OmPaNxMmUiPt0U1llpTyKPTv34Od3349jIyMsBUBphnq9jrgO9La3wcpmEE214Zw3vQE9ixZhR6KOBxpDqHoN1An4TMIcUHqFwGWrIFEdK/l390CWPz0R3FWQEARV/g7x36Xwal2usFUXRSb+U6oAJECQzyFo6BQAApVBkOfl18VBz6kAAtc1SAjEX8OJ7aYnAgR5H37FQgtgkMJEns0R1ROX/HQKIPxeI9jUyZ73EfjfyxbgPUvm4O8f2Yof9x9/3s/3QjjByjbOIMhAZ+keVqV1dMnGTNBwslhCvdHA9Pa2IIBqGraOO9hZdRklPOq42FWx0V/3oIulEAVQv9udNOsRVG743oMceFBNEFgiEzU/N2rggqSFV6UtRBoNFhwItJCFL3UTJGU9gQQKGJ5h4HHbxZGm6scfDs40mfU1bDxSrYJMkEPgQARxKZ6U+Wiyh74gkWC+BNJSOlx7wLle7uTIqxXo72GAwCMwwx0eMQVBySYFqhkRE0ujcbQZEUyPmLgklsL3v/tdfOPrX0d3TzcOHz6MWrWGZCqJ9vZ2jAyP4CMf+QguvXItnqiXsT8EBLgV8XG7yVINJNo7lSBRggP2JIQmIW+YeNPRKm68/jM4cGCfqKBwmYbgrHkz0VFoR6PRwPDwSXRmEujIZNGWiqGrvQ2FQgdSWVpxuyiXxzE2VsSx/iM4OTSCk4NFFNoLOH/Vuejs7kC1NIZmqYxcRztiySRiUQvRTBesRBwa+S/YNjvnk09uxm33PMRae+sRDbV6E9VqDZmogc50Epn2LvTOX4rRhA7tkuWYP2c+BgwbA5Emdrkl1ARPwMGsfObCgshnqVq1L/x5Ebiw92eEsl9psiTSCZI9oOodWTooeaygioELFLlgUFY28BPzygT+YgReBEIRo5RMsmvxUxhiT2mkJISNaokjbSG7OLZqCVqBDq9EmBwgyPMykaVfScHPr1Y6tAAEmdt6IUx1U9cwNQK//Qjc+YoLkY9Z+MAj27B+YPi3P+AL/Air2tqwuqPHF6rNjWs4K0nCQWBwZAzFag137+nDWKmMD119GQsStXqDde+DbuDOUQc7KgQUHBQZ9xhQ11IGyL/jA8H/DNiCYHjC1QRh4SDf57ruDLqGjmPH9u0oFAoYGxvDqgsuwAP334/FS5bg+LHjsJsNlv/uPWc5HqnUhe/BxIdAgZPcDR8tV3DMIY2+YA58cCAgg68747MnMQnnxePoJGfBFk8DIXfzwQE/lMccDjmDEGYOeIpdFo4LUAEwXcUSK4a5loULY0kUShXGFNxxxx0YGRnhTZJ0DT3d3Xj96/8Yb37LW3AiomNDvQRyKpBaEjnSxAo9WiviYLM+uSBRuS4JDmj8ZxkxXHOohI+9+12wmXBOQ0WUFs7u6cSiGTMYqzMwNIBMPIJsOg1qhtbdnkdPVzvy+Sxq9Toq1Rrr2mhFLJwYGsXYWAkjJ08il0qit7cLiVgUjVIZiXQS7TOmA14TZjSFeLYLesSE69oojY3ikUc24L6NT3IjLs9DEzrGRseQMIH2dALdbXksXf0yzD5jGZ4cO4atZhXZMxZgrD2BAbfOxJsqOGAjzkpzA9AWwIPgWUktjEMAQTE7kqWFLEwqHQ2lLoABTNncSAZ1wVe15v2l6ZDqgeATdkqJIg/UAYiQx5HCR1l5wAO91A8I+bGwKZUgQDVrkvv7AEGwCxxgSE8FCQb48dR20/7+Ejxc8lOqYphKMbzA5/+py/s1R+DsfAY3r12FOw4dx8c27sQIUdUv4s+qfBtWd3axOc3UgeUpDTOjGkaKRdzy5B48UvIwNj6OaW4V//DqNbAiJu7Y1Y8lHVks6GrDgxUd3zrB2xn7BeKsQU4ABoRNvaJSkAP6zMyBr6wHMC2i4Z+n53F831786le/QiwWQ9/BPlz1yldi/bp1WLJ0KY4dO4rR4WFcePHFWL56NR6v1HHEliyCGjZ56KQgs7fRxJZqjTeKYpsEIUJ6KHCVP2/2Q/sxM6V4DF0RUhKIQDKJOJIfrhUg8KAkpmxev66kYKS2gao6FloxnBdP4BwrgbZyDfv37mU9Dui6DV1He0cH5i9ciGErwtgD6uoohZ/qK0vXMeo0cXt5mHfSUDQgkzEH/N81nBmJ4+xHduKf/s+HoUcskMlzpTbOvAzIenlmTxcKuTzq4yPoyCWRzaQBx0E+ncCsaZ1oK+RRHK/Adly053NIptOouzrrrWBXyrCbNSTTSXR0drAOj7QvaROa5SKqxVGk26fDiCZY+ePY4BBuu+dB7DxygqcKqPmTB5wcGkKz0UQhZWFmPo2emfNw3mVr0bVoEbbqFTzZDgwnDdQ8F2XYsAVzIAWJknD3SxkFQJTjJwtNSPzq7c+IfgocCk5MMSieBn7lANc+yHw/L3Pk71PgXRAI/qQVi0wxsDSLeFtCzZFCaY5AL+B7GYjXkpcutgIEIaz0hZZBZcWpGAQfVMjztoCiKYDwIg4SU7cWHoFVnXl857IV+OjjO/Gjp4+8qIdnZVsbLuzsYlNI2gBWpHW0m8BHf3gHNjcjaMYS0CkgOA20JaL40svPwX89dQx3HjyJqzJNXHT55fjUkbrfHc/36m8RJPKSSCnr46t1/jkVcyADOqeAVyVM/H1XGt/4ylexcuVK7Nu3n+29aeNGrL1yLfbv24+rX3M1q4+/4TOfxcc+eT222wQAyI+gdU0t19Zg9sSPVKoYJiDBOiQKJkG0MabWeho1RlJKAemayeFwVTyBAjkuMgFcGIDIn4IUQwO2EADK/haTgQNBKrN7I6HigmgMK2MJ9EYsnGHFkRb5bTr+uOZhZ6OGfpvcGkX/hZACQYywWIreWx1hFQ3yvKogUWUOaC/yeLjGagfufACf++T1zFY5Eomi3qyxigS6LysSRTadRFR3cdYcMknKMOtlqkaYP6MHmXwKA4OjqFXraEvnEI3FEY+nYcazSCaTSFDL5ggQjRIb5cJxyVvBhteo48ju7ci198CIp9GoN/H0gQP48b3r0NAsxCwLTcdmvhCjlJ5o2IzxyiVj6M6msXDpUpx9yRUonLEI/YaNZiqKrcY4nnCGQU3AeekjF8UyrYBfPhu8F2yFLFqVSwsud1+W1Va0tmlmcEopfaTDBWWAnO3gGh41xaAE5RaWgfIQdF2S12Lv36Rto4N0AA/QCrMg0hiyBwOt9gMPBw5uAi1EAGxaezCEPRU40JBGSYHJk2r5LNIlUwzCizpuvKRvro3KyVYsxpUzu/HW+zbikYGRF+14rMy34cLuTjYhZQwN56V1fPP2+/HocAN1FuW4OFG2a87ELRY83rywgJctW4ytdQ3XH6pDpxbNIkhJul6mEyZLF0iAMJnmICxe5NPzxUkLH+zMYPOjj2LTxk2YM3cuzlx2Fn5155246qqrsH//fqRSKTx4/72YPq0Lr/2TN2FLzcEeBhDkkrk1tcEn78erVVZlIFdozBCKNhXgIAxiBJtAja2YcDHBzJRasg3++8IYhFoZ+9nxhW5diAED5iDMqMg1oywbPTeWwAIrxp5RVNcR03VWlUCrYlEHeApBZnBcuj7GIlSGuRlWSJAoU0N8e8PTcGE0g9eWgK9/5lO4+/77ACMCKxIjd2XUa9QIyYVtO2g2HHTmUlizZDYKHQUGEFzXwZyZ3ci159F3oB/bt+1DMpVCOh3DvHkL0BgtIZXKI5PMIJXLwkpGYUQNmDGqkgA03UFtcADlkVFEkmmMDo/hjoc24MDgGOvPQF0lySSq0bBRqVWYjiMXNVgb6nShA5oVQfvMmYjPn4WBpIaRy89CORfnOhsB0qQJUhgcBABBphVkVQ/pCNwDef6cfaGfeBd8s6EgP0/b8WZGfBsp5GN/F49FZRB84aEg4uQbKyshwtUOgW2zLypt8WaQlRMSINApVbFhq+mS2k2SX540b9I4UGmpYJA6CH7cAOwwYS5tu+bm+6d8EF60YWPqxlZ15PG5VUvRtB28+b5NOMlK4l58H9IgXNTdySaEmAacl9Zw873r8f0jFaYzoEm17uk8+DsO0m4TbzurF9esWMxWcneP2fjycQEQxETC6FpF9BUetWdLK8hJmq3t+FSleVhgGfh0dxqx4l5oVhu8eIE56snJTOb/MboPKO5HNdaNjaklrJqBZ1AnggN5XceaTayvVpn4TTIdQkrWwnAErIaYQ5km4YJ4Am2KJiFg8Lm+4DEGEOr+yj3MHARBiZ+Tf0TIZjNzHAZWxpOYRjQ/BVC/iRZnZZ75I/LrQurwi8qgaAst8vGCGZHPiwBNu2HhrV4ae753E370/e9hZHwcDgxEzDhjEhp1biZGwtVms4F0zMKaxbMwY3o3N4jyPHR3F5gAsTg6jk1P7IaWyrDKhfNXr0auoxOe3UB9bARuuQqnWkbxyFHUauMsVdUzqx0ERCujJdbaefOTu7B++140dBMRy4Lruuw6yuUKK3ekustU1ELK1HD2Oeeid8EijM3qwLIzl+OJTg0b3CGUiZ3giSLFBOnUgkTalrWTZoCCPxd7f05Yj0uDjqC0cFIGwU8jyOcp39KguoE7D/JVN2MJQk2agoqDUM8FJWWhAgQZ1OV37DdIpCgkq+EH9pDJUrhCgr1/PmMhAQL/LZJtqOU1+6kTX0oj9AprbiajpBfnpPniCwNTd/SbjMCa7gI+f8EZePz4ED6wYQeazzYX/yYn+QPvs6otj9XdlGLgNPkZCQOx0hC+t2ErIok4dg3VsGu4Cs+2Md0CXnfGTLxq2XzmXEd73HC4ig0V3sRHhCJuLCciHVNrh3LsPPxNzhxMBg74Kply8p+blse84nbolQF45cOAkYYWJ/2EAa8xDDSL0GI5uPEODHsm1icX+cLJIOzyMKGGZWqmdOf4OEpkJSzuhEEKtlkrsFAemNASZHUd58akJoH3bpChm4KLZBAYAPC1Geq98tELmAMl8Iux6zQiDCRkdIPV8Msq/nBiQ32ZJr6sNJnvbI5jc32cQ6YWcEB7kxfDtfECZmzeg6/882fxdH8fqg3ivHUYEZM1XSLmgDQQtVoV9XoNEV3DRYtmYv7MHlimwVb46WwSHR0F6JqB44dOYLxoM5Axa/4CzDrvbNaNkjwP7KYNS3NQGhjAwe1PYf+O7Vhx4RIUOjvRGC/j6JHjuPfhTdh7dBAwLcacUBloRDdY6oIXKWqsN0U8aqItm8Gyc1YACQtnXnkFCmcvxQ3Vp5j+gO55chOkYKxkWoHGghgc6WVB3zf35UOGRFKM6OsJlJw+F/ZJnYFYYftvUwAwQpUDoi8DD76ybDFIG/DzBJ4k7E0WAEBWFvAmSvINp8DP3/WJAEFYPodW/2qbZ/GG+S6KMr3A/1QFigG7EaQ8BIMwJVL8A8/vU6d/nkfgHfN68YmVS/G9vYeZaFHSg8/zaX9vh2dVDN0dfsjMRDRclDaYUGywWMT2wycxWK5jdnsec7vaMS2fRjxqsbC5tezg00eqzLlPBmBFU9Wyun0umgN52yJghnLDwKpEFP+nMw2jMQatchyoDgLVkzxYJjrhRduBeBtsM4UdTQ076rzXw6TgQHGDpP03VitMsMjDTSBIDO8rfhK2y4HzHkAgYXksji7T8ksgZYXCI1XyIWjw0rYWQaKqOeClpv5IhgSTlGM/20oy4SL1kFLhxcSXZXIkS+emVtCkReBbqOPDj3KemcJbyxF8/h8+hic2bmDlozWbRiXCqla0iMEoZZfEu66NKgVpz8WyuT1YOqML+XSSmTrFEhY6Cm1IJGKojVdRKzUR0ag0swdmOoVms87+Y/l1u4YodYFsNmBYTbT15llzqOLQIHZt24N71m3EQKXBALrtujAMg+kP2B24DnOSpLFOWhGYhoWunmmYN38R0tdcjsF57XjSHUHJIxnqr6c5kOBAikqb+/O8KkEIEPkg8pJFHpJlLwLK7/OmTpK7kikHtQukrFLwexzQuKoMggQJsiukYBrYs2/xYlBpfr+HQ6iJlAQEQYlmWCeh6hkEOBGVGezOxC+SNEliaQTJZEzitDgFEH5vU/jUif6QI0Arh59fcT7OKuTw1V0H8Zkte/+Ql/M7P7cPEOgXnvnzeOixDFyUCYyRmAaBctMG5dr5GvtE08OH+soYp5a/fjpB2AuHnAnD9P6pNQdyuyCtwOhWBSTQiu5tuRTemE9xxoNy8H4rZRIS6mxGPtp0cH9Z7UEgA6ZgDsS98gme38+g3cSd5XEmQuMMhwosgnuQ/gVs1eRfGw8QlG5YHU8gJ1pF03fETtxbKbE2zKcCB2pagV0Rc4zk0IGp0HXOPFD54xXJLFLCXloa14RfihZwIGKXZENKjo2H66MYdpqhe6Tjk7Pjh7OzsfGb38bXv/QFRCIGDApEpHmwqR6QWAQLtt2ETfu7HtMBEGHVIOMAACAASURBVOXf1ZbEirnTMb0zj0QyhmjMRCGdRjqbYOCiUnXRrLmIIobuGYsRjcbgejZ0+p/TQMOtAlYTVtZENGrBrtVwtK8fmx7figee2IE6TNQchw8KuxSOknRdY+9lwrKQS5og6BpJJPG29/wNavkMbpxvIxWN45hXZkH1uQoSJThgYZClzFzYewvC1EjtpSBBQrhxEgcIQQUDr17gK3nGAPkr90CnwAFP0OMg6MAY7Bes3INAL9mBwOpYAkguXJTOmFxcyfeTlQ2BDiJgDzgA4dsGQslAR6HqG6QVs7odGzOuQZhiEH7nM/bUAV9wI0AT50+uOB/ntGfx6c178K09/WiqPVpfcFf83C/IBwgyyIvlSVdEx5kp6hnAPRFoFUUruKrjYVfVxX8P1jDQcOC0gIOwwFCGOZF8UIL95MLFycGBui0V2706HcOVmTjajcCGmfYkJf9h28amalNJIrSAAz/BIK6NVStQ3wgPPyqO8QZLobSC+nMwrirQUUebQMKKeBxpjYSEHnY3auizyWy6NRkQTivIFA0FItlsSg31bBWnAcutJBZHo6Lb0GTPWdnLBwfBd+SsuKVRwm674u8sNRFk+fxBvRPvfetbUBk6idGxEdY3wTRM1JjLtQ5DN5kYsNlscoMpD6wfQyJmYMn0bizobUchn0Q6GWPCxHw6hVgiARhUeaDDadQRaQCWEYVuWKxUIJpJIJqIwLA0mKYB19CZs+L+Xftw14OPYEf/CXhmDJVanZkocZMjjQGTGI2F5yIRtZCwTORSlPrysPbq12P5xZfgB7MdNHQXm21yX2xlVvjPviBR0RyIsM/2YW6G9Oe+Np9BkGV9kkGQVQRsPxaAAwaBxoiuWHZSlOBAvmYBgxAwEFw/wEHQZBUMXE0hgIOiX+CgUgAEhXmQ7AZf93Nxrp8aUdpE89SG2mxKcCOCGuQVDOK8yvGl46PcX1vzk/un2j0/93l4asvTfARmpeL4/IVnYnl7Ftdv2o3/3nPoNL8jfvkrC21Y3dMRuhdpAETNenosaojEJ4Unqzb6ay62VWxQIyDZjfA3FySqwTsAB3L9Iy8qDCY4mzHTNHBWPIoctZtm/Ru4TmGczWA+sSsO4dMByn3KRC2/Bpo0f1kqYtilUC7DdSs44JMq9xrg24RlhfzwZDGdEgChIbzzZFZYBR8qcyD7BcSgI24YDFCUHIenPBTfBDrua1Jt/MyTtav0B00UOLQERQoMTzXGsaUxzsszOSXCmly9zMpi+hN78IMb/hknBwdQHBtDxNDZKp0BYi1C3TLgODYcGicmqvNgOzYScYuVwc7v6cCMzgw68llkcmnksmlkMllYsQQiZgwutYsW9LSuu4hYJH60WJCmB0upA8dzURoewcaNW3Dng49jsEr+BTozXaKmVbqhsR4MZNIUNU3eFVTXEbciyESjzJRpzvz5eP2b344TCzvwaKyCTe4Qaz+tQDwfHCh9PX3NAQujNC7s5eCeiMQgcBfEIADzv/MnGc736xMqGPy3SlQc+EoB+YKTrbTSHloKDGUqwjdFagn80nlxAoMgDZbo+thGHByw6/BtoNXeD0LOKy2YhShRPi/aT62EkOdV2zz7wGoKILwo4sPUTfwaI7Aom8INFyzFgkwS//HUQfz7jqd/jb1fmJsSQLigp4NRp+wj2hTL0Cdle6NND7cXG6AQIUMj21xM7HxXaZb0XNIKbA95Ui7SaxEznro8Uk7IQU45b/BeCdQNUvoM8IOLtEKIOZA/BCtKooM316p4qsF6IU54WGHBYpBbFoPm38dEE6SWiK2IINkqUTADb+ychkWJNOueSWCHPqTop06I942cwMNF7upJV/byRAadBreaDp8/fNkTWQ4uNd/XrGBjo8iOzfCBYFGuiLehcfMdeOLmn2H7jqfY2SKMPqJtdFY14ngG0w5Q6HQEfUQr+kw6jqimIZewML09i+ldBXR3tqHQnkdbro01byKAAM1kzZoMAgrUzjmis2IU+ZToepr1OoZOnsRd9z6ChzbvQN0hqttgts7UmMqyIqyiRqdnDY8xB47jMDo8S+9AOgPdNHDFK1+LM9ZchLvm6NjoDIU6O9JItfoc+JoD8Uw4c8DBAXvn9xY4m+ALBflV+zbLLBBLHQkHQvSRSn8JRNTtVYBBbZ758eR+/JeLAwRpxSz7JwSgl2siePBuZRDYyMrGUMpxpP6A/97K/SRACEAEI47EfmGAoHSUlFoFJdeorfnJA1MMwoRpZOqLF/sITEvEcPOV5yFnmbjpwFFct3H3aX3LKwt5XNgjRIoKOFADD03DT5abeKpGNjNB8Ax8DiZbafNw9sw+BzJEcnCgag6eDRz4NRNiNiWZ2upEDNNJsOavmkXYadEcBAyDvEseOA83G7ivUmYpFT+sy94KIRJCcPdiLOh01IGRCbfEuSVtH0CJMKshBYkLE0l8eNYCVJ0mvnqsHxXyERDHNQQT8i/zzsJDY4P46tEDKDoOZkUsXJTIiK0mghk28pPS6fwmjtk1bKgXMU4aAAEOaLxfHmuDd/Od2HLr7di8dQtcR1RWkDaFWj0z50iqYmgw1oCYfk3X2fV2F3KgPh4kXkxHI+jKZ9A7rYDZ07rR0dGFbK4NsViKsQWGaUI3uLCQbpG1ttA9OE4DTtNGrVpCf98x/ODWe3HwGDWxBhq2zeyeidGwIgbiiRjsBu/GSWmHFDVuavCSx0hER4GYsUuvQPeFy3Hi3Fm41zmOMoKqu2cDB67QgfhPjf6yhwBCEKgDNoF/Jw2UeD5eMCXCkEjVIMhgz48lygJdYa4UAgi85kJ6L6ipAR8wCIDSChACloAfP+jPIKsiWrUOXIPA7lcBHAxICYAghZA+YBCljaoVMwdEpEGYAgindWCYuvjfbgSeesPLkDANfHHbAfzb9qdFTu+3O+YfYm8fIMhuiJMEQprI7xxtYIhEYi0ivlahnqrK/20Eia1phZa1MftRiv54dQBwTtTC4qglVP6nAgd+6OfHEG2b6e+jtoPbxouc7g4ggkgrTBaI+Xe8a6XIzU4wQVLBRDghkYuYuGv5anzj2EF85UiYjeJMBD8+MQpv7OjFJdkCru/bheFGA3+cKfBzqkBAnOqZwAEdb8xp4tHGKE46TXbtdFUES66Mt8P76Z144Ds34eDBA8wDhK+iNVa+yECCQWZJTZZmIJMknfXkAGZ0diIZ1VGv1eHUa4zuz6WTWDBrBmZM70FX9zTkCCTE49AdIBpPwDMtaB7pRchFsY56vYpKeRyVUhG/XPck7npoEww6PIkkGw2WZqC0gmFoDCREpYulbsDSDUxry8KitEUsio7uXsBKYOn/eC3mnb8C/1TfATLU5s+Lv6WBCRJ/E1RBoi/sY9FQANk9nYJBoO3DK3tVJ6ACBMkesMAp3jfJGnAPBFG2yHMZfn5fGhyp6QDBL/DnLn5B/LRGC4PA9+O8IG1PcIwFeHm+llQJZx7U9AO9E/zDXBjVLpChfhDSHCpgUhjwmQIIf4jpfOqcL5QRyFgRfP/lK7A4l8INW/bh23sOoUo2c6fZ5/wC+SC082A5ae7eQ911cftoAw22SgqbILEKhxDVzYPaM/scyOmSB7jWaoVnYg/kylwen//MJ/g5ERPnJaKwhMJdTu38kaiaA74ulOBA/lRxXNxSKnKCQSFFJhck8vvkQ8bbPvt9DfxUiXwZ2HTt+xzQTzOicfxk2Up85fABfPNYf2i82OknMADA27tnYlkig797ehv+KNmGGKPpxTmeIzggMFXxHKyrj7IGRhwceIw1eUd8Grb829fwxN134eiRQ2g6HtMe0HCSGLBBngWxBDSDTIrG4dhkWKQzYeH0ng4U0kk0603Ua1XYjRrMiI58KoUZ03owd/Ys9PTMRCafhldvMoBgJuOA68C2q6hVyxgfH8PI6Cj27D3AAEKpzAEMLc/tJjVn4g6XdD5Tp/80xh4Y9KdlIp+IImPpSOQLiCXSaOom3vS3H4A7vxefqm0F6UEkOOAAIfA5YGt+RZAYlKTyd4f5IOzpEBoEWeETGB5Jml4KFKWDogzQnEEI9AtBR0QJZEV/BP815dvz/ZVeDUpJpQo0pGiytcSRNmeJGLHaV1MOUiwpNQ4qQJDn5QBBXgd/i1s9EMJdIAVguPjHD0w1azrNgsHU5f5uR2BuOoGPn7sAa3oKuHFXP27adwT7xrnL3OnyWcVSDO2+hk62fVYjJK2s7yk2mSrf11Ox2UWCA3V1/WxpBRGsQ0GwNW2hBtbWkQwfnwVp0eOhwzBwWTIJK0wBtIADuUcgMZT9D+uei5+WiowN4tS7aMt8SkEiv26/ZTML0ioskfc10SHxXxeciT2VMr5MzEFLgygRMia8QuQb+am5S7G5PIaBUhGdBndWlAUSz8YcSHDVIIBQG8ERl0so6ZPRNLzV7MBtH/oYntryBMaLRQYMpKKdxIXUdInKE0k0MF4u85DHxIEm5s7oQS6TYLffbDRQZc2YGqA0SSaRQFd7ATOn96K9vcBadZMY0YpF2bNrNMooj5cwMlbEoWMnsPfAYRwaLGK8SikDDsBI78CcDKhRlaHBjFggES2BkKgVQTwW5ZbL8RhiiTh000Q0lsD7PvRR2Etn4fr6k6iyTgyS4xL24XLdLp8B0xyIN4r12AjMlew9nUIPIN6hlpU8bcudBsMWy/SzkOAGlQdK3p+LPfkxuSBQ9nIIwAP7V8EA8NcsMDKS8JOBAfHK+QyCclyfjRBpBP7kw+2b5TYS8EiAIFs6S8ZD7ieBidqumulqLqIUAz3Aqc/UCLyER4CqG14zvQN/u3w+tg6O4fv7j+KHB46dNiOysp0DhGAi1HDJtDyOV+rYNVpmoXeg6WLdeNNvneyr/ENUPA/8z84ciOnsOQsS+SSmChonVjXwK8poOq4kox6qM1eX1oJhkBNiuGVUkAKgMs6fjY/xxkeK1kI9+4QqBJEKeCbNgSQkJKV9QSaHD89aiNdt3xDAG9Z2OEgrqC9QcGxgViyO7y+9AB/c+ThmR2Ih2+BgHwlMggck0zB0/VTS+XB9BP1OXQyJh3Ytglc34njshi9jw7oHMDY6CpMqGARjRACBXSHl+M0oqs06u167YSOVjGHh7OnIZhKImRZLPxDDUK1WWdBOWBEkYhaSUROpZIJVIpC5USQSYX/qhsfKJkulcZwcKeHEwDB2Hx3GeIWujz8J1+GleVQ9oVGKwYwgSmJHnUojI7CiJmKGhq50AoiYqHk6ErEYrv3Td6L36svw+fp2DHhUbsrf01YTpAmCRKY9cZUKEmAygCCDOm/y9WsABLGqZ6kCv6ohCPCygkFNUQQrfKUfhBAgBr0U+COVXSBlwOcsgmDrlPSIZA/8+5D7+m2tOYMg9QdqRYNMqzCNRKg7JaBd/OMHpxiE0yYMTF3o8zkCtGItxCw88rqLULVdfG7zXnxv31EWaF7on5XtOQYQDJnv1nW8eUEPUhEDg/UGHjo2gsdHylhfVhgEPiO0fJ4Lc/DsPgdieguWxWJCZ5PepMK7YIwTmoarMilEdVrBiQsMgQMebli+1TdzCsI/BaBfjBdRocY8oQqLYJvfRJCoDhT5HHxs1iLsKxfx/cFjvIpAVGbSmvDHZ6zCZw7uxKZy0QdFTKWuBx6Ljy1/OW4fOIQ9xVE+Os8gSGTwymd++FjRvT1UG0GfU2f7UtfITs3AslEbQ9+9Fdsf34C9+/YwQSDTB1DnRM2EYVK5gc5bLbs2HNtBrdZkwGDJ3Nno6MjBIidJ18F4ZRyNShlRy0JbKoFMMsp0CWTDTJ9oLAozGkMsFkVEB9MeVCs1DI+MY9eBPmzZdxw1m9sjk9+BR9UTdpNsGVhlRYSlGSi1QCwKVVsQCDExLZ2AYVkgaJJKpnHBy9Zi+Tv+BP9a34EjXo2XRIrfS57KIfMkub4X7AJ7Z1wGbtRPczdPMUiangdVkarymyUJAycRjHkqgwdQtQukSstzBiFIPwQtmoNjy8Cs9mSQAZpDHmmKJFJ8QoOgaiN8UaWsalD2k8wFT5GIzpCTCBTpXKpZU9ijQXF4vPgnD3p9UwzCC33+n7q+3+MI9CZj+NalyzA3k8S+kXH82YNPYqjWZOVkL9TPqvYcVvdQfTcLJb5k76oZ7ZhDpWuGgc3D4/js/hM4Wm8wnUW4/J6vwKX7Hw9Y8m6D1bnaeOmZNQecYeCfIDC3ChJVMaTcjpiDV2dSiLNeBWJ3FWCIu+NHnZgKoHK9O8bHMeaRBVDrM+M/twoSacJmefIQYpKkL78LP9EgTJCum7MY3z7Rj33VMr9LRZC4+byXs+/+3/E+fGegHydY2aU4DgtkHq7N9+ANHTPxs2MHf21wQCNDgsQHa8Poc8nqWENEA/IuMGuwjGlbD+KhW27B9h3bGHAhDoGisuPZSJDhEXSWQqCgXK43WFfF9nwGyxbOQUd3OxLRJFupFseLqFfryGbS6GjLoFBII5NMIB6LMYdGarpElQzUV4G6Q1bHS6hVGxg4OYzNW3di/faDMHWdtRFvNOmd01mLZ6qsoD4QxCJQiiEeMznTwcSLESya1YtisYSyC0yfPhPLL1qDuX/2OnyrsRsnPLrf4N3iDokcMLBArggSWdpIeQuZYG9Ppy/0C36fZb8F3s0kUPTzd8K3QPbTAkFOKBApkumTXIXzvJaELFKrIFf4dN5ApKgcP9SDIWjSJK+Bpz2kC3hQyaAyCKwKR3FZpHs5VQVDSHypMAh+e+g1P35wyknxhTrrT13XH2wE0oaBty7oxTuXzkR7LIqPPfoUNg2XsGt0fELI+YNdpHLilYUcLpxWEPppPxSxa81ZEZzXkcOMVAz5qImfHBrCXUMl7BqvMotlmfyeHByEQiNfqyiCRAkSJlYrBME2oNZFvf4ETUAAImjapXz31ZkUiEkIQIxcUfG8Mt/DYy2TyXSIfAfoW1pbFm0bt1Mu3OWlhq0mSFIbcGpBYjB+KsHC4IJ0SARw3dzF+O6JfuytUB5fFSR62HzeFf7TIdfDNVvuR5VodQEO6B8XRBP4pznn4AdH9rUwOWGg0socSPhHosSHasPodxrs/DEdyNZtdNU8rNo3iG984Qs4cvQIs1KOReNwnCaj9ikQk6siAQBHc1Gt1pjVcjpuYtmieZg2rQuZdJohnuHRIlzHRaG9gPa2DNryOeRzOZYKIGtkaq5EJ+fVEFU0xsdZ86WTJ09i/WNPYN3Wpxk7QExFo+lA04LtXdeDSekJtsSnv5vsWKTRWDJ/LkrFEkYrNZy3+iJc8cZr0besCz9tHkTNk7p8LkjkhQNci6CyMLyyg4NIzqEI5ml3p88gqJoBtq3CIEiGQq7q6V3iPRjkGxQ0axJSHt8SmSNKzjaowkK5aqcLk0yAXL0HwZprHyQDwd5GpfxS9oEIixM5sJFAgAME1RuB/8ZM5rHAARH/97B7I7V7phTDFIPwQpjjp67hBTgCr5rZiQXZJP522RxsHy7hnsODuHH3YYyw2u0XzodSDKumtQdd7vwgGtDxHYkYykYEb+ptY5PlQ0Ml/OrEKB4bq/j07KnLEkVQ1ogmDnornLpSQQZ9Pru10ucsJ95iZSSnXQIIr0qnWK+CwHQpuA86IlXyzzZN9Jgm8iSw0/gRxz0XA46DW4pjWFel3n/yEwR9+obrH3/9roxs3ShSAdfNWcIYhANVAghhpkIyCLvLRe59cOxpUB/EYD0LLI0l8cnZy/CjI/tbgNDkmgP5rTwTmSRTiuGIU2fjRNUQc+uAd/Aozh9p4Juf/xccP36CDUA6nYLtUimiwTo3Rk0LruPAJItj1+PuhgYwu7cDC+bNQjaXY0ZIw6Nj8FwDnV0daG/LI5NKIZNJI5mMw4gIrwoCYgwANGBTZ8hKDUPDw3jgwUfx6I6nEYvF2DmpWoL1NaBeICRqbDbZfSfjFjxKP1CLBh2IeB4WLZjHtAwNx8Wfv/evkH3lBbgpchhH/j977wFux1mdC7/TZ3Y7vavLqrZluQhJLhQbUxwnQDAQwk9oAZILJD+QnpDk5l5+EpLcJCSBJEASmuncCyEQ22Dci6xiWZas3nV0ett19rT7rPXNt2f20ZE55idBwN5wLJ2t2TPffDN71vut9a73DatxzihdHhNLZgHgmgmJEmpJXU26TuGhfrFt4+YVgZ7LII0WQenBkKT9G71N8wBCoyNgns1zM0BIiIs8wjRAaACTWHY5JjISQODiTHzBGx4Mcfah0dWQEjiiTdPdDmlVRgl0eJt5HQ1poMTAOc5+MAehRVK8dB70rZFcejNAweS2pb1467ol2NzTjicn53CmWMVvPnYA9UvEy2FLdzu2DcYmNPH6SK655XPQDSN8a7aOtXkbW9qzePvyHoy5Hs7V6viVfSdSJQWZNZAhKe78XrQI0rODg/iR2xRSRXY/KRi8LJ8DqSqKDILsbxD3hglgo2VhjWmy6t90KcLe43X0tWtYM6Rzz/05z8Pn5mbwUKWMoFHbjyvPTeBAhpD0n/NzDnEpQ+6HHshKhP++cgO+MHYGhyrFeTdthJ3X3oLvTo/in84fx6laFeQvmQYH9IE712/FrOvi/onhlGrkwuCAH9rpMgcF2CjEg+40RrjEEMFRNdzgWTj69btwZe8gvv6xf8TpM6fYqjmbzXIQJn5Gza3D0lWh+aFoyNkWCyYpUYCBnjasWrEUg4OD0E0bU7Nz8L0Qvf296OnsQNbJcMAv5BwYpsVKjBFH9hD1Wg1BGKBeq2J8fBL33fcwdh86BV03UK0J9cTAqwkvCEVBhbaPQuRscrZUEXge8xWIALl+7TqcHz6PzdduwZt//dfxtz0jOBGV4zKfEGZiw6ZYQ0KAA5rVCzkHMnNAdxHJQfmHB2N5acFDiHcTX56kxLBwi6PULhCZAc5MxC2LzE9IlRhEcJaaBFIrISkL8J0dr9zTLo6SRyABgvhqxKBCGkQ1AQzZWil5FbL1N8WJiD/XnEGYX9qI9Rv46y/0E1oA4dKLR60RXYIzQF89S1Nxx8p+/O61a5DVdVT8AJ8+eBp/ve8kavRk+BG+ntfdhm2DpIMg0+/xijuON1yzVRScDoAPXbmC++WtWGdgx9Qc3rn/1AVBLl5TXVBWaKzJ0/n3pvA1n3OQ3nU6zInt+CGpCma2eEV4UTaDAVZTTNwSRJCMsMowscVx4NUj3Lunhn+9p8QBmxz0Nq0w8Y7bchjo0nDe9/Fnk2M4WncRksIwt3PG8xMb+iT8CDnmBcBBypUxfSbvHFyOWzt68doDO1Jvi/1nVY3JrW4DGMjjCnBBwW331S/FXx99Cj6z7BdXVhCzI1LdpchjHYTRoM4ZlR5Vx+qJCs7f9ziWFTqx/57v4aknd6LO5kgWwoAyCCoHZRJtotJDSJbLSgRLp38ButoKWLFsAMtWrkAmk0exXOHSQFdnBzo725HP5LgskMuYMC0bKtk1KwF8cnKsunyPUSZh+MxpPP7YE9h96Cx3W7iui87OblTmirxSN0whmlStEbgBLIMIk6EACDlqpxxgKeh3v+/9KL5wA76knEYxFDqCwngp6UyYDw5khoWOI4oRIkwTOKCXd2hQvNsgFMYOjXE5QGD+xINBlgDEviRXQQhPJToITPFYIE0/r/2Qv4ZJSp/bHGOCZHpfPAIO0tK1UZzFhS6QAqCI7gP5/ZH7v7DEIEsoYstkHOkSQ5JJIaGkrzzYKjH8CB/srUP/eM7AG1b2421XrkCXZaDdMvCt4yP4X/tPsZXteLWO2n+x2BIBhK2DnQ0RH3oI5chARwF3Mmzr7cDSnMPkxBHXQ9kPQDyLAcfE8x89wCJKzS/5mBXB67mVFeLcRVMwFg/qZBUdgwN+TklwIFaGtNUW28Ka2O1QsgjoTyolvCCTQWUS+B+fn8F0MYRjKti43MRsJcSRc3WQz9Prn5/Da1+QwdfmZvGZ4hRrP0ieQHMrYwPuxIEkgQwi8FzcldHRFPzr+uvwm8f24YwrdTOaSw30eQreeUWDrWmipTAKcXmugPcu2YDPnzl8gUPkxTgHaXBAfx8Pa6ykSLLNmgps8UzM7T6AgUqAXf/xHUyMjnCg9iplDuqUJaCygKHpMHWDfRRcMmyi7AFoHjW2dl61bBn6lgygq6cHruejXKmwD0N3bxdnEBzLgGPZ0ElqmVbyYSB8HUKfL16lUsHo+RE8uWcPHnnyCPMeAkVFNpONywjkZuTDUEnu2ec2SsMQrZgkA01dERQIl69bgzve+hY8dkUOexWSlBYlCZFpEsBSEBLFzEhCouQcNIMDUeaiz9QPDza0CJIMQhKoZWBuZBDidDsdiTsZYo0ECqrUOZImCDa+RrG2giwnyM9JQ6Q0WbGJBJkiKTZUGFMiSbLzQmYm0jyEtLcEf7vicUteAs2SFGsSc5aoMqbLDumOBuWmLz/YIin+eMao1qh/xDNAbPvblvXghsEuXNdVwKr2LM6Xavjq8fM4Va6h4vm458wE3P+C7odt3W14yYo+LM1ZPCvUtXBNdwEFQ2Q6zpZrqIchjhQr+JMT49jWnsUHNyzBA1NFfPDoMK/ykldzMpsfJWli4rNmDhIgIFv/+M8GXUw8mMR6SIa8+HEV75ce5JcZOrZlcsIFMV410+e6VRUvzeVw184qPntvCTdscLCsT0NbRrgVPnO6jt1HXbTnVXzg9e0YV328d/QMavGxLgQHSYBJnxZ3P8QuiXEWOEWOlC7NEV7TM4hfHVyNNz3zBM7Uqw2LZ3GWEfp0HVutPK42c8hWNYT1EO2dDq4cGsAnT+6Hr6Dp/kiDA7nKk6RMmTkQuYYIJ/0KdnizIFUAByqun40w/NQBrPENfOEf/gnr167F448+DJdKIERaCyP2N9AUjTsQiGMQUkeBHyCMQliGiq5CHssHe7Fk5TL0Dy2FoluYnpxCPt+G/r5e5PMFtmQ2LZNbFCmoB+SvQKUDdoQMUamWMToyjKf27sPjTx6BT5kKYtITV8TOSXPHIgAAIABJREFUwA8D6Dy3Ie+D0tl1t8pZLQIbHX39uG7b8zGZUbD55S/CvcYEtJ52nAeVakIO9LzqVuPsU9yVIu7aZkKiyBwk4ICuSzqDIPBpc9pfahdIgNAgEcZ3rSxJpDMQorwgrowsEcgSQ3p1zmOMV/oSaEgSY1rFUa7iEyCRAJG0NoLMQIjtxB0jOzAaPIK4jVPKLAuMlcpMLGDyJFs6lRu/1AIIP+I40zr8T8AMbO1uw9rOHJZkLbxyRT8GczYDhH87OQaq/dPryHQJ3zgxgrkgnBeQn9sEUHo4o6n42RW92NhZ4A/3Z0ys78hhWc7hUDxRq+PgdAmkKlj2fZwsVUFsenp9t+TizUt7cXt/B/7bvpN4qkhteklZoFGmWCQhkR6IVFOmrIVHzj8pIh/9/dkIiY10cGyFzGtDatdTVdyeL8ROhUn6fblhYLvl4JN3FfH1hyt4zysKODniY/NqE5NF8gIAPvWdIvo6dPz2awro6VHx1pFTKFMGIaUgKc6xuazAD+UGGIn/NU79y3EtJIL0+t4luKmtC58ZPY1H2a1RgIulmoX/J9+La608vrxzGE+fK6OvK4ffeOlGzJUrsOHieFDDfq+MMnU4NOSvL8KBaJj8itE/4xexuz7H0tr9ioEbTxex474HYBerKJ8bxamTJzBy9jQHX2orpNOlIE2rcAJTTKILaeUt0vVCUjmLod4uDCzpx4o1a2DnOlCcmWNJ5O6+HnR1dCKXycAggEFaCJSBINMn3+d9unUPNbeK0fPn8PRT+7F7/wlU6z6q9TpnMajUwalynv0AJukfUCkg8OC7deZBdHR24cprt2D59mtRu2YlHnzwPmReeBUGCl3YFU6wjqIEbRIAJIWXWEY8BlFsQRVrVMgMvH+QSgxJwJUiRzKHFkYJQVFux0z/BQFC3Iob8w8E4IjvnUiYNC0EECT3IL1/CRRkUoTGIfcnthOyoFLDge/gBrhpdqeUGQS5jQAOApZLgJAWSJIZhObMg4IWQHhuz+bW1q0ZeNYZcHQVS7I2p5PzuoaPv+hK5E2Dv5TFuo/hck0o/DVnork0cWK2grPFKgxN4ZV/l2NhIGvDpPxx6sXOeYqCoSxp1hv8EHKDAA+OTGOE6sBEYPNDzHrSUVA8seTKcyZS8HsbV+Kr56fw0VOjMX8iPaDFlxXoYdZv6NhoG9xyOB0E2FV1UeUTFD9JY2KcKRBPo3glFZcV2KlR9D+y6E8U4ecLbdwjn3hLAKtME5cHNj7y9TmcGffxh29ow9nxEEPdGqbicsO/PV7F/lN1vOUlOVx3uYk3nz+FShg0TKHmg4P5F1R0KcSEyXg89GxOwEEzmCKi2qu6h/D2wRX40Kln8MDcBGwFeHfbIG6w2zn1/YbP7sMf3nYlBrpyuPOxEzDg4a1b+pm1f9CrYp9HHRfiuAsREmUYknNK2+71itjvl/iRv0l1sHnvWXz+ox/DqpWrcWj/fpw8fkQ4JVIqnsChmgQzBm7MQwhZsIhCGfEAiLDY192GwcEBrNt0JZxsgbsSCAi0dXWjq70T7fkctzmy8BEF4JB0DWhEKty6i0qljPPnzuLokWPYsecQA+VyzWUyYyGbZd0Ez/e5/EWgUmMhJ4UFm2g/BID7uzuw4YrLseIFN+H++76H9tffjBdt3ILPRscxFRHXgUNeLIKUAMj5nAMJDgRoFVe6uGcVHIcyHoJEKLmncuUtAUJ8tzZslNMcBJmel8GWuxJSIkkiU5CYLDUkjFN1/+Y2xWTln4yH5qVZmlkCCtnqKHNzApMmGQQBCJJsBsOxWOcgKavEgkgL2USTV4blQrnhyy0OQivmtWbgv2oGPnTtZfj5tUNsRNQsVLS4EfhhiKmah3/cewKfPJZIQT+vpw3bhjriBwqtwmXCXC5nROClaPHiwR5saMvjL4+fx1dG4hVv4/AUsJtbGdMPV7FZUoIoqBpuzZEQkzS+ASYIrJSrqHI2oZEjWJCQKEoXFK2o1h/TEGOznVucLAYNPemuUBT0aSq2hFl85Btz2HHQxYuvdmDqwNohE08ec/G89Rb+6HPTGOrU8csvy2P9Rg3vHj2NWqyDt1DmQJ6ROM+wAVLmg7L5rYzJuYkt86qKP119JbYVhGkWEfPIq0Cnc4iAiWIVv/WVnfjqk2N4x/YBvHfgH6DmN6Dadwce8uoYjSWTE5mrZF0swZ2c/3IUMP9gOBQyy1epGVy/dxif/fuP4uSJ45grTsN3A8SWmGzpTDecSMHHs0BkuTBksEkqorapI0tmSYUMhpYMYO3GjejsHUAYBfDcOgq5PP+0Z7MwHKMhg03lCSpXkGeD5/mYnZvG6NlhHDp6DE88+QyK1RqqrgdF1fm+z+SyPILAJ10G0kZQYBkGbOqKCAME9Rps4psYJnqGBjFVLOJnfulNWHf7LficfgZHMQeSwFpQBGkeIVFew3Q77uwjG6BoAcxMDbomnU3jFkdeZUuCYgxvpfwy7ywOujHLP7FMjrsa4ttdAgSpR3CBhHFDlCjuFojSVs5i1AxU5gEECQISj4VmF0YJDGQpQ2YzGgAhdoGU58Hf0AZXQTwzVMODkalCoe9kCyAs7sHc2qo1A5fyDDBAGGyP3Qjj6r6s/TecEoGMruJd61fi3olZ/NYzp7nGz4+9OP0uAzb/KZ6H814JOKCHz2rLwLas3VAs5LSlItoM91RdFFOsrYRzEFfXOauR1Pr5t1RL4krDxHYitjVARsTdAS/KZHHuTMAg4cSIj/f8bAF+AHTlVXzuvhKGp328ansWb7o1h11uBX82NTKPByIzG+kiQ7MIUlq3gR/SjXEtNB9x2I5FkGjTD/evxZIoj7sPTODfnzyL752a5Lo5BWkSdXrfi4bwTvVnoOsFhEt/Bzvab8Exv9JU4pjPOZDggK7JWFDHd90pTrcToNus5HDlrlP41Ic/jGPHj4uMgcSGEgFRGYgK/XGSn9jvNCYCDKamwNY1ZG2D3Rw7uzowMDSIlZetQb5QgO+HTDJ0Mhkmv5KpkqoZPF5uN4QC3yOyooeZmQmMjozg8JFjeGLPfkzMFrm8RSCFhJVMy+KWR8ooUHujxQJJ9HmPyYt5TYWl6dypUKfOC0UVYklvfhN2rjTwhDGNIoQyZcI5kC2yF3IO0uCA7vOZRzc2LqJueqAfBqjS2CsFEBpaBk0ExUSKmAECp/kFfEw4k4kkM3cizOM6sB5EXDYQBMbY2Cn+u2xxFCl/ae+ctGRK8uP8TAYdnyinzQBBpA9pHAwA4i+2LDnwfaIGoIYUw65C0RJgr9zw5Yeiky2hpEv52d8aW2sGvu8MbO0uYPtQu2TPibprHBhksKP3Xj7Yg3VtOXz93Bj+5ewkzvuBkK2VwToVDONFZ+rYCTiQyGGDZeCaDNWVZZpXZATomGfrPvbUaiiFjW5wCUcE6ZH3nKq3p8AB7Z86Fm7P5VirX678Kb5dZlrYZFp4ZJ+L//W1OSzr1XHwjIf+dg1VL8KWtSbe9bMFRFaER2olfLs0h6NEomvgneYavwApcSpXoKUk7yHnsfGOjLZx/Tces1ChTMo0H+tcg28+MY6/uO8Up/bXdTpY00v19ghtZog3rB3Gusl3Q1WzCIfejcN9b8CT9RJbGYsjxAEkrqWLGYjNHqIIR4IyHnNneKy015+L2jDz6a/jzk9/CnNFqcuQlLI4lU9GTVRmoOwVdVMEAXcY6KxLINpeiajY10WExG4WQ+rv78fKNWsRKQYy2RxsJ4OcpcPQFZiawS2TguAasXQztS7OlUoYHZ3AwYOHsWvPfoxOzfB2VNKgF3VSUGbFsm1kHQcheTPQfrw6AuqG8APusiAiJb18z0d7zsHLbv9ZbHzdK3D/kI+nMMVZIeHFIedLgIP0dZgPDmh/049e3vR9okKJYXmcTVB0kVFIOhhiT4MU/0Detfy1iVfk1GIrV/viAi4MELjc0+iESISZRLlDfKvolmoAhFhBsQH2ZAagIegk81qxCmK8/XyA0GzSFAMOurc1H6oWQjPqiLTk/pUTpFz/pRZA+L5P39YGrRm4xGdgW09BlBgE9+yCDgF6r8cy8QsrB+GFEf7x8EkM1wM8UakzQU4+VMUzPLGDTk67+cEr399gG7jGoYRw+uESq9pBwYjn4bFKFax/FxMv5EqNuwTm+T+kH+6U+r7BcbCEjINSmQwyF77CsrBSN/HwPhenx/xYGRGwDRU3X20jkweecqs46ddRCQLcVy1hktv5JMWrmZDYKEQ3LIIv5spIZEdZrpFzdeHcfKJrLb746Aj+5qEzWNFm4S9eUMaK4PNMzHN0IOOdBlxSUMwjXPLrONr7OiYc1hv6kpIv0NzFIbkR97jjmPFdZKaKsI+cw9D+M9h19z04NzLMQkgcjNnbQIAB/i+zE0meWAQVVjKk9kBFhaaGMEk6WQGLIC0b6mPPBbJ17urtR1f/EtjZLGzbYUdHQyGrZlFWoto2ZQPqLgEEDzPFEiYmp3DyxCns2LUXw2Pj8Mj7g4KfSo2BNBSydzZhZ7Lw/TrcWpUzCMSJ4FUxJfrpGJowc6KfDSuW4Nrrb8SaV70cjy6LsAMigyLLLwsREhuBLnXvTT7cDBAa25Cfgx5AN3zoOmlwJitvcQxJbEyJH6XcD+NkmMAHUiQpJWgkSkfNltAivS+VFZMMhAQItNpn06VYF4G/ZY0WyuQ4iT10Iu0sORHiuHEpggjFlC0wfdH2SaAoBYjnP+ZaAOESf/C3hteagcXMwNYeyiAQQEgkaGXIlquoG3s7sLW7A184eRbDZZGiPVKrY2dNaPmLhc+Fq4g05yBJyottN1rmPIAgPx9TEyMFU6GP+8oV1KhWLR+Q3KIWbzMvc9AACQpYFGmr4zTq3XKVRXr9K3STMwlKmLADCFQUtQA7qxVMUQtfTM6c9n3cV5lj9cH4GZs63xS8abgyJuchffwaIKoBEGRJJL0tifhE+P/aV2Lf00X88V3HcOtlXfjo5X8Go/wwrYflOlEAMXsjsPKPsddZhwNeRZQMkqshr4rgD8RpaQqoe3fvwvS378fY/sMIy2VUSmVMFaeZe0IkQNI8UKlKT94GqsgeKBT9CQSoGnsvUAbBVGUgJutl0kYQLbLd7Tn0dneie6Af+UIeSwaXIlNoY4tn+lF1hfUdVE0VinuUQfBDVOseZotFTE9M4PTJk9i1dz/Onh/jTgZuA6QgrJLmgVjrK7oBz6uz7DOBBhoT8RAk5CKjJ9vQ2Wdi88YNuHrLVpT9Oq6+7VYcXGXjnsop+LYK3TZQb3g0pI3GZPlMEDHp/pu4CEBIAwX6HmlWHbpOhQ6R5xItsqKdMNEKEGTbJBjLrIBY0VNwZxOpeZ9Lt0rKfcmvgfiOSCibJhumBZaSMocYd9zmGHc5NMyWYq4D3XWG7kE1/LjNYqHv+YVPmhZAWMzTt7VNawYu8RlggLCkXRAfUytcCQ4oFUsdAR0a0KVq/NCaQcRdBw+V6jjoCm+JhS2HZUhNiI/SlXEjlRgaGYR0oIwfYLGz3pjn4dFqBdWA+tebCYkxNIkDZ/LgEu2OGq53HLSTfr90d+QHqOh+oPR2j6bzORGPfjTwQQQ+mc6Wl432erZew85amUWT+KG/ACFRrG7TECK9h+abIF1WkFkF7tGHgtvtNtwe9ODjD55G3tHxG32/CcM/g6j/rUD+akAvINK7AKMdnmKwZPJwUG+AF6kbIZ79ClQiE5K2xo6n8J2PfwpTU1McaD1affuUmvcxVytBJwtnSrsHgmwaUMBVFW4npDZDx8ywcyP5MgReiKxlkPIxMrbF6oie63FmoD2fRV9XF/qWLUFbR4G9G/oGl8DQbJayVnVycFRYRpkqFxSgXC9EmUpKxSImRoZx+tRxPPPMcYxOzrKkNOkh0HUjW2gqRxDhtu5HcKwMyIGT/BxonJQJcD0BEkjlMWdZzIO441WvhtPTgWk9xP4HH2G/iPyGFeh4xQ04Z9awL5wS+ZcLeDMCwLDbZhRh4uErFv1tJsMn3aoDugCWMnhTRkaMULorJjbNSXpfEBAb24jcSaODiUFCDAQSFcUYcMz7XLPFtADXkn+QjEFkihiwUamBzlcNoZv1iwD/7z8NyvVfejg6ya1RrVdrBloz8OM6Aw2AIPBBHOzFnySdtMzSsMHSkSdhnkNPw5+agHPFNQjzBRx2fXxttoo9NXdBMp/Yi+QBpEGEggQgyC7yC5/O8qF9tl4XnATKJDSkjtPg48JVDa1oN1k21ltWI4sg0+wyG8GZ87gOHbeKizV4qrWTKxyIcKLu4mm3giICrvPywzyVNbk4QGgGDfM5B+JfZTkAaNc1/En7SqzWHREW9r8BSmknmDFgX4Go52Zg4K2sMHg6cLm8UImSdLmcbUrlR2PTmHlyP57+t7tw6vBxPjHSHaBx+5HPIIHUEIsVAgjEMSCZ5wB12obcG2nVT/LIjgXbsFlbYq5c4vOnFlrHNtFRyHF7bbVShmOa6GzLoa3QhmVrVqN/oI8IC2hr74Ru2FCodKGR0JIKTdfY1THwI3aFLM7NoFwuoTg7g7Hhszg7MonzU7M4PTKBmldnkSbSJCZCY52yHDrxHkwGDoaho1gqoVzzmDBZyDqwdJ15CeT/sGTpcnStWoaiEqA0PIaCaeGGl9yKba/5OfyT/zQOhpRBSe5W1gyIeQ+JYJKCyYcWLjE823dfVGx8KAa1ywoXyQZvZZ5JkxRaahAP48xPOqCnWxzTyoVy9I2WS76xZCtmkrkQ4CKd2RAGZCLzEonuDE1aVP3gTzXlhi8SQBDItfVqzUBrBn48Z2Brbx7blhBJsRkcEO/ockfHekuDQSvnchGTH/tzuMcPIX/zbci//Oeh5ttwygvw5ZkydlZdJhVeWFaQAbJ5hdacQRAHl2WAxkzGrYz04DrredhVq6KS0kmYP+ONhH/MpejRNGxzstxGKIN+/GhsIqQ1jtyEUVL8gDj9esZzsa9eZW3/pkbMhuJjekRx9bkBaOaVFeKTTXMwKHDTw3q7WcDb8oPo10yoY1+FMvJp1hOIMmsRDbweKFyHsSjATncOk6F4Bot1ofjpilSceeBxHLrnfhza/VQslCNEhWjFTXkQL3A5g0BEPvpTpQuu6ChTTR+CgGgaNjKmht6eLliGg/GpGRYzsii4qwr6uruQyzoIXZdljzPUydCeQy6bx9rLN6KntxeeFyCby8NyMhwg6RahLgjKWNC51t0a3GoF5dkilzdITro4M4kjx89heGwKh0+fQ83z2GqatBmYbwAFdoZIij63RxLoqlFmwQvRkcsgl3E420FOk6yVEAKmoSNr28i3FbDuiiuwdNMVuPKOl+Iu4zx2h6NxuUPUsRhuxvdQowilAFMPXvmDf8n54kRcxxd8n5jwqgpwx62XsjyQIiQmZQMxKCmUJMiDiYZCejsCcAy7Ux4LUkxJAFkBqPkW5HvuQtfUH/xEY6hCAKFl9/z/dxpbn2/NwI92Bp7Xm8NWLjEQgU6OJcKAruLGrAWLFBUffwDlB+5GZvvNqO3fjdrBp5C9/ma0v/qNCHUDz7ge7i3WsLvqYpxqwo0VWPwgWoCfkACEGJjERPv4tzhfH38+3t+45+Ghahm1BkhoDshNzPOYzb/FzrBIUvJgTDIajWPJaNDYnQAHSWEkJkAoCmZ9H4e8Go75NWG4cxFwsBhCotT4l9kI+r1dMXCdmcd6M4OrzBwGiQdQOQ42I9Ac1K0lOBX6eMavYI48DOJHPY1Vh4IlboSdd34Vu+76Hiamp2FbDqxMBo5tC5lkRYHrVjA7N4m5UhHFcol5BcSXoAxBzfc4+GsacQssFHJZVjGs1mochJlvAGD50AD6+3o4QJORUqk4h96uNrTlMyjkMlizcSPa2rs4Y5Fp64Bp53j1X3UrHOQNU3g6hKSB4Lsc/EmjgAJbcXoGe/cdxJnhURw7N4YgClgMy3NdqAxwVA6mNY8y2AqTFskWmkoXQ329rL1QLJPHhcoeEORKSWCEQI9tmnAcGy9/9R1Y9wu34svGaTwdjMcdAuJ+Swi70tabZjfE9IObfrhfVgIJKSdSTu3TEVSRVSNza1FaSAszxWA6zgKkjZrSGYVGXm6B797FW29/eKfHGYQWQPjhTWhrT60Z+FHMwHW9eeYgiCZnWqGwxh1eWrDRoyqo7noUM1/4JILJMeRf+kpktr8QU//yt/BOn0DultvQ/vq3Yy5S8Fi1hlE/wFHXw75qHbIqLtPwojQg1y1EUrRiDoJIeXI9mp/PkiyZ4hTEb9PnJ3wfD1YIJMhHYGMttGC9tKAoeFm+TajvNdZNMSM8JjymOx3SGRAJJeLHdOPTFEjPBx6edMsokdTxBWWPuPUxPl8pNMXBJ+Z5kAZAQxqXjJkUBeuNDC4381z2oJowBTXif/SqBoh0R6qOk8QB4J51SUoU80Qc/9Uu8Pi/3on7v/0dLFu5EmuvuIJ9ETKFLEKFFAepG0PF7NQU9ux6jNP8e3Y/gbHhYXg+rcyFIZRBnQK2CV234wKRaGuktD0RF1f0d2PVmjUw7AwmJ6f48/V6DRtWL0cuY3E749CypWjr6AJ0E1a2AFW3UCuVUSF/B2qRNHUYBvESDCiGwpkGymb4foCp2Rns3bUHh46ewMhMESFlOCgJRC2NfhBzEKgDhUgNotSghAGytsXdDTPTM9DIWMrQkbELsE2SFScXyBqXHIIgRFdXO17/zjfh9A09+EJwhLMaXAJIeX3wnZUCzT90gPCj+ML/Fx2zBRD+iya6dZjWDPxnzgABhG1LY5JiHAItBbijYMM98BSmPvV38MeE8qKayaL71/4A9cP7Udm7A/Wjh5F/+auQfeUb8ESo4CSle6MIXgQcqLo45/uokMkNp23T5QfiIIguhoZmwoLgQFLu4tV8/BAf9jzuNiinQEJaKKlRL4lbKDeaFq62M6LWH3cbhA3CY5yXb0yy6JhIoEwzsGhsFqsJHvaqOO65DFjoPGO1/8ZmCxMSxd5JSNtUgQHNwuVGDlmNVsbx8WJwIZoN5XjS0k+CQCf2o2JVXcHpu+7DoWcO4prnbYWTb+OxiHR5bNFMugHkkOj7OHroGUyOn8ejjz6AkZFJXiGTJwJxEji4muS4qLNBEnUJUBsoAYSetgKWDQ2iracTYaThzJkzmJuaQlsugxVL+9FGcsqqgo6uTnT2dCObb4/1ExSUS0VUqi4fxyDRIyvLIIHAEukZEDGyUqvhzPkR7H/ySRw+eow7HOh9l7oZiDjJxk5kEhUgiFTopgldU5ExDB7fTLEKmwCDErDvQy7XByUkJ0qD2yKJZ0EZFeJBLBnqx6+871344tAovhuea9wfQsugGdASgW/uwav+M7+KP1H7bnEQfqIuZ+tkflpnYEsTQBCBuE1TcVtWx9wX/hlzd3+jUa9XswUUfubV8CdGkX3e8zH24T+A1tmN7nf9NvYOLMMR1xce87FgQT0CKJhPBCGqYcD8AXKopA6CNaaBTdzFkIQ/EQvlO83gQAoqcYZDUXDGq+NJ5iTIkNysqJDWRaBV4c2ZPDskJsdIs9ISOLAwOEiPS+yZNQFkqUNRMFJ3MRJ6nFGoIGDAQKtxGp3kBtBnCHzZioaMqqJT0zCkWcgoZHuUcAhkpkWMJXGkkCJICXwBf3YtTEw9uhvD50e5Y4A6BdgQKbaqpmvCXQkE1urUueChVqtiZPgMnty1A2dOHkPddVGruajVyftApL4VxeB9kQtjR0c7OvJZbmHM5fKklIOZmWmMjYyy9PGaVSvR1VFgrQPSRejvH0BbV6dQgDQ1aFGIetVFhbgC0JgAaTikdqmKVkVVQUg+IHNzOHDwEI4fOYjhkVG4fsDkQ85+kGRfXAKg30lEiXURbBN5x8H01CxsM8caDkS6zDo2LKcdvkvS0EGcVTBRr1WgGSZUVcOr3/DzePFrb8dv+A/gVFSKHRzTT4MY9CkRZh7Y/NP6mHjO561s/0KrxPCcZ631gdYMXGIzsKE7i1tXCKEkEY6ArKrg5/IW/NPHMfOFf2bOAQUbvbsPhdtejblv/29o7R2onzyGjte+Bc7zX8wZhGNcy74wmFIKntway2HE/AFqK8yqKjo4iMXbLwIcNPECFOCsV8fj1eoFGgUJOIgzBqA2TQ03OFnkWA2wUW9IjTeuPzfRFxOwIveZiEktQKrkcwPKDIZohRsy+U1aZlFtn8SaSPbZkjUVOfGcOZBEzmdzZRTzRdNFZYkr9Ryiw6dw+NAR5No6eUXNAEEhG2vRs+bTWMha2SdJ4ghuvc4dA+XiDMbGRzF5fhiTU5MYGT6H2elJ1Osunxyt8h3bQS5XwPqrt6K/qw1eaQr1WpUNks6eOYXSXInllVcsW45CWw65jM1liO6ObmQKOZF9cKgEELGhUp0toql9hNpPNUTcOkvvRexBMTUxhQMHDuD0yeMoVV3Mlioo1QPUfJ85C6TSmHGyKBeLiMI620S3d3Yg39aNWrmMjvYOJjD29w1AVw2Y2Tzcqo+ZyUlMjoxxicer1eAFJGxkoqOzgD/9+w/jQXsMH6nvieWfk3tYAjyqI03d3wIIi318xQBB9EC3Xq0ZaM3Aj+cMFNptPH9JAZfZZG4kpHZoxf2KNgdkAE1cg+lPf4y7F7I33Yrcjbdg6hN/DX96Cl1veQ/sLdejpht4nEoKdT9lJJUmA6YDbRyBG5wDmeJPcgk0k82yRCnQEfek8zuKwpyE+ytkTy1LGLLOHyvwNVL1AHk0bLYzHFg5y9EAM/MllGX6Ps4zp0Sk5FUWvISFXs3nIUGX0DlIv5r3kFhKL8aVURx7le5gRdHD3h27udavmw5UXWPBI+F0KFrXSECIyGxEKCQQQul8yhbUazWUqxWMnR/F5NQUTh87hHNH9nP7IxEaCx0d6OobxIo1GzGwciO6ujoxcXw/poePYWpyAiPD5xn8DC1bgsHBQdiOg3w2i8irc6Bu62jnVkaVXLFIBpiMlgg0eZQXv791AAAgAElEQVRZIX8HHapKP8RB8DA7O4Xzp0/j5LFjqNSqcIMI50YmMTpTRNUTttaZjI2s7SCfz2K2OMttmF19AzCsHKZHTuHGF92KgZVrkMvkYNkWCu1dUNj7QYFbrWL05Cl87xv/jpmxCTaBItD21l9/K9bcsgV/4j+KMxFZmIt7iXIuQqpBXLvp+6/+8fyS/whG3QIIP4JJbx2yNQM/7Blw2ixkuzJ4WcFGtxFH7Qi40jZwpUOad0Awfh5jH/o9BNOTUHN5hNUqut76a3C2PZ9724f9AI9XXFQaBksXBwcLExIlABAhlzIY7eQBQHXfKMIs1c3jYE5BhoMLG+SINoJx38cDDBJiWBGDCNlhQMGRWrmIyHe1lcFq0kaI9yGhSDMhMQVIJIyYn3S46IVIwYAYAywsIpXAC8YfVIdvOCZeWFZIEyUpeGVVHdv1Ak4/sRtTJVK6s6CR+JCm8MqYtQZUam0MWImQArUoiRBHUJgjledKGJsYxaljR3DqyCEUp8/DsB0YqgG3XsOmbS/EwKoNyGRy0FQdumWymuL+R/4Dx/ftRG1uCu1dbejpHURf/xCDimw2A9+toLu3D225Ng7SpJrICIXACvEciIxIXRe6AVM3uWQUBQGmp6Z5HLt2PYb1l2/C6NQsDh87iZLrYWx8LAYUCgb6+lhrYaY4B0vR0D0wxF0ME8OncMcbf5m7Mjq7OuHksli6ej102+a5oRIP3SFe2cXXP30nDuzczToN/cv68D///k/xxfAgPh8cYmDFJtRMJBXy2C2A8NyePC2A8Nzmq7V1awYuyRkggJDvdlgr4MaciXZSGCJxFwV4cc5Bd1zLDsbOY+JvPoigNIvCz7wGuRe+DDBNVMIIu2t1nIpXp2lhpDSfoBkCxL+lGOIUJPsNnbsbrFIJH/3bv8XY2Ch++R3vxIqNG7G/7uK0XwfxGuRLVCcE+5zKDbtrFVQ5XR3X86mO3ugwEAdzFAXPc7IYoCAa19rl2JI1/YVr/QuqEgtezR8EHCRlBdrls1k2y4wAAZ+1WhZLp6o4eOgoQt1CEIvikKGRolM2KEJEqojcsij2G3CaX8pWh3BrNUxOjuPE4cMozU4y2Mp2dGN6dAJzM6O47MrNWLJyHSwzg3oYslRypVrD9LnjOLnnAVRnxtDR3YVMroDu3n4WT8pYNuDV0NPXz9oHtmOzVLN0IOSMRtyqyJbWNF5NYbOm6akpnD1+BNPT0+jqG8IzR0+x9bPr1VlMiUoffkBaAiorJ+azGeQLbQgVA3MT57H1+TfhhT9zByzLYfEkO1eAZhjQOVNBNumi2ENiTaViCfd+7ZvY9d17ydUJv/3hD2BqYwF/7+/BNFyhD5ACB/S5VgZh8Y8wBggnq60Sw+KnrLVlawYuvRnIEEDocrilrsdQcY1jop16AgF06io22xZ6dVbnhz9yDvXjh+Fcux2KZaMYRjjo1nGkwT1Ir7znlRWaTj3dyiiOtdow+FiWomD37t344p2f4UBPAeC3f+d32er3CBMTa6CGvHSCnlbGVNY+5bl4KiYu8k6FbV6qGCDGRGDoeXYWvYZIfSfKiQmMkRoF/AGhQ/19Lt6F//79MwcJOBC5m2cnJIoWUAU5RcMNURZnDh7DRMmFqhuiO4EzBSqvtNl9MSYpkqYBlVSoXk+EQCLxaTrZJPu8ap8YG2d+Aq/qTQeToyOYPX8CufY2LFm9Ebm2DhYhMm2TWwgJIIydPsTZgt7eflQrRbRlbLYEJ/4BxeGurj5kchmWaSYAQBwElvLWyPNBYwtn2pDGSwCv7tVZRfHk4YMIzQw6lm2ErznY9cj3UJocwfD585geH4PHXRUKB30CGHTdyQp69epVeNUb3oL+1VfCMiiTQucosgZUwqAfcU9QZ6RoJJ2enMK3Pvt57Hv4UVx53RV4yx++B5/QD+DRaLjRjsqE1LhUM3n/NZfeF/gSHZGy/fMPRydaAOESvTytYbVmYHEzkI0zCGyGQz33moYtWRM5XvWBSX2DuoqlhoFCbJ9cjYBzXoDRIMAoZQ6a6vlpkCAeynElIB5Qs84BBcUBXceNGQdm3P3wzM67EJ36Ege0bz7dgXf82u+iu7uHg+PeWg373Gp8TBGUZWgm2HDe8/B4rRxzEmRvgAQJIs0tz4taH4d0M6W9wGigsUcSrmGFO6k6l5pSuUfCUmwdzNoECUh4LuAgzYYQ5yP2Hs9eEzihgLfdaIN2fgpHTg0DpsOZAtIDIIlkKh9Yls3uiKXZacyMTzBrnxQQ3aoLt+7xeA1TZ0+CQNVYkdDOZoiVCM20MTc5gfL4WVRrJaxadxVyXT3w6z5nBIjEeGLPQ+yb2D20HMsuu5xtl4PyJJTqLNziFDKOgY6OHt4ndQpQWYiOSdkMGqdCAAHCrImYEnS2tbqP6dk5jI9PoW/FZehZsZHlmw89+Tj27XgI7d29mJocY/Li3MwMzw/pODhOBoNDS3DTrS/H5utfBM3KMZmRyhoMEiLxdwJJVMbggK/ROYfsOUBchG994Us4ve8pvP39v4rZ7b34uP8UyEA7DQ7o3pv4XouDsLinCqBs+/wjrQzCYmertV1rBi7RGci2m8h32/FCWQSmnKbglrwDJ6Yk0HOdVvbpYEnGRYIXkH7JUCoD7fcTQRJB8IWZDAZilT+qmT9616dwWe2rULJD+Lt7bfzim34F6zds4AMVwxD3V8uYDSUrQRIKmZTAIGLM93BvpZjSXkgYBjIY05/UaniVbWOpbglp3UgVKnbppEMcsBOnRAEhSLxog0mlGZoVsfKfDXzs9yqYjOZnVpt3KEobxH4QgGKhsoKY1QT6SPbnSs3BVZ6Bhx55Aka+AxFlCwLiL6isWVCam8OhPbux5/FHhRSxW+N5IQXE0A9QqVZYFIuki3mfGqkohOzWGCoaFN1CFHkI3TK8eg2OlYfu2DBhcMdBGNSAehFWWwesTB6dfUMYWrEamXweS/p74U6fh6mEMMnsRwuYs0DlKvqTAAJZAlG7Io23FoSoBQrqigm70Aun0IFSuYj2bB5mvsDqipU5yio8jdMnj+GarTdhcmIETz76IA4/cwCaaWCgfxDXXn8TNl53A9o6+7m0QlwIbkMl90fGTpS1EACBsifUQeHVPc5skMfD1MwMvnPnV5C3ArzmXW/EB40ncCgiEBLfW0zeDTH+vesu0W/xpTcsZfudj0Qnaq0Sw6V3aVojas3A4mdAAgSWfKU6thIhIAU/AC/JOWjTSdFvYb7+cwMHC3crtKsqnp/NIBd3Fhw9epRr0Js2Cd37T378E5grFvGud7+L++9JjOhJt4ZDnrtAF4HgHJDK4I5aBSdjKd60OmITnFFC2IqKa60slrAbYJw/iE/3Yme9XndwtZEV6n4UiCiQx7GcUt473CKOshSz0BNI9zsknIiLgwPxiXngIKJsjo4X6gU89cgTKEcWzIyDKFJZ5bBOPJBjR3H/t7+N8XNnYVkU6CPWPSC3Q9vSUHfrPF5aQTP2I0BFwTJwUfdCxles3BCJ9X0YeqwrQL87ho26V0MUuiBzA9VwWHyIPk+8gN7+QYwMD6OQs9FDnQ+rLkN7VzsKGYszChZJPVN5gbMXFox8DqrZBtg5RLqGiCyfKxXoqrj/ctkczwKdG5U/zhw5jDMnj2DTlm2sBkmuj888tQ/t3e1Yedl6LFuzAU4my6DVdEzmD7DppqaIkgMBlDAShEmSm67VWGCJMhzEb6iWa3joW/+Gm264BsVrO/Ehf4eQQU7JabcAwuKfK60MwuLnqrVlawYu2RnIt5vIdVvCuUCauMSRMaMo2GQbWGLqrI538VcqmC3Y/CfLCsmqWNbbh3QD2x0HNgvl+Ni5ayc6O7uwZs1lzL6//7778Jd/8ef4wB/+EZ63dSu3nj3tUpmhFi+qkwQ9j4JV+SLsrVZx0Ks10vTp0XOeQyGJZCGrSABok+VghWHBilPiC50rBbeNRgbGYQPDpz1svs5CZze5EiZ75zFEEXbVizjoV5uYC+lWRvGJ79+tINo1SFxJxdVqFrVjZ3F6fBbQqGtBQ6lUwvkTJ7Hr4Ydx7vhx9jqg8yIgQL3+FBBpXsmWmdfBRFSMSKZYXAuqTnAbYOSzDgFZKUdRwBoDlP53nALpL7MfA8MHvyLmXbP4PKllkoKslc2hWqlSngG6QQ6aot3S9TzoBCRIDCr0YTAvgFL+xE0gQyiDtRG8agVGxka1OAciKDC/gMca8g8RDOtBjT0ZLIecLmnedfovKz462RwymQxMx0ZXbw+TJtu6u9De1YXOvj509PUwV4F4CfSq0Vip/RJApUIlKw0To6Mw6yVccfU6vFf7HoajCt8fEqy1AMLiH2OcQTjZyiAsfsZaW7Zm4BKcgVy7iWwPBQ/xSmvPE16wVGCpoWOdbaIQuyJemDmQgX8hEJEGB2I7CQ5oa1I3vMFxuLugXJzF0SMHsXzVWrS3k3iTgl07d+IDH/h9vPGNv4Q7XvNaVggkcEAgYWHug8KeBfdVi5gNaD2ZKBkKB8aU3W4MKCS8WWGYWG1Y6CNeQrzyT/MD+lQDt9ht2PFIDZ//5Cwu32zhhhc4WL3WhO3QlmSEFODIkRmsvrwd97szmIgNlS7UOViIkJgmOsZL14g6ShSs0Rx0jhVx9PgwVNPB1OQUzhw7imPPHMDxA8+gFgMmDshUTgg9JgISYZGUE9uyQmGQ9A/o34ikyPbJnK4Q6X9qfSRHRcrBeJ4Lx8rAybSzjoJOmSXiOPhV8i+GYWSE7LHvcQpfMUxkshlUZ2ehMrTQWLCJXgQUdN3kK0ESyazQwPLbpIkgOCzUW5Hv7oBfqXHWgzQbBMGQVvwqlweoOkDgJAgDBPVQ/E57Iz0DgzoiDJHRCUgYyoNp2nAyGQwtW4ENW67G+uuuZs0EygqQcqRhEMmROig8kVEwTZQmp7BxRS925sbxl8EOKVbN5zHZKjEs+gmmbL/z0ZZZ06Knq7VhawYuzRnIdJjIMUAQ7YLiJcl9IqDTyrNLU7HS1LHKEm5+zcz+JI3+bIREuWJObY2cquHmbBZ5BaidewCl0w+g48q3QssNMWh5avcj+O9/9AHc8cqX4NVveh/X3J+g8gGpAjatz8X4aQX8cLWM8z7ZRYmAKzWZBENCdjbwSTT09xPyooZVhoXVhg2byweijECv7VYeK3ULOx918el/mkE+r2DZSlodq7jxRQ6cXB133XUaY2MVfOCPr8MzXhl7vDJI279ZPrmZWJnwG+ZzOMT4e1UL64sBjh86ifOTczi8/wBOHTqEseGzqJVKvLoOSV5Y01BxK7zi1hRq7QM84icEAbKx9oPn1RFGXswHoMU6SVeLIEyBt+5V4AcuTN1CNtPBgZ0cFBF43BkRBh4qtSJ0mh/D5uoJZSWg6ejq7kRxehqGajKYoLMMQ+pqoFQ+lTaoa4R8ISgjEDQ8IqiMIFos21CZLTPoYKdHKnXQZzVd+CgQ7IhbFuuuB5W7JnQ+P+Ku0GlwSyMLRWkwNCH+ZVI2Q1fRu3wJbnvdazGwdg0DCN5OUTnTUipWYNkGv9dmKujqsvBb/ndxNJppiHbN3Lvl0vwSX4KjUrbf+VgLIFyCF6Y1pNYMPJcZyHYYyPWYFwcHcS84PexpJdutqbjasVi6WOCEeeDgoq6MibcCs/5TTEDqYFgWlVH81u1AWIO96X2wVr6Gg0b5yFdw7uE/Q77Qgb6XfByl7ArcnRJFosOHsSsjyTnfXylinFfB6dW4mBFhnJQKzrFxE/sOxJMm/Q6oFXKrnUMPpcep/U9R8GKnHV2qjlo1wmMPVvHwfVVksgpOn/TQ3kkmC6PY/8wo+vsdfOQjN+B04OLh2iwT554zIZFpDRF3dtysdeDJex/G5/71TkyMj7GFsqKJLIdbrYgVMzkk6kLgyEcA03AQhsQ/IAOmEBkyX4pFkijokj4AcQpIPKoeUCaBxJNqCAKPV9IEDnh17hPRkMh8KiLSU6AVPMklK7RP4YxI7ZWkUZBvy6FWrsIknwNdZ5lmEi3iLgsCSSTipBmIfGpVFNkdKk+Q9HJIpRDiTNTqHORlqYYACUk0Ez+GWiY5C0Gghq4JZQ6IU0AgUNVYp4HLHpyVoMSIihyZRQUeSqUicy+WLF+G1/2/74LT0SFsoFWVsxXFcgU2CUEZOpdu1nQ6uF85jb/wH0PAvhQhpr+77bl8tX6qt1Wu//xj0cmKMHVtvVoz0JqBH88ZyHQSQKD6snylV7HN5yRXwdSkdplhYL1tcm2ceV9SSUjGZQYOjV/iVkERiOepGHDp4lYzQv27r0fkzyKCjclV/wNV30TpwKdwufMY1I5rYW35A+xR23G4TmQ7UQUgV0ZEKqsoPlEt42ycOZjfOkgBbb7wDQOcBsi58PpRwOozdGy2sgwUXup0MECQr9nZCN/8ahF7d9ZgWEQUGMHJU5PYeHkHfv/3r8HZoIaH3Vl48Rr02USQYggjInAMDigwbTPbsVbJ4P57v4eP/tXfY2Z6llf6VBYQpQTSNhASyrQSpoyAF9ZhWA50FShxfV1FLpPlXVOtn17UCkmZBt934QV11GkFzil9k10adVWFTfV60qLI5UQ5gAN1yOl5KhWwyBHdFPF4uVWSgjdpMgTUTUD3hsHdIYHv8j5Uw2T1QmrHJLIiBW3WQzANbmutzM7BsOkzxBegbgfSa3C5A4POjVAOBXYCPlQi4JZFznBQ1kSBZTus70BjoBKKY9nIZnOYmBpnkaj2fAFmRx5v+73fQaGLZJg1uNUa8y8s02LAYVomsgQWCjX8VfA49kbjzNWYvfd5P55f8h/BqFsZhB/BpLcO2ZqBH/YMNAOEeTXwFAFfggMZ9KmmTmu3VaaJPkNDu6axXTE3/TWoCAkfX6zMLwQHvKkCDGkGNml15KYPwJvYj6Pu5Wjr7EM+OIscxhAsuQXH1Az2kgZCE5hR2NHxqbhrQR6HNmlQJ2NCoiAxyjFIcJDeMgFJottA/BAgWqabeH/7EqzU7UbJgVay3/hyEefP+ahWA7T1zaGv38Cttw7BMFWcDGp4zJ1tZEukG4PMUizUrUCgpBL5mA49jIU1LNcyeFduBfxqDXd+6k587YtfQ6VS5tkkwp1lZxgweLUyiw1xuYGsp4MAJqXmQwrq4NU8WyrXhUqgbZE4lgqXui34tIV4ETltEpCxCBxQKQAhd0QopH5IlQRV4QwGd7rQSp/LBSoHZM024DhZ1IoChCgadZVonBGgTADPP6FJIjYSpKHj+QGLTdi5DEI/QqVE50ZqiTp3PlCwJz4EzQv3XvDnhe4ElVQIaBBoIb6CrujI5gp8A/qex++RkiO1Os7MTcPUDFiGiVKtjI1bt+Dlr/8FdPQPNI5JrZiUicjms4BuoD8T4QH9OD4R7EUp8jB779Yf9tfvJ3Z/yvbPPRadrLYyCD+xV7h1Yj8VM0AAId9LafQk7CateAlpUVTrm7sV5HaUfu/UVAYJ7ZrKYks5aiGLzZ+kBwCH5nmqhOkOyi5Nw3LdwKCmc/2fXiQ+NBb4OOv7OOPHQUbmIygQRBF2VsusoijBAX2yQUjkSJXOZAg+gGhpvLAMkT53hg5clhBn/vZ8P16R7eaVKv9bFOFfPjqHvbur2HilhZe/MouhpSLtTVbP+7wS9ntk/kNhNj13MTiJQQy1FpJE9GjgYSr0MBPVMRHV2QHTgIJ3Z5fhJVYvpicn8YmPfgJ3/8d3RAslhVkSBTIM+HHHBqX0SZphrlxCW6HAK/lsoYC2tnYU2gqcUrcsA4W2NoRegNmZaUzPzaFWqbEFNP3QSptkk5k7QdkAP2BgQGdNrYo0IyxyRFbL3LFA7ZQ+z2uukEdxaiZuJxTAgTomSB5ZI/In74eyDAHvxI+JpEbGgucG3IpJoIY4BFSOIBBGY6CyB32SJJaD0Gdp5rAeCCEmneBGyCUH7pIgUqRhCg8KglKKglKlBNuw+FxqQQ1WxsGGzZtxy6tfjUJ3N4MO163DyTrI5rKCw0DAMl/DX4c7sC8aw9R3WiWGxT4UlW0tgLDYuWpt15qBS3YGsgwQSE1QrKQpZZxWAUzIdcn6lwsKDY+D5owBOSVmVCKGkemSik5VAwX+nKrAUCigxdsvYH5EIZSgCgkYaalSRTWKUGMim4j17DMQg4MHyyWMBaR6lxASxYo4ISQ25UUuCg7EVsn50zGayy1LdRN/1X0ZbOLpE4ExivDZT87hiUeq6Bsw8EvvaMOSZTqPsxT6uLs2xbbPSc6CVr7C7roaBpgK6xiN6ihRi2EUooIILm2vCJNhWrXTq18z8a7MCmwxOzAxPo7P/fNn8e/fvJuJdkToox5/CqD0Crw6E/mqvovO7l5s2HwduoeW8HtDSwa4vU9TAgEWoKLqeqhWKywcRKUDWnnXPJ/T9zaT/OieiOC5VUSex/yBcqWEylwR5XIFvldHrVqFW6miUipBs3SUpqc5wNIlo+uiKyoMTeNWQq4S6MSLoDIDtTDSv2twOvIozsxxRwKNgUoYtD3thwWWyBo6zm6I3JDCREiTAIpK1yKEZZrMdyCAQ2ULutdydhbVWhk1r84cBdZboE4MsrNWNay86gq86dd/DaUqXZUQbe0FGKbBQIM6PXocFd9Rj+Cfoydx7p4WSXGxD7IWQFjsTLW2a83AJTwDCUBoBgciOIrVXhLg4veawIGsQwhRGVIipJqzBBn0edFyL0sMQpVxjWVik+PE6W35yJcTJVkKyb5lIoA4B7R/qusTOKBVt+xAEKAgBgeskiMyIMQ9CIjIGHc0pHsIYmmkC66QzBykQQPt60VWHu9tX8ZBj6ao7kW4/+4y9ux08YtvacPQMp3H9uezx/G4WxJ6A7HzJGk4SMKi7PYguV9JneTMB61aU+AgjF0oV6o23pNbiY16ATMzM/jFV96BYonKBdTmR/V6AiakeeDByefxgttvh9XRg66ODhTLZWIWYuWq5Zgcn2DSXr5QgKGS+iIdU7g+UvCntsd6PYRmaVyioKDrUK8rBXKduhGI+R8LGIWAZdBqXedgTx0SZIJE51wuleDX65wR8CouypUiKpUK/KoQuCKg4vme+Km76Oztge9Si6aJKsk6k61zRyfauro421HoaGc1RuIckDuj4D8Q2NBgGKYADzSGep3VJMeHR3Di4EGcPXgElZkZVKplJjnSXGTyGSZD0jnT8boG+/HG97+PNRSonEJZCvKdaLN09GZ0lBUP7/H/Hfu+s+kS/iZfWkOLAUJLSfHSuiyt0bRm4LnNgAAICfGOg2wTh2DhsgIHznlGSGK1GTMNGmn95iBPn6MAst60cE0KICSjvjDtLzIbCSGxFoXYU63gNBPfEp0Dud5vEBI5ICd7ZqnoxrjS89R8zIXBQVJgucUu4HW5fvSoBkzqJQxJbCdiYDBj1fHp8jAecef42MJyOgYtLG1AAEfU+Rm0xCCGtkjAQQzK4vkU3IkIG7UMfi+/DtHYFN7+hteg6hlwq1R2ITKghnxHJ9ZuuhpbXvACaBkLczNzTPzzPErn19HT28s+BrYGDroUZAlUuH4dQd0D3QUkp0x1f5IrpsBPq2kqmbC9EfsbaA2xI+oVYcUDIjeSlgFxH2rimmiGyc6bFJQ5zU8iRSq1JYquA9YrIF4DtbdWSry6J9IlzZbnRfDJW4KyAYReEMGwBGFSFDpE9wPtm+8n2ifvN4w7HYiwSCUNjUmZn/ifH8bw8WOiFEJZF49KE/TvOkLPgxf5WHXVVbjhJS/FwIoVApDkcljRTk6QCoaVIt7v340j97TMmhb7dFG2f+7x6ESLg7DY+Wpt15qBS3IGGCD0iLS4fHFgexbOQQIOEiOmxYIDfrgrSgMgUAK+mXTIECX1bjNAqUYh9l6EkCg1DrhMEAfVhH0gSyEL8Q4SILEgOEhxFRhgKMAyzcR2uw29qgkqq9SjECOhiwdrMxgLyRlRHEfOi+iWELmChKyZgLFGxoXTMCLTIM+D/w5gpWbij3Mb4Z8bxa+95Q1QTRu1uobeJavRt3Qp1l21GX1LlnN6nkoPMzOzmJyeFVwBTYXjOHBrVWQMBYX2dl49U+mhODeLyPdgWWYDIFg2tfyRRDG5JhI+IR8DhYWXaH9EPBRBWXAR2OsgiuASQIhCmJYtJJtZx4DKC8Lymf7P2zfcFUMUi1PcxspmTtwRqaIWAq4XcveA2AfLKzEgIV0FVkXk98Tdww6RxEMwYl4G2zsLnYe5ySnc941v4tDu3ZgcG+GUCU0zna9oY1GZuEjkxM3bt+MVr3sNNqwagqWrmEEVnw734p7oBM7f0+IgLPYhxgCh1ea42OlqbdeagUtzBgRJUQAEudom972EkrhQWSG9Ipa1+ga8iP9yYSAWQVs4JK43TVztZNKhtwkWJGUAARiIc0CkvScqFZyZlzlYPCFRhGb5aiYkXsg5kAFefkRyEuQ80efpXHj1rIh6Oi94JUkyzrAIQmQzOEhnNuR+KbMQn21S3CEp6HgA6zQHf5Bfj+Kx0/iNd74Fdj4HzbCxYevN2Pbi2wR5kGSLKW3veczOHx0ZR83zkHccHoUaBShkDOTa2jnrQMG2TPLGgQ/bsRDEA6NWP5FhoOAuPCXodwEOBNufhZNY44i6DkQAp+PSi1oYRRlFkk7iTA/vL/b3YK8Daol0YVrUhknZmAA+6SqEQN2nayJaHWmeyTuByikCZSkwiZzIXAMBQljymsdKMZ/eF6JMxCcgEPSdr/5vPH7PXSAJBiI5ZrNZ9u0gDYlSaY7P4ZaXvRi//Ku/jK6eLhSjGv5P+Ay+Hh7BnFLH9N3XX5pf4ktwVMq2zz7eEkq6BC9Ma0itGXguM5Dp1JHvE2JA81sZ5Up+IUIi13zjYJik7ZtX+zIYx5YHjfQ+ifOsNw1c7WTlOrvxp0whcwxIERIJHBDnYJzb5RYgJMaEwiZCYlzOiPUQ0wwFEWNSIlBpQqJ8n+r/1CLHa3o+V5ESTwBG3BERcwwIxMhuhSrbDngAAB0cSURBVEbmgBfNpMEg99Nc9phfVqBjCs6GIIsSOIh7JnC5nsXv5NZj8uBR/O573sEOijql5u0M1ly1Fdc8/yXklchtj1QmKM0VMTExjanZGZZaJqIeZQ86c1n2LmCiJfEBqhUuIXDWgMSIQjDpkVbulEEgnwaTSw3kzEhqhkK7gEFlIK6GbmhcOhHEwxAauURy5iBZydP80f4kJ4XImNQ5kM2QIiO5OFAdKWQ1zBAaAwVymGSdpUCAEJZ1js2mqI1SABaDMxvUaaHrsYR1bP5FKouGbhIMwEN3fxff+vQ/w3frMDXBN/BItjkIUK9Vsfm6y/Gr730PlixbBlcJ8HfRo3g4GGYOAr1aAGHxT5YWQFj8XLW2bM3AJTsDEiAsDhyIbMJzAQfixOPPpXgJl5tWDBCS7oi05LDkHBAhsY4Qj5TLOB8I+eRGTT+eVQ6yqe4LCUhE/X9h0JK+IBcjJMoVPQVtkcWQn2omdKq0EmYj4wvLClIzkqrl349zwClxipEigjaBA3rnGr0N78+twci+A/jA+9+DfD4HnVwbKROgaRhcexWufcFLoWkmaxXMzs1hbHwC09OzbNZEiondjo581oadyzMYIO6BX6/BILIhGTqRvgApDNqkSihOmIK4bdtx3Z58GIy4xi/oqwp0sWJnfwUqM1QFwFBEyycbJBF4IhTiUT5A+nOEqJdmYeU7EXHan8ABqTRGzH2gvAF1PXhBCLdOUsrC5IlBSnzOBBDIdInOn7kKrPZI4IqyJeQfIZQhuRPD8/APf/phnD3wNLKZPGrlGitPksv3Zct78ea3/QI2Xf8CqI6ND4b34dHwPF8P+d2YvvuGS/Z7fKkNrAUQLrUr0hpPawZ+gBkggJDrpwyCpPglAb05cyDBgSQnSo2AdNr+QkJiI6TGQU/+fjmXGCiDML8U0RxkSQSJOAfzdQ4uJCQ2ExCfjZAoiYHsOBHrHKQzCmmxpQvBgfRxik2f4hC5EDgQhERxxkIOOoZL1LnQ6FZIOAfczR9nTdKZA3lFthrteG/2MpzYvQcf/N33IZenljxLpP41DYGqo3vpaqzdvA1mvh1z03MYn5jA5NQMyx9ndA0dWcDOFFBoy/N7lWqVOx8o4JIwEQXhKAihO7Sqp4CscicCBXkiGLKvgqYyP4Hq/UxejCWLRTuignK5zJ0F7NhIZQ3KJPC5iTIL24cTF4FEl9wSdDMn5JNJ8wDUBkpujiqU2MeBQQK5TPKHKFMguAcU+LncQftngECfE3NMJRAymaLSCXMpyHPB8zA1Po1v3vkZuLNzGD5xCoFfw4Z1S/CyW69FvqMH67a8ECcLLt7nf0dwRSRYUyJM3nXjD/AN++n8iLLtsztaJYafzmvfOuufoBngDEI/EbyaV9oLg4NnKyskq+v50yNJj3K9Sf8uAAJxECSokGEwASjUrfDksxIS4zKEiO5NexLljwt5EOn3FkVInNcJ0ZgXLncLbkSzCJLIgzwnQmJsiCVKGcLrUsS55vHfYHbgPZnVOPDgw/irD/4hMrkcBz/DNGGQHoCuIlINZNq70Dm4Gmaui6WZz50bxsiZ4+jp6uLsAUkPZyz6jIFMJguSSLYdh/cjuIMKnHxWrMKp5s8qiuSjQJwENjmgNAN3cFCQ524CDvg0ao2dEZlASP/OWQThrSB0DAQPhc6RBJHCeo15FFJdkkoQgqlI/48dO3hQKhVqEtOnmJhIokjcykolDRJajDkPBFqq5RIC10Who43HRgRKKjkQEDl17BiO7HoCpjuJbVvWsXCTZjlYf+3zMdFr4L/5d8WmZIJ/Qa/Ju276Cfrm/+eeirLtM49HJ6utNsf/3Glu7b01A/+5M5Dt0mKAkATmC8EBPdxpdXhhqr15dM0MgKZ6/bxwlwCE+YEwISQ+Vi1j2BMiSPPLCrJjQRw/7rmICZDivebgmj6nhG/QvI3gDSRcgeayggQESTcEfbohyhR3HYjF8cUJiYJjILMJYsXcUJtIERLnqzzSXN5sduNXnJV45N++gX/92EdgZxyu9RuWxVwEKhPQSp9KFH5AZYI8Zkoejhw+hImR09xKaNsWSyRbug7bMBkskHGTk80iW2hj4h5pJPQODsLMZDirQGx/jQAItyrSD3UwiGBMxEAiAVIoJ50CLiWwfLLKZQj6PYq7EzjfEAdb+qNaKcPkmkDsp0CGUDQbjSAvsg5ENKT9k3IiiTKRxkK1XEZprsxiSR7pN7CXhArLNFDo7EDvQD9zMGq1EtZfdRUyREikcorvc/ujEgSoDR9CVDzPRlxU2vCiCOs23wh9WR9e739N2E2n2mIn/qMFEBb7NOIMwomWWdNi56u1XWsGLskZkABBBtR0LV/qHAg2epL6XygAy/dE/X++pHJzloCOsdEycI2TTVwOU66M1DL4YLWEsQssneOjzHNllBPbzDmQ74px0zGFyJIsRSTvC2XGpAQgOQBp8qUsS3Csm5c5mN/KyO7HrCnQXEBZSASJDaTizMH8skLjDOIqzm12L95iL8dX//GjuOeb/4fbFMk1kcsMpg2TeASsDaDC9QK4bhXlag1nRyYwOjHJwZGcH2nFz74Euik8GtivgZiJcZeCrrGnAoEBUiWkfRIQ0U0iEoIzD4ZlMy+ho7OLAYWTyTDQYJEhMmQyhFGTqRPJkFbhGkxSJzR17hqg+am65IaZg6ZoqJMLpR9gbnaWtRqoTDE3PYPS7Cxq5QprJbBEM0kzExig/2m68J+AEEvyfB8Z2+H7j8ZgZC0Mrr8M19/yYnT09CJgZ0kfqE0jmjsP3S/xtQz8kMmVdd/FZVddj87Vq/EL/pfhkRFY6jXeAgiLfoYp2z/zeHS8lUFY9IS1NmzNwKU4A2mAsDA4kGUFYvDPX8cnWQe52hbEvma55uS8RVCmVdl6w8K1MUBIKzBSWWFHrYxz3uIIiQ1w0BBuSs/yhSWGi4kgNbgCFyEkyvY5WSa5GOeAzoUle76PCJLokFgcOOB9KsAd9hBebw3hL3/vN3Hw6X3c9keBm0SJiNSnW7ZwRyQL57rPBDwKoKRMOFssY3RsgtsSc9ksisUiHOIlWA6vwunF3QmhiijyuTwgXorIUMSrbFqp0z8pYSyDTPoDoQ+T2hepDMAmXhEKfV2YHJ1ARMRS6iigDJSqCztp3eB7qau/B9PjU0IuWnYdMAkjLkOQYmPsVKnrJmzTgUZyylHImQ+vRqJHdbh1Kh2Ia23bGWp5QD6bR2Sp2HTTNrS1d6CvvwuKV4bizqKgkxMkEScJFAopSdKOqLk1rNh4HZauuxLvxNdxDuW4VZM8QYDpFkBY9CNM2faZHS2hpEVPV2vD1gxcmjPAAKGPHu4Jya/RvtjIHEiNgGYdAVEojqUCJQcgxfpuPuN4xS76AbBEN3BThlrtZMi9uCujhCEU3NPiQc3gQG7VDBAuRkhM5IoSEDFf54DDIwerRRIS4yFcSEiMNQAuKoK0MOeAplZKMtPMv9VZjp/VevErr3slgnqVa/vkzESZBOYP6KZQB2S5ZBcupdQDD7W6z5mEmdlprNtwJdZdtg5f+dKXGcgwOZHMnshOmboAqFxAssssrUzWz4JMSEGfavekQ0C/U4sgrbxZopl8EHSDgYYYkwLdseDXCOQFzGGgVgFFEXwB4hawFkLGRlBxuYRA+yQwwE6RZN0csw3pyMSDMKm8wV4LJJ4U8fHJO5SMmygzQDvWTR2mLrwZTMqkaBEqtbNYs3o5li4ZQE9XNxtYOZksAyqWVKATpNbKgABVHb3L12Pt5ufhb/TH8d3oNM+JzCNMtQDCoh9iMUBocRAWPWOtDVszcAnOQK5LZYDQUPJrJAlkK1q6O2DeirwpeMo+CBHsZHVdnHKaAClCs6ko2GTZWE4EO2K+hyGedqvP6sqYBjFyr89WVmiCCqluBfk+n3Ojs2A+v0KUSgTjkBl2HNyajKBozRxzDuS2olyQHDkRQRIjblApY0Al2hnT7ZjJjEnsRe+QFdO7M6twTVHD2159O9ryGXYthEoZBOFeSPwDWqWTeiAx9mv1Glw/BgiVCqZnZ/BLb34bIi/EnZ/5nDhQGHcVxOfKrouakDxmm+ZIgDI2T+JTIN4BpRBiOS1e8ZNGAb0vCIbMqSCzrvYCyjMzfBh6zzBsrvXTHGQLWTaK8ssV5jaEBAzYOlpMN5chmPOg8xhtR4AVtncOif8gMiXMV+CiigoSd2KuDNuOkx12gLJ7HpctX4KlQwPo7e1BR3s78y04K0KpkNjDoe77cL06cp392HT9zbjP/r/tXWuMXGUZfs7czszszOxud3Znt60UoUjkFvxBt1XEUCAqF0MMEE2INGAUbAyYKP5REkWNiRHbIMGgobZoCIYIRApoMIZoDFIKBKPhkkKFQoF2u2y7O/fdY573O9/MmcvuzPayu23fkzTb2T1zzvc958x8z3nf533ePdjkPVe73rxVxv580RL8BC/NITnrGEHIK0FYmpdHR6UIdIcACULPsDG9sZqDxsWucXGvHdWSA9+MyKw19UqCwHO5/5Z6BYQE1ml1G3KQoegNAKWI49M0KO4gSAz4HdicfXBBlsUo0EzqqAgSm8mB7TkhnSF9QWLN1GluctCtILGu2jDaiL5QGLf1rEbf6+/h9ls2oC+dEuW+xxSDtDeOIiR+A+yiOC3tl9ljoVguyUKcn5rC+OQh3PPQg3j56X/gN7+6zwgOJUVgSAAvik1bSFojRI8BVybE6ACvG5/u/ZtFygjtAi2LNPs3+E2sSCyyq1bg0Ptj8h6+puiPT+ryt6EsJg9OitsjKZIIN/3IBNMgoZA5F7ULrEiQZlQetQKmlwLZAvUX9EHgWDkXCjBFIkovB+oTpicxPT2O01YMY+WKEeSGslg2sEyqP9x4wngp8I4TN0dqNkoIxVNYc/EVeDddxsbpJ0xXSJ/aHXjyM919qHQvOGu3scxRCYLeC4rA8YxADwnCCMO/vgixVq3QzufAPAWbtIJ5oubbrK2+IQjNgkRJa4tpjT1HfQG3KQv7czbNQGvBYr0JUmPlhCEIRgNRr3SYS5DYLnJgoiZmXrObILGUURajJhMkzm+agkjpymiOP1/NQU3u4Vc8nBKO41vJ1XjrL8/gvrt+ip5EzEQQIvzJ1sSsYIjJYivOgKWS6A9KlZKkFw5OFVDtc3HX9kfx2pbHcO/mX9Zti9lcSVIH9BRga0fTWpuRCBKOdCojuhGG/4vFolQMcJNWzNJjwTcnkiZKpk8DKyrS2QEc2PueLPTSe8Fz4MoiTutFRxpNVcslvzzSL4MU3QGJB0lCRHo6UPJJYkAyQJlENMRyTKZFKsZiORY1ZII6BEYuEglJkUyUJ1AsfIAzhCAMC0EQUWUqLVUNYVo1y2BMJ0qSqjJC+NRnv4hiv4sbqo9IRQiTDEwbTWy/+Hj+qC/o2J2123Z4u7VZ04KCridTBI42AiQIKSEI9gvajwXYgvWGcsE6OZClU8oKDSGw0YPA87P8l6SgFqm3/zeJ/cBUzCLaLIGsdWWshePrb5H+BMFDtPE86CxIDM7VHHs+mgO7fydBYnPjpbmqFSTn789Lgvh+xcR5kTRuTa7GI7/YjL8/9SRc13QjRCgGR6IHESlfnKHzZLVqWi2XyyhUCpjKF3BwMo/E1y7HtzfcjP2/+yvu2XS3LMwkAXzy5+JrmiWZ0kIpWfQ3VjmINRHbSYsIkU/0YdEM8Bgsn6R2gU/ifPqfma6YVso9CTgcCwWnclxTIhqiyVJPHJWpglhQM0LA+0QiDWJ9bI4rHRfDMYkiMFrB3/MC0VqZUQ9WSThhB/FoXDQYxWJJUgYkDayYOHfteXj08Ydw1sohnLpiOXK5QQwMZKVbY7KHVRd0ZWSaYQbVahmlUgWFchkXXfFlhLJ92DD9MPJO1Te1Ag48oQSh2+8fZ/SBHd4bWubYLV66nyKwJBFIZ0NIM8VQqwLoJEj0n8ZtzwCfHAhhqM2w8aneuho2Rg6C76iTA/vboCDR1s5bWlE3QWqNVlidQNAh0TIJE93wIyUtZZsBciDzMKvZrA6J/lyDhYxybh8XGzlo7cpo21M3RkuCgkRzaKYWTLkow+CfjmWxMXYqfnzbN7Hr1f8iGTelh2D5YYSCO0YQjDVxuWx6HJQqRRRLJUzm85jyqlj2xztxU//HEfrTi9j0s5+jUCjKedwYhX0m1UACIIZG1BU4bKlsogTT0nPB6AsEf0ZJqEuwjZckQmRIBKMRJB60ME5l0sgfPCRpEAoKOU46IHo0LprMGwGjnS8XawYXhHz4rots6xyNS6WC8ZfgvzBCXsikNCjQjFJY6WFG2lQbc6fsYBaXXH0p7vzJD3HGcB8+unwYI7kccoM5ZPrSSKZ6RLMgVR/sITFdQYUEoVDAus9fh8zIML7uPYp3MWnvBuxXgtD1d5izZhurGEx5jG6KgCJwfCKQGnDQO+Irw5r6DTTMKKA5kO5+teCsv+C2kANLJIwAz1YT2MXAVhHYyAHXnGBXxrogsW6C1E7MZxbSoDBw/l0ZhRz5OgOz+DUJEq0Jku+QGCzlnFOQaAdWc3mco1ohEFOpdXX0SUzEAa6MDeNLlSxuv/km7Nu3F8lYVGr/HToIcqEUkhBClV0QK1WUimUUS3kUiiUcyhcwc/7p6N+0ETdGViH37DvYsuUBvLPnbYyPjUnVgtgo+1UTkmqQTog+riQL4TAqTC2wkoGRI+b+/duGxCISogeDaegk3gJ0JgSQGRrA+Pv7zCI77ckTvxMJy9N7eaogpEIsmSlylO6SFCaGJJUh0RO/nTSJVtg/IUkG0w/RRALJRBLLWJ0wMIDe/gEkpc9EEoNDAxgezODGr27AKf09WJXLYuUIdQg5LBvoQyqdgpuISzokxCoGb0Z8FNi46px1l+KUM8/G952nsQN7fQ0CMLZ9/fH5IV+EUUuKQUWKi4C8nlIROIoIpLIO0j5BaO3KaJ5ka2ID38PAnH72tEJt0fdz+HNpDlocEq0PQVBLIGJAq/QPllpabYEZYosg0Q8wdOuQWDdBmt0hkVoKmbuvwbCXolPkwLZsbueQaEsZLdmxxzQ6CA8uwrg+sRLr9ofwvVtvwYfjY0jEmOd3xdxI+iREYly1JRRfKJUk3M5/+UIRhwoFJO/4CuLrP4Hr3VNx5ssTeOiRxzGZL8jCXpqaxNjYfhz6cAzlfAmVUslUFPDJ2mO7ZFYQTNeiCyQPtmES0xwUMJJkGMGi0TNIhcEM/RCyGN+/3+gHxI/ZNFKSiEKVlRF1W2U5lvg1RVCplBCJumK+FE8kxctgYHAQ2dww+nM5pPv6xB5anB4TSSmBTLChFNMgzgwGUi5QmMAXrr4KQ6kEVmX7sXIkh9zQILLZLHp704j3JCQVIWTIm0G5XEGpmMfy1efi/Isuxa+95/Cw80rt0zb+uBKEbr96nHVbd6hRUrdo6X6KwBJFoGfQQWaEX9q+On0WzUFdkBjUHLRqCcQXX/LUfl+BWkVBqyCxneYgaNZkITucUsaaULHBIfHIBInMl3Nr7spo2kDPT5BoGkXVfQ7qkZVgm2vTNTITDuEb8dPR9++3cdeP7sDkwQNIMILgJqSskQsr6/pJNIxAsSKWxIdKBUwWCignY+i95zaEVw7iyuhyfPKVKn7/8GMiEnTZiyHmIpZIItETFyfCSqGMgx/uw9i+D1CQVtBsoxyRJ3pZREslGSR1BwzTx92ElA1yoaajYjwRF0dFNxlHJBpBPJ5ALB4XB0dGJ/a+/ZaIFeM9aXk6LxRKqFYqsh8Fl0wxiEFT3EXEpc4gCjcak7lJvwdGMJhW8DzTWZIaCukZQULjAdUqTsv14sB7e3DNtdcikwzjI/19WDmSRW4wi5GhHFIsd0zF4cYicKMuKtWyEB32a3BTy3DpNTfgCbyGTd4/awZhShC6/xLTCEL3WOmeisCSRaBOEGxOPPDTsgITMBCznMbIQaMGwC5yRtVuQ//zFCQGDJv809aqH1pBDKge2vkcBISPR9aVsS6ilEhBIKXR3JXRVitwrPacbX0OqFeYRZAolRNW4+EA2VAU302ciXefegZb771b2inHY2G4dE70zZEiUYb2IX0JuOAWpgo4WJzCVKEEb91ZSH7nOkQHMrgsnMPnXnew7cE/4OBUGYlkSlwJubi7CReRuGn8JCJBChep9Cf5oRZAFnjm+I3OwG6yL1MLEnAyRJCvXfExcDBVKEg6hJ0XOek9/9uF7NAQwjFXfA7E5lnKbA0xYOcF/p5+BlHp1hiRMcjizyoJigvDZnxMq1gXRmnzzF28GZye60MpP4H1l61HbzyCFZkMVgwPYGgwi+HcEPqX9UslA4mK9UNglEQI0DRw1fUb8Vx4D37g/Q1Vn/SObb9kyX6Ol9rAnLVbd3hvapnjUrsuOh5FYF4IuCnA7W1+lvczCzXhYr1gICDz8+1vfNlfwHTIPvE3yvBqgXP5T/CMQe+D2hrj714vVGg8WjDRYASF/t9tCaa83wgCrUpCfvoHrA3XpkECYsvg4KwgMnic4BgN/amTKvPaCAttTKY5rSDkwY8gWFSsBqJ+8UyVBqMWqVAEl8dGsHvni3hpx78knB9lrwMKE0NctI3inyV5fMquUoPAha5MoWIVobNXIXLhOQgnXJzmpHD+/jCe3bEDxfJMzYWRfgcsTWQ1BIWGnDcXdMIpCztrF6QMktUTpn0zIwoGZR9n0Qz4BEEaM7EUMiSujjy+adLsYWJiXEoNWbMo95Pf5ZHn5Sblmz4+Jm1BQyqfCPhdIm0ZKDUP4oVgtSgUOYYcZNMJVGbK2Lx5E+IhB72JODKpBDKpNDIZljkmTPUFLZd98SXPyUqJcnUGZ19wIfaGp7Adr4pQlaOY+s/H5vXZOpl3dtZue16bNZ3Md4DOXRFQBBQBRUARaIOAM7r1ee+NvFYx6N2hCCgCioAioAgoAnUEnAt++7y3W8sc9Z5QBBQBRUARUAQUgQACGkHQ20ERUAQUAUVAEVAEWhBQgqA3hSKgCCgCioAioAgoQdB7QBFQBBQBRUARUAQ6I+CMUoOgIsXOSOkeioAioAgoAorASYSAM/rbnd7uvLZ7PomuuU5VEVAEFAFFQBHoiIBGEDpCpDsoAoqAInDiI1A3zzrx53o8zdBYTC3O5oxu0TLHxYFez6oIKAKKwMIjQCIw09Crw4xBCcLCX4tuztiOIBg3y2O/OWu20ElRjZKOPdR6BkVAEVAEFgcB2gzbTYnA4lyDo3nWZtIgHTaPwSYEQZ0UjwGyekhFQBFQBBYRgWqbKMEiDkdPvUAIRI4iWXDWbNmpBGGBLpyeRhFQBBSBY4mATR+0b7B1LM+sx15qCLBlFlMRR7I5a7a84L2hVQxHgqG+VxFQBBSBRUWAXSWpIjA/u9vmWjrYlVK3xUXAs60u2wyj26tj+moavcLhUAUlCIt7D+jZFQFFQBE4bATmQwyaF/3DWTAOe6D6xqOKQDNBmItM2BMzmmAIQ/ebM3r/Tm+XNmvqHjHdUxFQBBSBJYAAF4mg+LDdkOTJsetoQLfPpUtg8ifVELqjciQJna7gfEmCEAStYjip7jadrCKgCBznCHRDDkJzEoNOS8lxDtAJP/y5ScPMHOkJQtOtkNEZvf8F703VIJzwt5NOUBFQBE4cBGarUOgcMWgkBu2WGUe5w5K5UbymC9T+0rQnCx4cNL8/ODGWRnaKTTij97+oBGHJ3A46EEVAEVAEOiPQjiAwlTDbUhE8ot2nHRFQbtAZ+4Xeo/maBhf91uvVuLf8fZbUA/fs5J+gBGGhr7aeTxFQBBSBI0SgmSC0koOmSIH/Mrh8eG1SEPMlCHK8rjUORzjpE+Dt3YgJm6fZQvqc+pN/7Xo5xgmzcau/U8yxmtIOXRKEl7xdU+UTAHqdgiKgCCgCJwcCdYLgIdSyMtR/YVIOQUw8zLRlAZ7s1ynkfHKgu7RmyYiBuWSNVyckL5siBi1EIUAS5G/1190QhP8DqzwvYpjmX78AAAAASUVORK5CYII=;" vertex="1" parent="1">
          <mxGeometry x="160" y="70" width="520" height="254" as="geometry" />
        </mxCell>
        <mxCell id="fH7PO6iGlBYApESxM02J-3" value="" style="rounded=0;whiteSpace=wrap;html=1;fillColor=#3399FF;strokeColor=none;gradientColor=#CCFFFF;gradientDirection=south;" vertex="1" parent="1">
          <mxGeometry x="160" y="370" width="520" height="260" as="geometry" />
        </mxCell>
        <mxCell id="fH7PO6iGlBYApESxM02J-4" value="&lt;font color=&quot;#333333&quot; face=&quot;Tahoma&quot; size=&quot;1&quot; style=&quot;&quot;&gt;&lt;b style=&quot;font-size: 30px;&quot;&gt;Modern DBA Project&lt;/b&gt;&lt;/font&gt;" style="text;html=1;strokeColor=none;fillColor=none;align=center;verticalAlign=middle;whiteSpace=wrap;rounded=0;shadow=0;" vertex="1" parent="1">
          <mxGeometry x="238.5" y="421" width="360" height="30" as="geometry" />
        </mxCell>
        <mxCell id="fH7PO6iGlBYApESxM02J-5" value="&lt;font face=&quot;Tahoma&quot; color=&quot;#ffffff&quot; size=&quot;1&quot; style=&quot;&quot;&gt;&lt;b style=&quot;font-size: 30px;&quot;&gt;Modern DBA Project&lt;/b&gt;&lt;/font&gt;" style="text;html=1;strokeColor=none;fillColor=none;align=center;verticalAlign=middle;whiteSpace=wrap;rounded=0;shadow=0;" vertex="1" parent="1">
          <mxGeometry x="238.5" y="391" width="360" height="30" as="geometry" />
        </mxCell>
        <mxCell id="fH7PO6iGlBYApESxM02J-9" value="" style="endArrow=none;html=1;rounded=0;strokeWidth=1;strokeColor=#E6E6E6;" edge="1" parent="1">
          <mxGeometry width="50" height="50" relative="1" as="geometry">
            <mxPoint x="270" y="461.5" as="sourcePoint" />
            <mxPoint x="460" y="460.5" as="targetPoint" />
          </mxGeometry>
        </mxCell>
      </root>
    </mxGraphModel>
  </diagram>
</mxfile>
